<svg width="80" height="32" viewBox="0 0 80 32" fill="none" xmlns="http://www.w3.org/2000/svg">
<path d="M0.728125 5.072L1.62875 5.50678L1.63431 5.49488L0.728125 5.072ZM2.50413 2.624L1.82986 1.88551L1.82986 1.88551L2.50413 2.624ZM5.04813 1.088L5.39238 2.02687L5.40078 2.02379L5.40912 2.02057L5.04813 1.088ZM34.1841 1.088L33.8127 2.01647L33.8311 2.02382L33.8497 2.03043L34.1841 1.088ZM36.7761 2.624L37.4504 1.88551V1.88551L36.7761 2.624ZM38.5521 5.072L37.6459 5.49492L37.6516 5.50675L38.5521 5.072ZM38.5521 27.488L39.4528 27.9228L39.4583 27.9109L38.5521 27.488ZM34.1841 31.472L34.5284 32.4109L34.5368 32.4078L34.5451 32.4046L34.1841 31.472ZM5.04813 31.472L4.67673 32.4005L4.69509 32.4078L4.71372 32.4144L5.04813 31.472ZM0.728125 27.488L-0.178136 27.9109L-0.172427 27.9227L0.728125 27.488ZM28.6641 9.92L29.0098 8.98166L28.2409 8.69837L27.812 9.39661L28.6641 9.92ZM20.7921 22.736L19.94 22.2126L19.0043 23.736H20.7921V22.736ZM28.2321 22.736V23.736H28.3149L28.3965 23.7224L28.2321 22.736ZM29.2881 22.256L29.9129 23.0369L29.9214 23.03L29.2881 22.256ZM29.8161 11.024H30.8161V10.8714L30.7706 10.7257L29.8161 11.024ZM11.0481 9.776V8.776H10.9654L10.8837 8.7896L11.0481 9.776ZM9.99213 10.256L9.36743 9.47513L9.34716 9.49135L9.32776 9.50859L9.99213 10.256ZM9.46413 11.024L8.49398 10.7815L8.46413 10.9009V11.024H9.46413ZM10.3281 22.496L9.84248 23.3702L10.6833 23.8373L11.1828 23.0152L10.3281 22.496ZM18.0561 9.776L18.9108 10.2952L19.8338 8.776H18.0561V9.776ZM1.05613 8.24C1.05613 7.18411 1.25523 6.28031 1.62868 5.50675L-0.172427 4.63725C-0.694982 5.71969 -0.943875 6.92788 -0.943875 8.24H1.05613ZM1.63431 5.49488C2.03012 4.64672 2.54577 3.9401 3.1784 3.36248L1.82986 1.88551C0.990479 2.6519 0.322131 3.57728 -0.178058 4.64911L1.63431 5.49488ZM3.17839 3.36248C3.81594 2.78038 4.55112 2.33534 5.39238 2.02687L4.70387 0.149121C3.62513 0.544662 2.66431 1.12362 1.82986 1.88551L3.17839 3.36248ZM5.40912 2.02057C6.28684 1.6808 7.18851 1.512 8.12013 1.512V-0.488001C6.93974 -0.488001 5.79341 -0.272804 4.68713 0.155429L5.40912 2.02057ZM8.12013 1.512H31.1601V-0.488001H8.12013V1.512ZM31.1601 1.512C32.0917 1.512 32.9734 1.68074 33.8127 2.01647L34.5555 0.15952C33.4748 -0.272745 32.3406 -0.488001 31.1601 -0.488001V1.512ZM33.8497 2.03043C34.7231 2.34035 35.4699 2.78546 36.1019 3.36248L37.4504 1.88551C36.6104 1.11854 35.6291 0.539649 34.5185 0.14557L33.8497 2.03043ZM36.1019 3.36248C36.7345 3.9401 37.2501 4.64672 37.6459 5.49488L39.4583 4.64911C38.9581 3.57728 38.2898 2.6519 37.4504 1.88551L36.1019 3.36248ZM37.6516 5.50675C38.025 6.28031 38.2241 7.18411 38.2241 8.24H40.2241C40.2241 6.92788 39.9752 5.71969 39.4527 4.63725L37.6516 5.50675ZM38.2241 8.24V24.272H40.2241V8.24H38.2241ZM38.2241 24.272C38.2241 25.3272 38.0252 26.2524 37.6459 27.0651L39.4583 27.9109C39.975 26.8036 40.2241 25.5848 40.2241 24.272H38.2241ZM37.6516 27.0532C37.257 27.8705 36.7406 28.5663 36.1019 29.1495L37.4504 30.6265C38.2837 29.8657 38.9512 28.9615 39.4527 27.9227L37.6516 27.0532ZM36.1019 29.1495C35.4634 29.7325 34.7074 30.1971 33.8231 30.5394L34.5451 32.4046C35.6448 31.9789 36.6169 31.3875 37.4504 30.6265L36.1019 29.1495ZM33.8399 30.5331C32.9938 30.8434 32.1026 31 31.1601 31V33C32.3297 33 33.4545 32.8046 34.5284 32.4109L33.8399 30.5331ZM31.1601 31H8.12013V33H31.1601V31ZM8.12013 31C7.17768 31 6.2668 30.8433 5.38253 30.5296L4.71372 32.4144C5.81345 32.8047 6.95057 33 8.12013 33V31ZM5.41952 30.5435C4.56683 30.2024 3.82236 29.7375 3.17839 29.1495L1.82986 30.6265C2.65789 31.3825 3.60942 31.9736 4.67673 32.4005L5.41952 30.5435ZM3.17839 29.1495C2.53968 28.5663 2.0232 27.8705 1.62868 27.0532L-0.172427 27.9227C0.329046 28.9615 0.996566 29.8657 1.82986 30.6265L3.17839 29.1495ZM1.63431 27.0651C1.25502 26.2524 1.05613 25.3272 1.05613 24.272H-0.943875C-0.943875 25.5848 -0.69477 26.8036 -0.178058 27.9109L1.63431 27.0651ZM1.05613 24.272V8.24H-0.943875V24.272H1.05613ZM27.812 9.39661L19.94 22.2126L21.6442 23.2594L29.5162 10.4434L27.812 9.39661ZM20.7921 23.736H28.2321V21.736H20.7921V23.736ZM28.3965 23.7224C28.958 23.6288 29.4667 23.3937 29.9128 23.0369L28.6634 21.4751C28.4695 21.6303 28.2743 21.7152 28.0677 21.7496L28.3965 23.7224ZM29.9214 23.03C30.3711 22.662 30.8161 22.1186 30.8161 21.392H28.8161C28.8161 21.3224 28.8396 21.2882 28.8308 21.3026C28.8179 21.3237 28.7721 21.3861 28.6549 21.482L29.9214 23.03ZM30.8161 21.392V11.024H28.8161V21.392H30.8161ZM30.7706 10.7257C30.4985 9.85485 29.8415 9.28805 29.0098 8.98166L28.3184 10.8583C28.7028 10.9999 28.8138 11.1691 28.8616 11.3223L30.7706 10.7257ZM10.8837 8.7896C10.3223 8.88318 9.81351 9.11827 9.36743 9.47513L10.6168 11.0369C10.8107 10.8817 11.006 10.7968 11.2125 10.7624L10.8837 8.7896ZM9.32776 9.50859C8.95515 9.8398 8.62449 10.2594 8.49398 10.7815L10.4343 11.2665C10.4318 11.2766 10.4531 11.1842 10.6565 11.0034L9.32776 9.50859ZM8.46413 11.024V21.392H10.4641V11.024H8.46413ZM8.46413 21.392C8.46413 22.3521 9.14733 22.984 9.84248 23.3702L10.8138 21.6218C10.5982 21.5021 10.5028 21.4087 10.4676 21.3637C10.4434 21.3327 10.4641 21.3492 10.4641 21.392H8.46413ZM11.1828 23.0152L18.9108 10.2952L17.2015 9.25677L9.47349 21.9768L11.1828 23.0152ZM18.0561 8.776H11.0481V10.776H18.0561V8.776ZM69.7375 11.696V12.696H69.8815L70.0197 12.6554L69.7375 11.696ZM70.5535 10.736H71.5535V10.6806L71.5474 10.6256L70.5535 10.736ZM70.3615 10.112L69.504 10.6265L69.5305 10.6707L69.5615 10.712L70.3615 10.112ZM69.7375 9.776L69.9336 8.79542L69.8365 8.776H69.7375V9.776ZM42.6655 9.776H41.6655V10.776H42.6655V9.776ZM42.6655 0.511999V-0.488001H41.6655V0.511999H42.6655ZM74.9215 1.088L74.5501 2.01647L74.5685 2.02382L74.5871 2.03043L74.9215 1.088ZM77.5135 2.624L78.1878 1.88551L78.1878 1.88551L77.5135 2.624ZM79.2895 5.072L78.3832 5.49492L78.3889 5.50675L79.2895 5.072ZM79.2895 16.304L80.1901 16.7388L80.1957 16.7269L79.2895 16.304ZM74.9215 20.288L75.2658 21.2269L75.2742 21.2238L75.2825 21.2206L74.9215 20.288ZM52.8895 20.816V19.816H52.7455L52.6073 19.8566L52.8895 20.816ZM52.0735 22.736H51.0735V23.736H52.0735V22.736ZM79.9615 22.736H80.9615V21.736H79.9615V22.736ZM79.9615 32V33H80.9615V32H79.9615ZM42.6655 32H41.6655V33H42.6655V32ZM43.3375 16.256L44.2381 16.6908L44.2437 16.6789L43.3375 16.256ZM47.6575 12.272L48.0018 13.2109L48.0102 13.2078L48.0185 13.2046L47.6575 12.272ZM70.0197 12.6554C70.4148 12.5392 70.8122 12.3357 71.1114 11.9836C71.4229 11.6172 71.5535 11.1773 71.5535 10.736H69.5535C69.5535 10.7612 69.55 10.7608 69.5557 10.7441C69.562 10.7256 69.5735 10.7049 69.5876 10.6884C69.6148 10.6563 69.6042 10.6928 69.4553 10.7366L70.0197 12.6554ZM71.5474 10.6256C71.5094 10.2833 71.4204 9.85723 71.1615 9.512L69.5615 10.712C69.5398 10.6831 69.5287 10.6615 69.5246 10.6529C69.5206 10.6444 69.5217 10.645 69.5257 10.6581C69.5344 10.6863 69.5484 10.7456 69.5596 10.8464L71.5474 10.6256ZM71.219 9.5975C70.9005 9.06662 70.3356 8.87581 69.9336 8.79542L69.5414 10.7566C69.5875 10.7658 69.6196 10.7748 69.6403 10.7817C69.6611 10.7886 69.6659 10.792 69.6594 10.7885C69.6466 10.7816 69.5702 10.7368 69.504 10.6265L71.219 9.5975ZM69.7375 8.776H42.6655V10.776H69.7375V8.776ZM43.6655 9.776V0.511999H41.6655V9.776H43.6655ZM42.6655 1.512H71.8975V-0.488001H42.6655V1.512ZM71.8975 1.512C72.8291 1.512 73.7108 1.68074 74.5501 2.01647L75.2929 0.15952C74.2122 -0.272745 73.0779 -0.488001 71.8975 -0.488001V1.512ZM74.5871 2.03043C75.4605 2.34035 76.2072 2.78546 76.8392 3.36248L78.1878 1.88551C77.3478 1.11854 76.3665 0.539649 75.2559 0.14557L74.5871 2.03043ZM76.8392 3.36248C77.4719 3.9401 77.9875 4.64672 78.3833 5.49488L80.1957 4.64911C79.6955 3.57728 79.0271 2.6519 78.1878 1.88551L76.8392 3.36248ZM78.3889 5.50675C78.7624 6.28031 78.9615 7.18411 78.9615 8.24H80.9615C80.9615 6.92788 80.7126 5.71969 80.1901 4.63725L78.3889 5.50675ZM78.9615 8.24V13.088H80.9615V8.24H78.9615ZM78.9615 13.088C78.9615 14.1432 78.7626 15.0684 78.3833 15.8811L80.1957 16.7269C80.7124 15.6196 80.9615 14.4008 80.9615 13.088H78.9615ZM78.3889 15.8692C77.9944 16.6865 77.4779 17.3823 76.8392 17.9655L78.1878 19.4425C79.0211 18.6817 79.6886 17.7775 80.1901 16.7387L78.3889 15.8692ZM76.8392 17.9655C76.2007 18.5485 75.4448 19.0131 74.5605 19.3554L75.2825 21.2206C76.3822 20.7949 77.3543 20.2035 78.1878 19.4425L76.8392 17.9655ZM74.5772 19.3491C73.7311 19.6594 72.84 19.816 71.8975 19.816V21.816C73.067 21.816 74.1919 21.6206 75.2658 21.2269L74.5772 19.3491ZM71.8975 19.816H52.8895V21.816H71.8975V19.816ZM52.6073 19.8566C52.2346 19.9663 51.8494 20.1489 51.5505 20.4654C51.2297 20.805 51.0735 21.2308 51.0735 21.68H53.0735C53.0735 21.6866 53.072 21.7142 53.0573 21.7524C53.0422 21.7914 53.0211 21.821 53.0045 21.8386C52.9897 21.8543 52.9875 21.851 53.0138 21.8366C53.0406 21.8218 53.0904 21.7993 53.1717 21.7754L52.6073 19.8566ZM51.0735 21.68V22.736H53.0735V21.68H51.0735ZM52.0735 23.736H79.9615V21.736H52.0735V23.736ZM78.9615 22.736V32H80.9615V22.736H78.9615ZM79.9615 31H42.6655V33H79.9615V31ZM43.6655 32V19.424H41.6655V32H43.6655ZM43.6655 19.424C43.6655 18.3681 43.8646 17.4643 44.2381 16.6907L42.4369 15.8213C41.9144 16.9037 41.6655 18.1119 41.6655 19.424H43.6655ZM44.2437 16.6789C44.6395 15.8307 45.1551 15.1241 45.7878 14.5465L44.4392 13.0695C43.5999 13.8359 42.9315 14.7613 42.4313 15.8331L44.2437 16.6789ZM45.7878 14.5465C46.4253 13.9644 47.1605 13.5193 48.0018 13.2109L47.3132 11.3331C46.2345 11.7287 45.2737 12.3076 44.4392 13.0695L45.7878 14.5465ZM48.0185 13.2046C48.8962 12.8648 49.7979 12.696 50.7295 12.696V10.696C49.5491 10.696 48.4028 10.9112 47.2965 11.3394L48.0185 13.2046ZM50.7295 12.696H69.7375V10.696H50.7295V12.696Z" fill="url(#paint0_linear_1019_622)"/>
<defs>
<linearGradient id="paint0_linear_1019_622" x1="40" y1="-11" x2="40" y2="49.6333" gradientUnits="userSpaceOnUse">
<stop stop-color="#A8BBFF"/>
<stop offset="1" stop-color="#0012B7" stop-opacity="0.88"/>
</linearGradient>
</defs>
</svg>
