<svg width="81" height="32" viewBox="0 0 81 32" fill="none" xmlns="http://www.w3.org/2000/svg">
<path d="M1.32773 5.072L2.22836 5.50678L2.23392 5.49488L1.32773 5.072ZM3.10373 2.624L2.42947 1.88551L2.42946 1.88551L3.10373 2.624ZM5.64773 1.088L5.99199 2.02687L6.00039 2.02379L6.00873 2.02057L5.64773 1.088ZM34.7837 1.088L34.4123 2.01647L34.4307 2.02382L34.4493 2.03043L34.7837 1.088ZM37.3757 2.624L38.05 1.88551V1.88551L37.3757 2.624ZM39.1517 5.072L38.2455 5.49492L38.2512 5.50675L39.1517 5.072ZM39.1517 27.488L40.0524 27.9228L40.0579 27.9109L39.1517 27.488ZM34.7837 31.472L35.128 32.4109L35.1364 32.4078L35.1447 32.4046L34.7837 31.472ZM5.64773 31.472L5.27634 32.4005L5.2947 32.4078L5.31332 32.4144L5.64773 31.472ZM1.32773 27.488L0.421473 27.9109L0.427183 27.9227L1.32773 27.488ZM29.2637 9.92L29.6094 8.98166L28.8405 8.69837L28.4116 9.39661L29.2637 9.92ZM21.3917 22.736L20.5396 22.2126L19.6039 23.736H21.3917V22.736ZM28.8317 22.736V23.736H28.9145L28.9961 23.7224L28.8317 22.736ZM29.8877 22.256L30.5125 23.0369L30.521 23.03L29.8877 22.256ZM30.4157 11.024H31.4157V10.8714L31.3702 10.7257L30.4157 11.024ZM11.6477 9.776V8.776H11.565L11.4833 8.7896L11.6477 9.776ZM10.5917 10.256L9.96704 9.47513L9.94677 9.49135L9.92737 9.50859L10.5917 10.256ZM10.0637 11.024L9.09359 10.7815L9.06374 10.9009V11.024H10.0637ZM10.9277 22.496L10.4421 23.3702L11.2829 23.8373L11.7824 23.0152L10.9277 22.496ZM18.6557 9.776L19.5104 10.2952L20.4334 8.776H18.6557V9.776ZM1.65573 8.24C1.65573 7.18411 1.85484 6.28031 2.22829 5.50675L0.427183 4.63725C-0.0953726 5.71969 -0.344265 6.92788 -0.344265 8.24H1.65573ZM2.23392 5.49488C2.62973 4.64672 3.14538 3.9401 3.778 3.36248L2.42946 1.88551C1.59009 2.6519 0.921741 3.57728 0.421551 4.64911L2.23392 5.49488ZM3.778 3.36248C4.41555 2.78038 5.15073 2.33534 5.99199 2.02687L5.30348 0.149121C4.22474 0.544662 3.26392 1.12362 2.42947 1.88551L3.778 3.36248ZM6.00873 2.02057C6.88645 1.6808 7.78812 1.512 8.71974 1.512V-0.488001C7.53935 -0.488001 6.39301 -0.272804 5.28674 0.155429L6.00873 2.02057ZM8.71974 1.512H31.7597V-0.488001H8.71974V1.512ZM31.7597 1.512C32.6913 1.512 33.573 1.68074 34.4123 2.01647L35.1551 0.15952C34.0745 -0.272745 32.9402 -0.488001 31.7597 -0.488001V1.512ZM34.4493 2.03043C35.3227 2.34035 36.0695 2.78546 36.7015 3.36248L38.05 1.88551C37.21 1.11854 36.2287 0.539649 35.1181 0.14557L34.4493 2.03043ZM36.7015 3.36248C37.3341 3.9401 37.8497 4.64672 38.2456 5.49488L40.0579 4.64911C39.5577 3.57728 38.8894 2.6519 38.05 1.88551L36.7015 3.36248ZM38.2512 5.50675C38.6246 6.28031 38.8237 7.18411 38.8237 8.24H40.8237C40.8237 6.92788 40.5748 5.71969 40.0523 4.63725L38.2512 5.50675ZM38.8237 8.24V24.272H40.8237V8.24H38.8237ZM38.8237 24.272C38.8237 25.3272 38.6248 26.2524 38.2456 27.0651L40.0579 27.9109C40.5746 26.8036 40.8237 25.5848 40.8237 24.272H38.8237ZM38.2512 27.0532C37.8567 27.8705 37.3402 28.5663 36.7015 29.1495L38.05 30.6265C38.8833 29.8657 39.5508 28.9615 40.0523 27.9227L38.2512 27.0532ZM36.7015 29.1495C36.063 29.7325 35.307 30.1971 34.4227 30.5394L35.1447 32.4046C36.2444 31.9789 37.2165 31.3875 38.05 30.6265L36.7015 29.1495ZM34.4395 30.5331C33.5934 30.8434 32.7022 31 31.7597 31V33C32.9293 33 34.0541 32.8046 35.128 32.4109L34.4395 30.5331ZM31.7597 31H8.71974V33H31.7597V31ZM8.71974 31C7.77729 31 6.86641 30.8433 5.98214 30.5296L5.31332 32.4144C6.41305 32.8047 7.55017 33 8.71974 33V31ZM6.01912 30.5435C5.16644 30.2024 4.42197 29.7375 3.778 29.1495L2.42947 30.6265C3.2575 31.3825 4.20903 31.9736 5.27634 32.4005L6.01912 30.5435ZM3.778 29.1495C3.13929 28.5663 2.62281 27.8705 2.22829 27.0532L0.427183 27.9227C0.928656 28.9615 1.59618 29.8657 2.42947 30.6265L3.778 29.1495ZM2.23392 27.0651C1.85463 26.2524 1.65573 25.3272 1.65573 24.272H-0.344265C-0.344265 25.5848 -0.0951611 26.8036 0.421551 27.9109L2.23392 27.0651ZM1.65573 24.272V8.24H-0.344265V24.272H1.65573ZM28.4116 9.39661L20.5396 22.2126L22.2438 23.2594L30.1158 10.4434L28.4116 9.39661ZM21.3917 23.736H28.8317V21.736H21.3917V23.736ZM28.9961 23.7224C29.5576 23.6288 30.0663 23.3937 30.5124 23.0369L29.263 21.4751C29.0691 21.6303 28.8739 21.7152 28.6673 21.7496L28.9961 23.7224ZM30.521 23.03C30.9707 22.662 31.4157 22.1186 31.4157 21.392H29.4157C29.4157 21.3224 29.4392 21.2882 29.4305 21.3026C29.4175 21.3237 29.3717 21.3861 29.2545 21.482L30.521 23.03ZM31.4157 21.392V11.024H29.4157V21.392H31.4157ZM31.3702 10.7257C31.0981 9.85485 30.4411 9.28805 29.6094 8.98166L28.918 10.8583C29.3024 10.9999 29.4134 11.1691 29.4613 11.3223L31.3702 10.7257ZM11.4833 8.7896C10.9219 8.88318 10.4131 9.11827 9.96704 9.47513L11.2164 11.0369C11.4103 10.8817 11.6056 10.7968 11.8121 10.7624L11.4833 8.7896ZM9.92737 9.50859C9.55476 9.8398 9.2241 10.2594 9.09359 10.7815L11.0339 11.2665C11.0314 11.2766 11.0527 11.1842 11.2561 11.0034L9.92737 9.50859ZM9.06374 11.024V21.392H11.0637V11.024H9.06374ZM9.06374 21.392C9.06374 22.3521 9.74693 22.984 10.4421 23.3702L11.4134 21.6218C11.1978 21.5021 11.1024 21.4087 11.0672 21.3637C11.043 21.3327 11.0637 21.3492 11.0637 21.392H9.06374ZM11.7824 23.0152L19.5104 10.2952L17.8011 9.25677L10.0731 21.9768L11.7824 23.0152ZM18.6557 8.776H11.6477V10.776H18.6557V8.776ZM70.3851 9.776L70.602 8.79981L70.4949 8.776H70.3851V9.776ZM70.9131 10.112L69.9846 10.4834L70.0338 10.6062L70.1131 10.712L70.9131 10.112ZM71.1051 10.688H72.1051V10.6257L72.0974 10.564L71.1051 10.688ZM70.3371 11.648V12.648H70.4602L70.5796 12.6181L70.3371 11.648ZM48.6411 11.648V10.648H47.6411V11.648H48.6411ZM48.6411 20.864H47.6411V21.864H48.6411V20.864ZM70.3851 20.864L70.7013 19.9153L70.5474 19.864H70.3851V20.864ZM70.9131 22.352L70.0811 21.7973L70.0465 21.8491L70.0187 21.9048L70.9131 22.352ZM70.3371 22.736V23.736H70.4469L70.554 23.7122L70.3371 22.736ZM43.2651 22.736V21.736H42.2651V22.736H43.2651ZM43.2651 32H42.2651V33H43.2651V32ZM75.5691 31.472L75.9134 32.4109L75.9218 32.4078L75.9301 32.4046L75.5691 31.472ZM79.9371 27.488L80.8377 27.9228L80.8433 27.9109L79.9371 27.488ZM80.4651 19.328L81.4353 19.0855V19.0855L80.4651 19.328ZM79.4091 17.12L78.6004 17.7082L78.631 17.7503L78.6658 17.789L79.4091 17.12ZM78.5451 16.256L77.9904 15.424L76.7725 16.2359L77.9716 17.0752L78.5451 16.256ZM79.3611 15.488L80.142 16.1127L80.1563 16.0948L80.1698 16.0762L79.3611 15.488ZM79.9851 14.384L79.0907 13.9368L79.0753 13.9676L79.062 13.9994L79.9851 14.384ZM80.4171 13.232L79.4613 12.9379L79.4535 12.9635L79.447 12.9895L80.4171 13.232ZM79.9371 5.072L79.0308 5.49492L79.0366 5.50675L79.9371 5.072ZM78.1611 2.624L78.8354 1.88551V1.88551L78.1611 2.624ZM75.5691 1.088L75.1977 2.01647L75.2161 2.02382L75.2347 2.03043L75.5691 1.088ZM43.2651 0.511999V-0.488001H42.2651V0.511999H43.2651ZM43.2651 9.776H42.2651V10.776H43.2651V9.776ZM70.1682 10.7522C70.2419 10.7686 70.2378 10.7781 70.1962 10.7517C70.1454 10.7193 70.0457 10.636 69.9846 10.4834L71.8416 9.7406C71.588 9.10672 70.9841 8.8847 70.602 8.79981L70.1682 10.7522ZM70.1131 10.712C70.0821 10.6707 70.0778 10.6485 70.0844 10.6682C70.0908 10.6875 70.1029 10.7325 70.1128 10.812L72.0974 10.564C72.0557 10.2303 71.9589 9.83977 71.7131 9.512L70.1131 10.712ZM70.1051 10.688C70.1051 10.7334 70.0994 10.7483 70.1013 10.7419C70.1024 10.7386 70.1051 10.7309 70.1105 10.7204C70.1161 10.7098 70.1233 10.6984 70.1322 10.6873C70.1411 10.6762 70.15 10.6674 70.1575 10.6611C70.1648 10.6548 70.1694 10.6521 70.1692 10.6522C70.1685 10.6527 70.1475 10.6646 70.0946 10.6779L70.5796 12.6181C70.9865 12.5164 71.3942 12.3114 71.694 11.9367C71.9962 11.5589 72.1051 11.1131 72.1051 10.688H70.1051ZM70.3371 10.648H48.6411V12.648H70.3371V10.648ZM47.6411 11.648V20.864H49.6411V11.648H47.6411ZM48.6411 21.864H70.3851V19.864H48.6411V21.864ZM70.0689 21.8127C70.1234 21.8309 70.1501 21.8462 70.1584 21.8516C70.1655 21.8561 70.1554 21.8508 70.1402 21.8316C70.133 21.8225 70.1261 21.812 70.1201 21.8006C70.1141 21.7893 70.11 21.7791 70.1075 21.771C70.1022 21.7545 70.1051 21.7535 70.1051 21.776H72.1051C72.1051 21.364 71.9906 20.9478 71.71 20.5924C71.4373 20.2469 71.0705 20.0384 70.7013 19.9153L70.0689 21.8127ZM70.1051 21.776C70.1051 21.7682 70.1058 21.7612 70.1067 21.7556C70.1076 21.7501 70.1086 21.7474 70.1084 21.7478C70.1081 21.7486 70.1025 21.7651 70.0811 21.7973L71.7452 22.9067C71.9603 22.5841 72.1051 22.2023 72.1051 21.776H70.1051ZM70.0187 21.9048C70.035 21.8722 70.0559 21.8416 70.0798 21.815C70.1035 21.7887 70.126 21.7709 70.1424 21.7599C70.1733 21.7393 70.1757 21.7475 70.1202 21.7598L70.554 23.7122C71.0196 23.6087 71.5313 23.3516 71.8075 22.7992L70.0187 21.9048ZM70.3371 21.736H43.2651V23.736H70.3371V21.736ZM42.2651 22.736V32H44.2651V22.736H42.2651ZM43.2651 33H72.5451V31H43.2651V33ZM72.5451 33C73.7147 33 74.8395 32.8046 75.9134 32.4109L75.2249 30.5331C74.3787 30.8434 73.4876 31 72.5451 31V33ZM75.9301 32.4046C77.0298 31.9789 78.0019 31.3875 78.8354 30.6265L77.4868 29.1495C76.8484 29.7325 76.0924 30.1971 75.2081 30.5394L75.9301 32.4046ZM78.8354 30.6265C79.6687 29.8657 80.3362 28.9615 80.8377 27.9227L79.0366 27.0532C78.642 27.8705 78.1255 28.5663 77.4868 29.1495L78.8354 30.6265ZM80.8433 27.9109C81.36 26.8036 81.6091 25.5848 81.6091 24.272H79.6091C79.6091 25.3272 79.4102 26.2524 79.0309 27.0651L80.8433 27.9109ZM81.6091 24.272V20.336H79.6091V24.272H81.6091ZM81.6091 20.336C81.6091 19.9422 81.5443 19.5215 81.4353 19.0855L79.495 19.5705C79.578 19.9025 79.6091 20.1538 79.6091 20.336H81.6091ZM81.4353 19.0855C81.3265 18.6506 81.1824 18.2192 81.0042 17.7914L79.158 18.5606C79.2998 18.9008 79.4117 19.2374 79.495 19.5705L81.4353 19.0855ZM81.0042 17.7914C80.7992 17.2995 80.5133 16.852 80.1524 16.451L78.6658 17.789C78.8809 18.028 79.043 18.2845 79.158 18.5606L81.0042 17.7914ZM80.2178 16.5318C79.9041 16.1005 79.539 15.7311 79.1186 15.4368L77.9716 17.0752C78.1912 17.2289 78.4021 17.4355 78.6004 17.7082L80.2178 16.5318ZM79.0998 17.088C79.4875 16.8296 79.8332 16.4987 80.142 16.1127L78.5802 14.8633C78.377 15.1173 78.1787 15.2984 77.9904 15.424L79.0998 17.088ZM80.1698 16.0762C80.4697 15.6639 80.7168 15.228 80.9082 14.7686L79.062 13.9994C78.9334 14.308 78.7646 14.6081 78.5524 14.8998L80.1698 16.0762ZM80.8795 14.8312C81.1014 14.3874 81.2721 13.935 81.3873 13.4745L79.447 12.9895C79.3701 13.297 79.2528 13.6126 79.0907 13.9368L80.8795 14.8312ZM81.3729 13.5261C81.5168 13.0583 81.6091 12.6007 81.6091 12.176H79.6091C79.6091 12.3273 79.5734 12.5737 79.4613 12.9379L81.3729 13.5261ZM81.6091 12.176V8.24H79.6091V12.176H81.6091ZM81.6091 8.24C81.6091 6.92788 81.3602 5.71969 80.8377 4.63725L79.0366 5.50675C79.41 6.28031 79.6091 7.18411 79.6091 8.24H81.6091ZM80.8433 4.64911C80.3431 3.57728 79.6748 2.6519 78.8354 1.88551L77.4868 3.36248C78.1195 3.9401 78.6351 4.64672 79.0309 5.49488L80.8433 4.64911ZM78.8354 1.88551C77.9954 1.11854 77.0141 0.539649 75.9035 0.14557L75.2347 2.03043C76.1081 2.34035 76.8549 2.78545 77.4868 3.36248L78.8354 1.88551ZM75.9405 0.15952C74.8598 -0.272745 73.7256 -0.488001 72.5451 -0.488001V1.512C73.4767 1.512 74.3584 1.68074 75.1977 2.01647L75.9405 0.15952ZM72.5451 -0.488001H43.2651V1.512H72.5451V-0.488001ZM42.2651 0.511999V9.776H44.2651V0.511999H42.2651ZM43.2651 10.776H70.3851V8.776H43.2651V10.776Z" fill="url(#paint0_linear_1019_624)"/>
<defs>
<linearGradient id="paint0_linear_1019_624" x1="40.623" y1="-11" x2="40.623" y2="49.6333" gradientUnits="userSpaceOnUse">
<stop stop-color="#A8BBFF"/>
<stop offset="1" stop-color="#0012B7" stop-opacity="0.88"/>
</linearGradient>
</defs>
</svg>
