<svg width="395" height="32" viewBox="0 0 395 32" fill="none" xmlns="http://www.w3.org/2000/svg">
<path d="M32.648 11.648H33.648V10.648H32.648V11.648ZM10.136 11.648H9.136V12.648H10.136V11.648ZM10.136 9.776V8.776H9.136V9.776H10.136ZM38.024 9.776V10.776H39.024V9.776H38.024ZM38.024 0.511999H39.024V-0.488001H38.024V0.511999ZM0.728 0.511999V-0.488001H-0.272V0.511999H0.728ZM0.728 32H-0.272V33H0.728V32ZM10.136 32V33H11.136V32H10.136ZM10.136 20.912V19.912H9.136V20.912H10.136ZM32.648 20.912V21.912H33.648V20.912H32.648ZM32.648 10.648H10.136V12.648H32.648V10.648ZM11.136 11.648V9.776H9.136V11.648H11.136ZM10.136 10.776H38.024V8.776H10.136V10.776ZM39.024 9.776V0.511999H37.024V9.776H39.024ZM38.024 -0.488001H0.728V1.512H38.024V-0.488001ZM-0.272 0.511999V32H1.728V0.511999H-0.272ZM0.728 33H10.136V31H0.728V33ZM11.136 32V20.912H9.136V32H11.136ZM10.136 21.912H32.648V19.912H10.136V21.912ZM33.648 20.912V11.648H31.648V20.912H33.648ZM83.3824 11.696H84.3824V10.696H83.3824V11.696ZM60.8704 11.696H59.8704V12.696H60.8704V11.696ZM60.8704 9.776V8.776H59.8704V9.776H60.8704ZM88.7584 9.776V10.776H89.7584V9.776H88.7584ZM88.7584 0.511999H89.7584V-0.488001H88.7584V0.511999ZM51.4624 0.511999V-0.488001H50.4624V0.511999H51.4624ZM51.4624 32H50.4624V33H51.4624V32ZM88.7584 32V33H89.7584V32H88.7584ZM88.7584 22.736H89.7584V21.736H88.7584V22.736ZM60.8704 22.736H59.8704V23.736H60.8704V22.736ZM60.8704 20.816V19.816H59.8704V20.816H60.8704ZM83.3824 20.816V21.816H84.3824V20.816H83.3824ZM83.3824 10.696H60.8704V12.696H83.3824V10.696ZM61.8704 11.696V9.776H59.8704V11.696H61.8704ZM60.8704 10.776H88.7584V8.776H60.8704V10.776ZM89.7584 9.776V0.511999H87.7584V9.776H89.7584ZM88.7584 -0.488001H51.4624V1.512H88.7584V-0.488001ZM50.4624 0.511999V32H52.4624V0.511999H50.4624ZM51.4624 33H88.7584V31H51.4624V33ZM89.7584 32V22.736H87.7584V32H89.7584ZM88.7584 21.736H60.8704V23.736H88.7584V21.736ZM61.8704 22.736V20.816H59.8704V22.736H61.8704ZM60.8704 21.816H83.3824V19.816H60.8704V21.816ZM84.3824 20.816V11.696H82.3824V20.816H84.3824ZM136.661 32L135.806 32.519L136.098 33H136.661V32ZM147.893 32V33H149.656L148.751 31.4865L147.893 32ZM130.229 2.48L131.087 1.96653L131.023 1.86037L130.936 1.77289L130.229 2.48ZM127.445 0.847998L127.665 -0.127443L127.445 0.847998ZM122.165 0.847998L121.944 -0.127443L122.165 0.847998ZM119.381 2.48L118.674 1.77289L118.586 1.86037L118.523 1.96653L119.381 2.48ZM101.717 32L100.859 31.4865L99.953 33H101.717V32ZM112.949 32V33H113.517L113.808 32.5115L112.949 32ZM115.349 27.968V26.968H114.78L114.489 27.4565L115.349 27.968ZM134.213 27.968L135.068 27.449L134.775 26.968H134.213V27.968ZM124.805 12.032L125.666 11.5237L124.81 10.0733L123.946 11.5193L124.805 12.032ZM128.885 18.944V19.944H130.636L129.746 18.4357L128.885 18.944ZM120.677 18.944L119.818 18.4313L118.915 19.944H120.677V18.944ZM136.661 33H147.893V31H136.661V33ZM148.751 31.4865L131.087 1.96653L129.371 2.99347L147.035 32.5135L148.751 31.4865ZM130.936 1.77289C129.965 0.802404 128.876 0.145915 127.665 -0.127443L127.224 1.82344C127.998 1.99808 128.764 2.42959 129.522 3.18711L130.936 1.77289ZM127.665 -0.127443C126.622 -0.362849 125.666 -0.488001 124.805 -0.488001V1.512C125.479 1.512 126.283 1.61085 127.224 1.82344L127.665 -0.127443ZM124.805 -0.488001C123.943 -0.488001 122.987 -0.362849 121.944 -0.127443L122.385 1.82344C123.326 1.61085 124.13 1.512 124.805 1.512V-0.488001ZM121.944 -0.127443C120.734 0.145916 119.644 0.802404 118.674 1.77289L120.088 3.18711C120.845 2.42959 121.612 1.99808 122.385 1.82344L121.944 -0.127443ZM118.523 1.96653L100.859 31.4865L102.575 32.5135L120.239 2.99347L118.523 1.96653ZM101.717 33H112.949V31H101.717V33ZM113.808 32.5115L116.208 28.4795L114.489 27.4565L112.089 31.4885L113.808 32.5115ZM115.349 28.968H134.213V26.968H115.349V28.968ZM133.358 28.487L135.806 32.519L137.516 31.481L135.068 27.449L133.358 28.487ZM123.944 12.5403L128.024 19.4523L129.746 18.4357L125.666 11.5237L123.944 12.5403ZM128.885 17.944H120.677V19.944H128.885V17.944ZM121.535 19.4567L125.663 12.5447L123.946 11.5193L119.818 18.4313L121.535 19.4567ZM165.734 9.776H166.734V8.776H165.734V9.776ZM151.478 9.776H150.478V10.776H151.478V9.776ZM151.478 0.511999V-0.488001H150.478V0.511999H151.478ZM189.35 0.511999H190.35V-0.488001H189.35V0.511999ZM189.35 9.776V10.776H190.35V9.776H189.35ZM175.094 9.776V8.776H174.094V9.776H175.094ZM175.094 32V33H176.094V32H175.094ZM165.734 32H164.734V33H165.734V32ZM165.734 8.776H151.478V10.776H165.734V8.776ZM152.478 9.776V0.511999H150.478V9.776H152.478ZM151.478 1.512H189.35V-0.488001H151.478V1.512ZM188.35 0.511999V9.776H190.35V0.511999H188.35ZM189.35 8.776H175.094V10.776H189.35V8.776ZM174.094 9.776V32H176.094V9.776H174.094ZM175.094 31H165.734V33H175.094V31ZM166.734 32V9.776H164.734V32H166.734ZM212.23 0.511999H213.23V-0.488001H212.23V0.511999ZM212.71 22.256L212.041 22.9993L212.079 23.0341L212.122 23.0647L212.71 22.256ZM213.814 22.736L213.649 23.7224L213.731 23.736H213.814V22.736ZM231.67 22.736V23.736H232.67V22.736H231.67ZM231.67 0.511999V-0.488001H230.67V0.511999H231.67ZM241.078 0.511999H242.078V-0.488001H241.078V0.511999ZM241.078 32V33H242.078V32H241.078ZM207.814 31.472L207.442 32.4005L207.461 32.4078L207.479 32.4144L207.814 31.472ZM203.494 27.488L202.587 27.9109L202.593 27.9227L203.494 27.488ZM202.822 0.511999V-0.488001H201.822V0.511999H202.822ZM211.23 0.511999V21.392H213.23V0.511999H211.23ZM211.23 21.392C211.23 22.0792 211.615 22.6161 212.041 22.9993L213.379 21.5127C213.277 21.4212 213.237 21.3612 213.224 21.3384C213.214 21.3213 213.23 21.3429 213.23 21.392H211.23ZM212.122 23.0647C212.584 23.4011 213.095 23.63 213.649 23.7224L213.978 21.7496C213.765 21.714 213.539 21.6228 213.298 21.4473L212.122 23.0647ZM213.814 23.736H231.67V21.736H213.814V23.736ZM232.67 22.736V0.511999H230.67V22.736H232.67ZM231.67 1.512H241.078V-0.488001H231.67V1.512ZM240.078 0.511999V32H242.078V0.511999H240.078ZM241.078 31H210.886V33H241.078V31ZM210.886 31C209.943 31 209.032 30.8433 208.148 30.5296L207.479 32.4144C208.579 32.8047 209.716 33 210.886 33V31ZM208.185 30.5435C207.332 30.2024 206.588 29.7375 205.944 29.1495L204.595 30.6265C205.424 31.3825 206.375 31.9736 207.442 32.4005L208.185 30.5435ZM205.944 29.1495C205.305 28.5663 204.789 27.8705 204.394 27.0532L202.593 27.9227C203.095 28.9615 203.762 29.8657 204.595 30.6265L205.944 29.1495ZM204.4 27.0651C204.021 26.2524 203.822 25.3272 203.822 24.272H201.822C201.822 25.5848 202.071 26.8036 202.588 27.9109L204.4 27.0651ZM203.822 24.272V0.511999H201.822V24.272H203.822ZM202.822 1.512H212.23V-0.488001H202.822V1.512ZM281.517 32L280.84 32.7361L281.127 33H281.517V32ZM293.517 32V33H296.025L294.205 31.2743L293.517 32ZM284.253 23.216V22.216H281.744L283.564 23.9417L284.253 23.216ZM287.469 22.688L287.794 23.6337L287.802 23.6308L287.81 23.6278L287.469 22.688ZM290.204 21.104L289.561 20.3383L289.554 20.3448L289.546 20.3514L290.204 21.104ZM292.077 18.704L291.182 18.2567L291.176 18.2693L292.077 18.704ZM292.125 5.072L291.218 5.49492L291.224 5.50675L292.125 5.072ZM290.349 2.624L291.023 1.88551V1.88551L290.349 2.624ZM287.757 1.088L287.385 2.01647L287.403 2.02382L287.422 2.03043L287.757 1.088ZM254.54 0.511999V-0.488001H253.54V0.511999H254.54ZM254.54 32H253.54V33H254.54V32ZM263.901 32V33H264.901V32H263.901ZM263.901 23.216V22.216H262.901V23.216H263.901ZM271.965 23.216L272.641 22.4799L272.354 22.216H271.965V23.216ZM281.805 9.776L281.969 8.7896L281.887 8.776H281.805V9.776ZM282.812 10.256L282.148 11.0034L282.168 11.0207L282.188 11.0369L282.812 10.256ZM283.388 11.024H284.388V10.9009L284.359 10.7815L283.388 11.024ZM282.861 13.424L283.485 14.2049L283.494 14.198L282.861 13.424ZM281.805 13.904V14.904H281.887L281.969 14.8904L281.805 13.904ZM263.901 13.904H262.901V14.904H263.901V13.904ZM263.901 9.776V8.776H262.901V9.776H263.901ZM281.517 33H293.517V31H281.517V33ZM294.205 31.2743L284.941 22.4903L283.564 23.9417L292.828 32.7257L294.205 31.2743ZM284.253 24.216C285.479 24.216 286.661 24.0229 287.794 23.6337L287.143 21.7423C286.228 22.0571 285.266 22.216 284.253 22.216V24.216ZM287.81 23.6278C288.971 23.2058 289.993 22.6179 290.863 21.8566L289.546 20.3514C288.88 20.9341 288.078 21.4022 287.127 21.7482L287.81 23.6278ZM290.848 21.8697C291.754 21.1081 292.467 20.1958 292.977 19.1387L291.176 18.2693C290.79 19.0682 290.255 19.7559 289.561 20.3383L290.848 21.8697ZM292.971 19.1512C293.527 18.0385 293.797 16.811 293.797 15.488H291.797C291.797 16.533 291.586 17.4495 291.182 18.2568L292.971 19.1512ZM293.797 15.488V8.24H291.797V15.488H293.797ZM293.797 8.24C293.797 6.92788 293.548 5.71969 293.025 4.63725L291.224 5.50675C291.597 6.28031 291.797 7.18411 291.797 8.24H293.797ZM293.031 4.64911C292.53 3.57728 291.862 2.6519 291.023 1.88551L289.674 3.36248C290.307 3.9401 290.823 4.64672 291.218 5.49488L293.031 4.64911ZM291.023 1.88551C290.183 1.11854 289.202 0.539649 288.091 0.14557L287.422 2.03043C288.296 2.34035 289.042 2.78546 289.674 3.36248L291.023 1.88551ZM288.128 0.15952C287.047 -0.272745 285.913 -0.488001 284.733 -0.488001V1.512C285.664 1.512 286.546 1.68074 287.385 2.01647L288.128 0.15952ZM284.733 -0.488001H254.54V1.512H284.733V-0.488001ZM253.54 0.511999V32H255.54V0.511999H253.54ZM254.54 33H263.901V31H254.54V33ZM264.901 32V23.216H262.901V32H264.901ZM263.901 24.216H271.965V22.216H263.901V24.216ZM271.288 23.9521L280.84 32.7361L282.193 31.2639L272.641 22.4799L271.288 23.9521ZM281.64 10.7624C281.84 10.7958 282.002 10.8739 282.148 11.0034L283.477 9.50859C283.047 9.12606 282.537 8.88424 281.969 8.7896L281.64 10.7624ZM282.188 11.0369C282.299 11.1261 282.363 11.1952 282.397 11.24C282.429 11.2835 282.425 11.2922 282.418 11.2665L284.359 10.7815C284.219 10.2243 283.839 9.79688 283.437 9.47513L282.188 11.0369ZM282.388 11.024V12.56H284.388V11.024H282.388ZM282.388 12.56C282.388 12.4904 282.412 12.4562 282.403 12.4705C282.39 12.4917 282.345 12.5541 282.227 12.65L283.494 14.198C283.944 13.83 284.388 13.2866 284.388 12.56H282.388ZM282.236 12.6431C282.042 12.7983 281.847 12.8832 281.64 12.9176L281.969 14.8904C282.53 14.7968 283.039 14.5617 283.485 14.2049L282.236 12.6431ZM281.805 12.904H263.901V14.904H281.805V12.904ZM264.901 13.904V9.776H262.901V13.904H264.901ZM263.901 10.776H281.805V8.776H263.901V10.776ZM338.179 11.696H339.179V10.696H338.179V11.696ZM315.667 11.696H314.667V12.696H315.667V11.696ZM315.667 9.776V8.776H314.667V9.776H315.667ZM343.555 9.776V10.776H344.555V9.776H343.555ZM343.555 0.511999H344.555V-0.488001H343.555V0.511999ZM306.259 0.511999V-0.488001H305.259V0.511999H306.259ZM306.259 32H305.259V33H306.259V32ZM343.555 32V33H344.555V32H343.555ZM343.555 22.736H344.555V21.736H343.555V22.736ZM315.667 22.736H314.667V23.736H315.667V22.736ZM315.667 20.816V19.816H314.667V20.816H315.667ZM338.179 20.816V21.816H339.179V20.816H338.179ZM338.179 10.696H315.667V12.696H338.179V10.696ZM316.667 11.696V9.776H314.667V11.696H316.667ZM315.667 10.776H343.555V8.776H315.667V10.776ZM344.555 9.776V0.511999H342.555V9.776H344.555ZM343.555 -0.488001H306.259V1.512H343.555V-0.488001ZM305.259 0.511999V32H307.259V0.511999H305.259ZM306.259 33H343.555V31H306.259V33ZM344.555 32V22.736H342.555V32H344.555ZM343.555 21.736H315.667V23.736H343.555V21.736ZM316.667 22.736V20.816H314.667V22.736H316.667ZM315.667 21.816H338.179V19.816H315.667V21.816ZM339.179 20.816V11.696H337.179V20.816H339.179ZM367.218 11.696L366.935 12.6554L367.074 12.696H367.218V11.696ZM366.402 10.736L365.408 10.6256L365.402 10.6806V10.736H366.402ZM366.594 10.112L367.394 10.712L367.425 10.6707L367.451 10.6265L366.594 10.112ZM367.218 9.776V8.776H367.119L367.022 8.79542L367.218 9.776ZM394.29 9.776V10.776H395.29V9.776H394.29ZM394.29 0.511999H395.29V-0.488001H394.29V0.511999ZM361.986 1.088L362.33 2.02687L362.338 2.02379L362.347 2.02057L361.986 1.088ZM359.442 2.624L358.767 1.88551V1.88551L359.442 2.624ZM357.666 5.072L358.566 5.50678L358.572 5.49488L357.666 5.072ZM357.666 16.304L356.759 16.7269L356.765 16.7387L357.666 16.304ZM361.986 20.288L361.614 21.2165L361.633 21.2238L361.651 21.2304L361.986 20.288ZM384.066 20.816L384.348 19.8566L384.21 19.816H384.066V20.816ZM384.882 21.728L385.868 21.8924L385.882 21.8108V21.728H384.882ZM384.69 22.352L385.584 22.7992L385.597 22.7729L385.609 22.7459L384.69 22.352ZM384.066 22.736V23.736H384.165L384.262 23.7166L384.066 22.736ZM356.994 22.736V21.736H355.994V22.736H356.994ZM356.994 32H355.994V33H356.994V32ZM389.25 31.472L389.594 32.4109L389.602 32.4078L389.611 32.4046L389.25 31.472ZM393.618 27.488L394.518 27.9228L394.524 27.9109L393.618 27.488ZM393.618 16.256L392.711 16.6789L392.717 16.6907L393.618 16.256ZM389.25 12.272L388.878 13.2005L388.897 13.2078L388.915 13.2144L389.25 12.272ZM367.5 10.7366C367.351 10.6928 367.34 10.6563 367.368 10.6884C367.382 10.7049 367.393 10.7256 367.399 10.7441C367.405 10.7608 367.402 10.7612 367.402 10.736H365.402C365.402 11.1773 365.532 11.6172 365.844 11.9836C366.143 12.3357 366.54 12.5392 366.935 12.6554L367.5 10.7366ZM367.396 10.8464C367.407 10.7456 367.421 10.6863 367.429 10.6581C367.433 10.645 367.435 10.6444 367.43 10.6529C367.426 10.6614 367.415 10.6831 367.394 10.712L365.794 9.512C365.535 9.85723 365.446 10.2833 365.408 10.6256L367.396 10.8464ZM367.451 10.6265C367.385 10.7367 367.309 10.7816 367.296 10.7885C367.289 10.792 367.294 10.7886 367.315 10.7817C367.335 10.7748 367.368 10.7658 367.414 10.7566L367.022 8.79542C366.62 8.87581 366.055 9.06662 365.736 9.5975L367.451 10.6265ZM367.218 10.776H394.29V8.776H367.218V10.776ZM395.29 9.776V0.511999H393.29V9.776H395.29ZM394.29 -0.488001H365.058V1.512H394.29V-0.488001ZM365.058 -0.488001C363.877 -0.488001 362.731 -0.272804 361.625 0.155429L362.347 2.02057C363.224 1.6808 364.126 1.512 365.058 1.512V-0.488001ZM361.641 0.149121C360.563 0.544662 359.602 1.12362 358.767 1.88551L360.116 3.36248C360.753 2.78038 361.489 2.33534 362.33 2.02687L361.641 0.149121ZM358.767 1.88551C357.928 2.6519 357.26 3.57728 356.759 4.64911L358.572 5.49488C358.968 4.64672 359.483 3.9401 360.116 3.36248L358.767 1.88551ZM356.765 4.63725C356.243 5.71969 355.994 6.92788 355.994 8.24H357.994C357.994 7.18411 358.193 6.28031 358.566 5.50675L356.765 4.63725ZM355.994 8.24V13.088H357.994V8.24H355.994ZM355.994 13.088C355.994 14.4008 356.243 15.6196 356.759 16.7269L358.572 15.8811C358.193 15.0684 357.994 14.1432 357.994 13.088H355.994ZM356.765 16.7387C357.267 17.7775 357.934 18.6817 358.767 19.4425L360.116 17.9655C359.477 17.3823 358.961 16.6865 358.566 15.8692L356.765 16.7387ZM358.767 19.4425C359.595 20.1985 360.547 20.7896 361.614 21.2165L362.357 19.3595C361.504 19.0184 360.76 18.5535 360.116 17.9655L358.767 19.4425ZM361.651 21.2304C362.751 21.6207 363.888 21.816 365.058 21.816V19.816C364.115 19.816 363.204 19.6593 362.32 19.3456L361.651 21.2304ZM365.058 21.816H384.066V19.816H365.058V21.816ZM383.783 21.7754C383.86 21.798 383.905 21.8193 383.928 21.8323C383.95 21.8447 383.946 21.8465 383.932 21.8308C383.917 21.8134 383.901 21.788 383.89 21.7591C383.88 21.7318 383.882 21.7181 383.882 21.728H385.882C385.882 21.2841 385.74 20.8511 385.423 20.4972C385.123 20.1624 384.732 19.9695 384.348 19.8566L383.783 21.7754ZM383.895 21.5636C383.879 21.6598 383.842 21.7901 383.77 21.9581L385.609 22.7459C385.729 22.4659 385.82 22.1802 385.868 21.8924L383.895 21.5636ZM383.795 21.9048C383.817 21.8619 383.843 21.8249 383.872 21.7952C383.899 21.7662 383.924 21.7489 383.938 21.7403C383.962 21.7253 383.95 21.7393 383.87 21.7554L384.262 23.7166C384.723 23.6243 385.29 23.3868 385.584 22.7992L383.795 21.9048ZM384.066 21.736H356.994V23.736H384.066V21.736ZM355.994 22.736V32H357.994V22.736H355.994ZM356.994 33H386.226V31H356.994V33ZM386.226 33C387.395 33 388.52 32.8046 389.594 32.4109L388.905 30.5331C388.059 30.8434 387.168 31 386.226 31V33ZM389.611 32.4046C390.71 31.9789 391.682 31.3875 392.516 30.6265L391.167 29.1495C390.529 29.7325 389.773 30.1971 388.889 30.5394L389.611 32.4046ZM392.516 30.6265C393.349 29.8657 394.017 28.9615 394.518 27.9227L392.717 27.0532C392.323 27.8705 391.806 28.5663 391.167 29.1495L392.516 30.6265ZM394.524 27.9109C395.041 26.8036 395.29 25.5848 395.29 24.272H393.29C393.29 25.3272 393.091 26.2524 392.711 27.0651L394.524 27.9109ZM395.29 24.272V19.424H393.29V24.272H395.29ZM395.29 19.424C395.29 18.1119 395.041 16.9037 394.518 15.8213L392.717 16.6907C393.091 17.4643 393.29 18.3681 393.29 19.424H395.29ZM394.524 15.8331C394.024 14.7613 393.355 13.8359 392.516 13.0695L391.167 14.5465C391.8 15.1241 392.316 15.8307 392.711 16.6789L394.524 15.8331ZM392.516 13.0695C391.676 12.3025 390.695 11.7236 389.584 11.3296L388.915 13.2144C389.789 13.5243 390.535 13.9695 391.167 14.5465L392.516 13.0695ZM389.621 11.3435C388.54 10.9113 387.406 10.696 386.226 10.696V12.696C387.157 12.696 388.039 12.8647 388.878 13.2005L389.621 11.3435ZM386.226 10.696H367.218V12.696H386.226V10.696Z" fill="url(#paint0_linear_1019_598)"/>
<defs>
<linearGradient id="paint0_linear_1019_598" x1="197.5" y1="-11" x2="197" y2="40" gradientUnits="userSpaceOnUse">
<stop offset="0.286458" stop-color="white"/>
<stop offset="1" stop-color="white" stop-opacity="0"/>
</linearGradient>
</defs>
</svg>
