<svg width="375" height="32" viewBox="0 0 375 32" fill="none" xmlns="http://www.w3.org/2000/svg">
<path d="M27.0165 32L26.3396 32.7361L26.6266 33H27.0165V32ZM39.0165 32V33H41.5245L39.7046 31.2743L39.0165 32ZM29.7525 23.216V22.216H27.2445L29.0644 23.9417L29.7525 23.216ZM32.9685 22.688L33.2936 23.6337L33.3019 23.6308L33.3102 23.6278L32.9685 22.688ZM35.7045 21.104L35.0613 20.3383L35.0536 20.3448L35.046 20.3514L35.7045 21.104ZM37.5765 18.704L36.682 18.2567L36.6759 18.2693L37.5765 18.704ZM37.6245 5.072L36.7182 5.49492L36.7239 5.50675L37.6245 5.072ZM35.8485 2.624L36.5228 1.88551V1.88551L35.8485 2.624ZM33.2565 1.088L32.8851 2.01647L32.9035 2.02382L32.9221 2.03043L33.2565 1.088ZM0.0405002 0.511999V-0.488001H-0.9595V0.511999H0.0405002ZM0.0405002 32H-0.9595V33H0.0405002V32ZM9.4005 32V33H10.4005V32H9.4005ZM9.4005 23.216V22.216H8.4005V23.216H9.4005ZM17.4645 23.216L18.1414 22.4799L17.8544 22.216H17.4645V23.216ZM27.3045 9.776L27.4689 8.7896L27.3873 8.776H27.3045V9.776ZM28.3125 10.256L27.6481 11.0034L27.6675 11.0207L27.6878 11.0369L28.3125 10.256ZM28.8885 11.024H29.8885V10.9009L29.8586 10.7815L28.8885 11.024ZM28.3605 13.424L28.9852 14.2049L28.9937 14.198L28.3605 13.424ZM27.3045 13.904V14.904H27.3873L27.4689 14.8904L27.3045 13.904ZM9.4005 13.904H8.4005V14.904H9.4005V13.904ZM9.4005 9.776V8.776H8.4005V9.776H9.4005ZM27.0165 33H39.0165V31H27.0165V33ZM39.7046 31.2743L30.4406 22.4903L29.0644 23.9417L38.3284 32.7257L39.7046 31.2743ZM29.7525 24.216C30.9793 24.216 32.1614 24.0229 33.2936 23.6337L32.6434 21.7423C31.7276 22.0571 30.7657 22.216 29.7525 22.216V24.216ZM33.3102 23.6278C34.4707 23.2058 35.4929 22.6179 36.363 21.8566L35.046 20.3514C34.3801 20.9341 33.5783 21.4022 32.6268 21.7482L33.3102 23.6278ZM36.3477 21.8697C37.2544 21.1081 37.9667 20.1958 38.4771 19.1387L36.6759 18.2693C36.2903 19.0682 35.7547 19.7559 35.0613 20.3383L36.3477 21.8697ZM38.4709 19.1512C39.0273 18.0385 39.2965 16.811 39.2965 15.488H37.2965C37.2965 16.533 37.0857 17.4495 36.6821 18.2568L38.4709 19.1512ZM39.2965 15.488V8.24H37.2965V15.488H39.2965ZM39.2965 8.24C39.2965 6.92788 39.0476 5.71969 38.5251 4.63725L36.7239 5.50675C37.0974 6.28031 37.2965 7.18411 37.2965 8.24H39.2965ZM38.5307 4.64911C38.0305 3.57728 37.3621 2.6519 36.5228 1.88551L35.1742 3.36248C35.8069 3.9401 36.3225 4.64672 36.7183 5.49488L38.5307 4.64911ZM36.5228 1.88551C35.6828 1.11854 34.7015 0.539649 33.5909 0.14557L32.9221 2.03043C33.7955 2.34035 34.5423 2.78546 35.1742 3.36248L36.5228 1.88551ZM33.6279 0.15952C32.5472 -0.272745 31.4129 -0.488001 30.2325 -0.488001V1.512C31.1641 1.512 32.0458 1.68074 32.8851 2.01647L33.6279 0.15952ZM30.2325 -0.488001H0.0405002V1.512H30.2325V-0.488001ZM-0.9595 0.511999V32H1.0405V0.511999H-0.9595ZM0.0405002 33H9.4005V31H0.0405002V33ZM10.4005 32V23.216H8.4005V32H10.4005ZM9.4005 24.216H17.4645V22.216H9.4005V24.216ZM16.7876 23.9521L26.3396 32.7361L27.6934 31.2639L18.1414 22.4799L16.7876 23.9521ZM27.1401 10.7624C27.3403 10.7958 27.5025 10.8739 27.6481 11.0034L28.9769 9.50859C28.5465 9.12606 28.0367 8.88424 27.4689 8.7896L27.1401 10.7624ZM27.6878 11.0369C27.7994 11.1261 27.8629 11.1952 27.8965 11.24C27.9291 11.2835 27.9248 11.2922 27.9184 11.2665L29.8586 10.7815C29.7193 10.2243 29.3394 9.79688 28.9372 9.47513L27.6878 11.0369ZM27.8885 11.024V12.56H29.8885V11.024H27.8885ZM27.8885 12.56C27.8885 12.4904 27.912 12.4562 27.9032 12.4705C27.8903 12.4917 27.8445 12.5541 27.7273 12.65L28.9937 14.198C29.4435 13.83 29.8885 13.2866 29.8885 12.56H27.8885ZM27.7358 12.6431C27.5419 12.7983 27.3467 12.8832 27.1401 12.9176L27.4689 14.8904C28.0303 14.7968 28.5391 14.5617 28.9852 14.2049L27.7358 12.6431ZM27.3045 12.904H9.4005V14.904H27.3045V12.904ZM10.4005 13.904V9.776H8.4005V13.904H10.4005ZM9.4005 10.776H27.3045V8.776H9.4005V10.776ZM52.4313 27.488L51.525 27.9109L51.5307 27.9227L52.4313 27.488ZM56.7513 31.472L56.3799 32.4005L56.3982 32.4078L56.4168 32.4144L56.7513 31.472ZM85.8873 31.472L86.2315 32.4109L86.2399 32.4078L86.2482 32.4046L85.8873 31.472ZM90.2552 27.488L91.1559 27.9228L91.1614 27.9109L90.2552 27.488ZM90.2552 5.072L89.349 5.49492L89.3547 5.50675L90.2552 5.072ZM88.4793 2.624L89.1535 1.88551L89.1535 1.88551L88.4793 2.624ZM85.8873 1.088L85.5159 2.01647L85.5342 2.02382L85.5528 2.03043L85.8873 1.088ZM56.7513 1.088L57.0955 2.02687L57.1039 2.02379L57.1122 2.02057L56.7513 1.088ZM54.2072 2.624L53.533 1.88551V1.88551L54.2072 2.624ZM52.4313 5.072L53.3319 5.50678L53.3374 5.49488L52.4313 5.072ZM62.7513 9.776V8.776H62.6685L62.5869 8.7896L62.7513 9.776ZM79.9352 9.776L80.0996 8.7896L80.018 8.776H79.9352V9.776ZM80.9433 10.256L80.2789 11.0034L80.2983 11.0207L80.3186 11.0369L80.9433 10.256ZM81.5192 11.024H82.5192V10.9009L82.4894 10.7815L81.5192 11.024ZM80.9912 22.256L81.616 23.0369L81.6245 23.03L80.9912 22.256ZM79.9352 22.736V23.736H80.018L80.0996 23.7224L79.9352 22.736ZM62.7513 22.736L62.5869 23.7224L62.6685 23.736H62.7513V22.736ZM61.6473 22.256L60.9783 22.9993L61.017 23.0341L61.0591 23.0647L61.6473 22.256ZM61.1673 11.024L60.1971 10.7815L60.1673 10.9009V11.024H61.1673ZM61.6953 10.256L61.0706 9.47513L61.0503 9.49135L61.0309 9.50859L61.6953 10.256ZM50.7593 8.24V24.272H52.7593V8.24H50.7593ZM50.7593 24.272C50.7593 25.5848 51.0084 26.8036 51.5251 27.9109L53.3374 27.0651C52.9581 26.2524 52.7593 25.3272 52.7593 24.272H50.7593ZM51.5307 27.9227C52.0322 28.9615 52.6997 29.8657 53.533 30.6265L54.8815 29.1495C54.2428 28.5663 53.7263 27.8705 53.3318 27.0532L51.5307 27.9227ZM53.533 30.6265C54.361 31.3825 55.3125 31.9736 56.3799 32.4005L57.1226 30.5435C56.27 30.2024 55.5255 29.7375 54.8815 29.1495L53.533 30.6265ZM56.4168 32.4144C57.5166 32.8047 58.6537 33 59.8232 33V31C58.8808 31 57.9699 30.8433 57.0857 30.5296L56.4168 32.4144ZM59.8232 33H82.8633V31H59.8232V33ZM82.8633 33C84.0328 33 85.1576 32.8046 86.2315 32.4109L85.543 30.5331C84.6969 30.8434 83.8057 31 82.8633 31V33ZM86.2482 32.4046C87.3479 31.9789 88.32 31.3875 89.1535 30.6265L87.805 29.1495C87.1665 29.7325 86.4106 30.1971 85.5263 30.5394L86.2482 32.4046ZM89.1535 30.6265C89.9868 29.8657 90.6543 28.9615 91.1558 27.9227L89.3547 27.0532C88.9602 27.8705 88.4437 28.5663 87.805 29.1495L89.1535 30.6265ZM91.1614 27.9109C91.6781 26.8036 91.9273 25.5848 91.9273 24.272H89.9273C89.9273 25.3272 89.7284 26.2524 89.3491 27.0651L91.1614 27.9109ZM91.9273 24.272V8.24H89.9273V24.272H91.9273ZM91.9273 8.24C91.9273 6.92788 91.6784 5.71969 91.1558 4.63725L89.3547 5.50675C89.7281 6.28031 89.9273 7.18411 89.9273 8.24H91.9273ZM91.1614 4.64911C90.6612 3.57728 89.9929 2.6519 89.1535 1.88551L87.805 3.36248C88.4376 3.9401 88.9533 4.64672 89.3491 5.49488L91.1614 4.64911ZM89.1535 1.88551C88.3135 1.11854 87.3322 0.539649 86.2217 0.14557L85.5528 2.03043C86.4263 2.34035 87.173 2.78546 87.805 3.36248L89.1535 1.88551ZM86.2586 0.15952C85.178 -0.272745 84.0437 -0.488001 82.8633 -0.488001V1.512C83.7948 1.512 84.6765 1.68074 85.5159 2.01647L86.2586 0.15952ZM82.8633 -0.488001H59.8232V1.512H82.8633V-0.488001ZM59.8232 -0.488001C58.6429 -0.488001 57.4965 -0.272804 56.3903 0.155429L57.1122 2.02057C57.99 1.6808 58.8916 1.512 59.8232 1.512V-0.488001ZM56.407 0.149121C55.3283 0.544662 54.3674 1.12362 53.533 1.88551L54.8815 3.36248C55.5191 2.78038 56.2542 2.33534 57.0955 2.02687L56.407 0.149121ZM53.533 1.88551C52.6936 2.6519 52.0253 3.57728 51.5251 4.64911L53.3374 5.49488C53.7332 4.64672 54.2489 3.9401 54.8815 3.36248L53.533 1.88551ZM51.5307 4.63725C51.0081 5.71969 50.7593 6.92788 50.7593 8.24H52.7593C52.7593 7.18411 52.9584 6.28031 53.3318 5.50675L51.5307 4.63725ZM62.7513 10.776H79.9352V8.776H62.7513V10.776ZM79.7709 10.7624C79.971 10.7958 80.1332 10.8739 80.2789 11.0034L81.6076 9.50859C81.1773 9.12606 80.6675 8.88424 80.0996 8.7896L79.7709 10.7624ZM80.3186 11.0369C80.4301 11.1261 80.4937 11.1952 80.5273 11.24C80.5599 11.2835 80.5555 11.2922 80.5491 11.2665L82.4894 10.7815C82.3501 10.2243 81.9701 9.79688 81.5679 9.47513L80.3186 11.0369ZM80.5192 11.024V21.392H82.5192V11.024H80.5192ZM80.5192 21.392C80.5192 21.3224 80.5427 21.2882 80.534 21.3026C80.521 21.3237 80.4753 21.3861 80.358 21.482L81.6245 23.03C82.0743 22.662 82.5192 22.1186 82.5192 21.392H80.5192ZM80.3666 21.4751C80.1726 21.6303 79.9774 21.7152 79.7709 21.7496L80.0996 23.7224C80.6611 23.6288 81.1699 23.3937 81.6159 23.0369L80.3666 21.4751ZM79.9352 21.736H62.7513V23.736H79.9352V21.736ZM62.9156 21.7496C62.7021 21.714 62.4769 21.6228 62.2354 21.4473L61.0591 23.0647C61.5217 23.4011 62.0324 23.63 62.5869 23.7224L62.9156 21.7496ZM62.3162 21.5127C62.2146 21.4212 62.1741 21.3612 62.1614 21.3384C62.1519 21.3213 62.1673 21.3429 62.1673 21.392H60.1673C60.1673 22.0792 60.5525 22.6161 60.9783 22.9993L62.3162 21.5127ZM62.1673 21.392V11.024H60.1673V21.392H62.1673ZM62.1374 11.2665C62.1349 11.2766 62.1562 11.1842 62.3596 11.0034L61.0309 9.50859C60.6583 9.8398 60.3276 10.2594 60.1971 10.7815L62.1374 11.2665ZM62.3199 11.0369C62.5139 10.8817 62.7091 10.7968 62.9156 10.7624L62.5869 8.7896C62.0254 8.88318 61.5166 9.11827 61.0706 9.47513L62.3199 11.0369ZM137.38 32L136.525 32.519L136.817 33H137.38V32ZM148.611 32V33H150.375L149.47 31.4865L148.611 32ZM130.947 2.48L131.806 1.96653L131.742 1.86037L131.655 1.77289L130.947 2.48ZM128.163 0.847998L128.384 -0.127443L128.163 0.847998ZM122.883 0.847998L122.663 -0.127443L122.883 0.847998ZM120.1 2.48L119.392 1.77289L119.305 1.86037L119.241 1.96653L120.1 2.48ZM102.436 32L101.577 31.4865L100.672 33H102.436V32ZM113.668 32V33H114.236L114.527 32.5115L113.668 32ZM116.067 27.968V26.968H115.499L115.208 27.4565L116.067 27.968ZM134.932 27.968L135.786 27.449L135.494 26.968H134.932V27.968ZM125.523 12.032L126.385 11.5237L125.529 10.0733L124.665 11.5193L125.523 12.032ZM129.604 18.944V19.944H131.355L130.465 18.4357L129.604 18.944ZM121.396 18.944L120.537 18.4313L119.634 19.944H121.396V18.944ZM137.38 33H148.611V31H137.38V33ZM149.47 31.4865L131.806 1.96653L130.089 2.99347L147.753 32.5135L149.47 31.4865ZM131.655 1.77289C130.684 0.802404 129.594 0.145915 128.384 -0.127443L127.943 1.82344C128.717 1.99808 129.483 2.42959 130.24 3.18711L131.655 1.77289ZM128.384 -0.127443C127.341 -0.362849 126.385 -0.488001 125.523 -0.488001V1.512C126.198 1.512 127.002 1.61085 127.943 1.82344L128.384 -0.127443ZM125.523 -0.488001C124.662 -0.488001 123.706 -0.362849 122.663 -0.127443L123.104 1.82344C124.045 1.61085 124.849 1.512 125.523 1.512V-0.488001ZM122.663 -0.127443C121.453 0.145916 120.363 0.802404 119.392 1.77289L120.807 3.18711C121.564 2.42959 122.33 1.99808 123.104 1.82344L122.663 -0.127443ZM119.241 1.96653L101.577 31.4865L103.294 32.5135L120.958 2.99347L119.241 1.96653ZM102.436 33H113.668V31H102.436V33ZM114.527 32.5115L116.927 28.4795L115.208 27.4565L112.808 31.4885L114.527 32.5115ZM116.067 28.968H134.932V26.968H116.067V28.968ZM134.077 28.487L136.525 32.519L138.234 31.481L135.786 27.449L134.077 28.487ZM124.662 12.5403L128.742 19.4523L130.465 18.4357L126.385 11.5237L124.662 12.5403ZM129.604 17.944H121.396V19.944H129.604V17.944ZM122.254 19.4567L126.382 12.5447L124.665 11.5193L120.537 18.4313L122.254 19.4567ZM188.836 9.776L189 8.7896L188.919 8.776H188.836V9.776ZM189.844 10.256L189.179 11.0034L189.199 11.0207L189.219 11.0369L189.844 10.256ZM190.42 11.024H191.42V10.9009L191.39 10.7815L190.42 11.024ZM189.892 22.256L190.516 23.0369L190.525 23.03L189.892 22.256ZM188.836 22.736V23.736H188.919L189 23.7224L188.836 22.736ZM170.98 22.736H169.98V23.736H170.98V22.736ZM170.98 9.776V8.776H169.98V9.776H170.98ZM161.572 32H160.572V33H161.572V32ZM194.788 31.472L195.132 32.4109L195.14 32.4078L195.149 32.4046L194.788 31.472ZM199.156 27.488L200.056 27.9228L200.062 27.9109L199.156 27.488ZM199.156 5.072L198.249 5.49492L198.255 5.50675L199.156 5.072ZM197.38 2.624L198.054 1.88551V1.88551L197.38 2.624ZM194.788 1.088L194.416 2.01647L194.435 2.02382L194.453 2.03043L194.788 1.088ZM161.572 0.511999V-0.488001H160.572V0.511999H161.572ZM188.671 10.7624C188.872 10.7958 189.034 10.8739 189.179 11.0034L190.508 9.50859C190.078 9.12606 189.568 8.88424 189 8.7896L188.671 10.7624ZM189.219 11.0369C189.331 11.1261 189.394 11.1952 189.428 11.24C189.46 11.2835 189.456 11.2922 189.45 11.2665L191.39 10.7815C191.251 10.2243 190.871 9.79688 190.468 9.47513L189.219 11.0369ZM189.42 11.024V21.392H191.42V11.024H189.42ZM189.42 21.392C189.42 21.3224 189.443 21.2882 189.434 21.3026C189.422 21.3237 189.376 21.3861 189.259 21.482L190.525 23.03C190.975 22.662 191.42 22.1186 191.42 21.392H189.42ZM189.267 21.4751C189.073 21.6303 188.878 21.7152 188.671 21.7496L189 23.7224C189.562 23.6288 190.07 23.3937 190.516 23.0369L189.267 21.4751ZM188.836 21.736H170.98V23.736H188.836V21.736ZM171.98 22.736V9.776H169.98V22.736H171.98ZM170.98 10.776H188.836V8.776H170.98V10.776ZM161.572 33H191.764V31H161.572V33ZM191.764 33C192.933 33 194.058 32.8046 195.132 32.4109L194.443 30.5331C193.597 30.8434 192.706 31 191.764 31V33ZM195.149 32.4046C196.248 31.9789 197.221 31.3875 198.054 30.6265L196.705 29.1495C196.067 29.7325 195.311 30.1971 194.427 30.5394L195.149 32.4046ZM198.054 30.6265C198.887 29.8657 199.555 28.9615 200.056 27.9227L198.255 27.0532C197.861 27.8705 197.344 28.5663 196.705 29.1495L198.054 30.6265ZM200.062 27.9109C200.579 26.8036 200.828 25.5848 200.828 24.272H198.828C198.828 25.3272 198.629 26.2524 198.25 27.0651L200.062 27.9109ZM200.828 24.272V8.24H198.828V24.272H200.828ZM200.828 8.24C200.828 6.92788 200.579 5.71969 200.056 4.63725L198.255 5.50675C198.629 6.28031 198.828 7.18411 198.828 8.24H200.828ZM200.062 4.64911C199.562 3.57728 198.893 2.6519 198.054 1.88551L196.705 3.36248C197.338 3.9401 197.854 4.64672 198.25 5.49488L200.062 4.64911ZM198.054 1.88551C197.214 1.11854 196.233 0.539649 195.122 0.14557L194.453 2.03043C195.327 2.34035 196.074 2.78546 196.705 3.36248L198.054 1.88551ZM195.159 0.15952C194.078 -0.272745 192.944 -0.488001 191.764 -0.488001V1.512C192.695 1.512 193.577 1.68074 194.416 2.01647L195.159 0.15952ZM191.764 -0.488001H161.572V1.512H191.764V-0.488001ZM160.572 0.511999V32H162.572V0.511999H160.572ZM244.01 30.032L244.656 30.7954L244.748 30.7183L244.818 30.6218L244.01 30.032ZM241.947 31.568L242.414 32.4518L242.434 32.4413L242.454 32.4299L241.947 31.568ZM235.947 31.568L235.439 32.4299L235.459 32.4413L235.479 32.4518L235.947 31.568ZM233.883 30.032L233.075 30.6218L233.145 30.7183L233.237 30.7954L233.883 30.032ZM222.699 14.72L223.506 14.1302L221.699 11.6555V14.72H222.699ZM222.699 32V33H223.699V32H222.699ZM213.29 32H212.29V33H213.29V32ZM213.579 2.96L212.698 2.4859L212.691 2.49924L212.684 2.51278L213.579 2.96ZM214.346 1.808L215.12 2.44124L215.134 2.42489L215.146 2.408L214.346 1.808ZM215.21 0.896L215.824 1.68543L215.835 1.67687L215.21 0.896ZM225.339 2.48L226.144 1.88773L226.061 1.7748L225.95 1.68904L225.339 2.48ZM238.923 20.96L238.117 21.5523L238.921 22.6465L239.727 21.5536L238.923 20.96ZM252.555 2.48L251.943 1.68904L251.832 1.77427L251.75 1.88637L252.555 2.48ZM262.634 0.896L261.97 1.64341L262.013 1.68196L262.061 1.71523L262.634 0.896ZM263.547 1.808L262.746 2.408L262.759 2.42489L262.773 2.44124L263.547 1.808ZM264.267 2.96L263.359 3.37906L263.379 3.42252L263.403 3.46387L264.267 2.96ZM264.603 32V33H265.603V32H264.603ZM255.194 32H254.194V33H255.194V32ZM255.194 14.72H256.194V11.6555L254.387 14.1302L255.194 14.72ZM243.365 29.2686C242.55 29.9582 241.912 30.4283 241.439 30.7061L242.454 32.4299C243.069 32.0677 243.807 31.5138 244.656 30.7954L243.365 29.2686ZM241.479 30.6842C240.969 30.9541 240.717 31 240.65 31V33C241.224 33 241.836 32.7579 242.414 32.4518L241.479 30.6842ZM240.65 31H237.243V33H240.65V31ZM237.243 31C237.176 31 236.924 30.9541 236.414 30.6842L235.479 32.4518C236.057 32.7579 236.669 33 237.243 33V31ZM236.454 30.7061C235.981 30.4283 235.343 29.9582 234.528 29.2686L233.237 30.7954C234.086 31.5138 234.824 32.0677 235.439 32.4299L236.454 30.7061ZM234.69 29.4422L223.506 14.1302L221.891 15.3098L233.075 30.6218L234.69 29.4422ZM221.699 14.72V32H223.699V14.72H221.699ZM222.699 31H213.29V33H222.699V31ZM214.29 32V4.016H212.29V32H214.29ZM214.29 4.016C214.29 3.89496 214.328 3.69761 214.473 3.40721L212.684 2.51278C212.445 2.99039 212.29 3.49704 212.29 4.016H214.29ZM214.459 3.4341C214.654 3.07225 214.875 2.74184 215.12 2.44124L213.573 1.17476C213.242 1.57816 212.951 2.01575 212.698 2.4859L214.459 3.4341ZM215.146 2.408C215.397 2.07413 215.625 1.84074 215.824 1.68535L214.597 0.106647C214.22 0.399259 213.872 0.77387 213.546 1.208L215.146 2.408ZM215.835 1.67687C215.962 1.57571 216.045 1.52465 216.09 1.50243C216.11 1.49207 216.112 1.49321 216.097 1.49752C216.082 1.50182 216.041 1.512 215.979 1.512V-0.488001C215.67 -0.488001 215.4 -0.388589 215.195 -0.286427C214.984 -0.180654 214.779 -0.0397148 214.586 0.115131L215.835 1.67687ZM215.979 1.512H221.93V-0.488001H215.979V1.512ZM221.93 1.512C221.927 1.512 222.15 1.54412 222.714 1.86998C223.227 2.16596 223.895 2.62756 224.727 3.27096L225.95 1.68904C225.086 1.02044 224.338 0.498037 223.715 0.138017C223.143 -0.192126 222.51 -0.488001 221.93 -0.488001V1.512ZM224.533 3.07227L238.117 21.5523L239.728 20.3677L226.144 1.88773L224.533 3.07227ZM239.727 21.5536L253.359 3.07363L251.75 1.88637L238.118 20.3664L239.727 21.5536ZM253.166 3.27096C253.998 2.62756 254.666 2.16596 255.179 1.86998C255.743 1.54412 255.966 1.512 255.962 1.512V-0.488001C255.383 -0.488001 254.75 -0.192126 254.178 0.138017C253.555 0.498037 252.807 1.02044 251.943 1.68904L253.166 3.27096ZM255.962 1.512H261.914V-0.488001H255.962V1.512ZM261.914 1.512C261.851 1.512 261.806 1.50152 261.783 1.4948C261.761 1.48821 261.756 1.48377 261.768 1.49035C261.78 1.49677 261.804 1.51077 261.839 1.53673C261.875 1.5625 261.918 1.59734 261.97 1.64341L263.299 0.148593C262.985 -0.130471 262.502 -0.488001 261.914 -0.488001V1.512ZM262.061 1.71523C262.277 1.86655 262.508 2.08999 262.746 2.408L264.346 1.208C264.009 0.758012 263.632 0.373444 263.208 0.076767L262.061 1.71523ZM262.773 2.44124C263.007 2.72731 263.202 3.03925 263.359 3.37906L265.174 2.54094C264.947 2.04874 264.662 1.59269 264.32 1.17476L262.773 2.44124ZM263.403 3.46387C263.571 3.7517 263.603 3.92888 263.603 4.016H265.603C265.603 3.46312 265.41 2.93629 265.13 2.45613L263.403 3.46387ZM263.603 4.016V32H265.603V4.016H263.603ZM264.603 31H255.194V33H264.603V31ZM256.194 32V14.72H254.194V32H256.194ZM254.387 14.1302L243.203 29.4422L244.818 30.6218L256.002 15.3098L254.387 14.1302ZM312.504 32L311.65 32.519L311.942 33H312.504V32ZM323.737 32V33H325.5L324.595 31.4865L323.737 32ZM306.073 2.48L306.931 1.96653L306.867 1.86037L306.78 1.77289L306.073 2.48ZM303.289 0.847998L303.509 -0.127443L303.289 0.847998ZM298.009 0.847998L297.788 -0.127443L298.009 0.847998ZM295.224 2.48L294.517 1.77289L294.43 1.86037L294.366 1.96653L295.224 2.48ZM277.56 32L276.702 31.4865L275.797 33H277.56V32ZM288.793 32V33H289.361L289.652 32.5115L288.793 32ZM291.193 27.968V26.968H290.624L290.333 27.4565L291.193 27.968ZM310.056 27.968L310.911 27.449L310.619 26.968H310.056V27.968ZM300.648 12.032L301.51 11.5237L300.654 10.0733L299.79 11.5193L300.648 12.032ZM304.729 18.944V19.944H306.48L305.59 18.4357L304.729 18.944ZM296.521 18.944L295.662 18.4313L294.759 19.944H296.521V18.944ZM312.504 33H323.737V31H312.504V33ZM324.595 31.4865L306.931 1.96653L305.214 2.99347L322.878 32.5135L324.595 31.4865ZM306.78 1.77289C305.809 0.802404 304.719 0.145915 303.509 -0.127443L303.068 1.82344C303.842 1.99808 304.608 2.42959 305.365 3.18711L306.78 1.77289ZM303.509 -0.127443C302.466 -0.362849 301.51 -0.488001 300.648 -0.488001V1.512C301.323 1.512 302.127 1.61085 303.068 1.82344L303.509 -0.127443ZM300.648 -0.488001C299.787 -0.488001 298.831 -0.362849 297.788 -0.127443L298.229 1.82344C299.17 1.61085 299.974 1.512 300.648 1.512V-0.488001ZM297.788 -0.127443C296.578 0.145916 295.488 0.802404 294.517 1.77289L295.932 3.18711C296.689 2.42959 297.455 1.99808 298.229 1.82344L297.788 -0.127443ZM294.366 1.96653L276.702 31.4865L278.419 32.5135L296.083 2.99347L294.366 1.96653ZM277.56 33H288.793V31H277.56V33ZM289.652 32.5115L292.052 28.4795L290.333 27.4565L287.933 31.4885L289.652 32.5115ZM291.193 28.968H310.056V26.968H291.193V28.968ZM309.202 28.487L311.65 32.519L313.359 31.481L310.911 27.449L309.202 28.487ZM299.787 12.5403L303.867 19.4523L305.59 18.4357L301.51 11.5237L299.787 12.5403ZM304.729 17.944H296.521V19.944H304.729V17.944ZM297.379 19.4567L301.507 12.5447L299.79 11.5193L295.662 18.4313L297.379 19.4567ZM336.697 32H335.697V33H336.697V32ZM346.105 32V33H347.105V32H346.105ZM346.105 23.216V22.216H345.105V23.216H346.105ZM369.913 22.688L370.257 23.6269L370.265 23.6238L370.274 23.6206L369.913 22.688ZM374.281 18.704L375.181 19.1388L375.187 19.1269L374.281 18.704ZM374.281 5.072L373.374 5.49492L373.38 5.50675L374.281 5.072ZM372.505 2.624L373.179 1.88551V1.88551L372.505 2.624ZM369.913 1.088L369.541 2.01647L369.56 2.02382L369.578 2.03043L369.913 1.088ZM336.697 0.511999V-0.488001H335.697V0.511999H336.697ZM363.961 9.776L364.125 8.7896L364.044 8.776H363.961V9.776ZM364.969 10.256L364.304 11.0034L364.324 11.0207L364.344 11.0369L364.969 10.256ZM365.545 11.024H366.545V10.9009L366.515 10.7815L365.545 11.024ZM365.017 13.424L365.641 14.2049L365.65 14.198L365.017 13.424ZM363.961 13.904V14.904H364.044L364.125 14.8904L363.961 13.904ZM346.105 13.904H345.105V14.904H346.105V13.904ZM346.105 9.776V8.776H345.105V9.776H346.105ZM336.697 33H346.105V31H336.697V33ZM347.105 32V23.216H345.105V32H347.105ZM346.105 24.216H366.889V22.216H346.105V24.216ZM366.889 24.216C368.058 24.216 369.183 24.0206 370.257 23.6269L369.569 21.7491C368.722 22.0594 367.831 22.216 366.889 22.216V24.216ZM370.274 23.6206C371.373 23.1949 372.346 22.6035 373.179 21.8425L371.83 20.3655C371.192 20.9485 370.436 21.4131 369.552 21.7554L370.274 23.6206ZM373.179 21.8425C374.012 21.0817 374.68 20.1775 375.181 19.1387L373.38 18.2693C372.986 19.0865 372.469 19.7823 371.83 20.3655L373.179 21.8425ZM375.187 19.1269C375.704 18.0196 375.953 16.8008 375.953 15.488H373.953C373.953 16.5432 373.754 17.4684 373.375 18.2811L375.187 19.1269ZM375.953 15.488V8.24H373.953V15.488H375.953ZM375.953 8.24C375.953 6.92788 375.704 5.71969 375.181 4.63725L373.38 5.50675C373.754 6.28031 373.953 7.18411 373.953 8.24H375.953ZM375.187 4.64911C374.687 3.57728 374.018 2.6519 373.179 1.88551L371.83 3.36248C372.463 3.9401 372.979 4.64672 373.375 5.49488L375.187 4.64911ZM373.179 1.88551C372.339 1.11854 371.358 0.539649 370.247 0.14557L369.578 2.03043C370.452 2.34035 371.198 2.78546 371.83 3.36248L373.179 1.88551ZM370.284 0.15952C369.203 -0.272745 368.069 -0.488001 366.889 -0.488001V1.512C367.82 1.512 368.702 1.68074 369.541 2.01647L370.284 0.15952ZM366.889 -0.488001H336.697V1.512H366.889V-0.488001ZM335.697 0.511999V32H337.697V0.511999H335.697ZM363.796 10.7624C363.997 10.7958 364.159 10.8739 364.304 11.0034L365.633 9.50859C365.203 9.12606 364.693 8.88424 364.125 8.7896L363.796 10.7624ZM364.344 11.0369C364.456 11.1261 364.519 11.1952 364.553 11.24C364.585 11.2835 364.581 11.2922 364.575 11.2665L366.515 10.7815C366.376 10.2243 365.996 9.79688 365.593 9.47513L364.344 11.0369ZM364.545 11.024V12.56H366.545V11.024H364.545ZM364.545 12.56C364.545 12.4904 364.568 12.4562 364.559 12.4705C364.547 12.4917 364.501 12.5541 364.384 12.65L365.65 14.198C366.1 13.83 366.545 13.2866 366.545 12.56H364.545ZM364.392 12.6431C364.198 12.7983 364.003 12.8832 363.796 12.9176L364.125 14.8904C364.687 14.7968 365.195 14.5617 365.641 14.2049L364.392 12.6431ZM363.961 12.904H346.105V14.904H363.961V12.904ZM347.105 13.904V9.776H345.105V13.904H347.105ZM346.105 10.776H363.961V8.776H346.105V10.776Z" fill="url(#paint0_linear_621_342)"/>
<defs>
<linearGradient id="paint0_linear_621_342" x1="187.5" y1="-11" x2="186.976" y2="39.9995" gradientUnits="userSpaceOnUse">
<stop offset="0.286458" stop-color="white"/>
<stop offset="1" stop-color="white" stop-opacity="0"/>
</linearGradient>
</defs>
</svg>
