<svg width="59" height="32" viewBox="0 0 59 32" fill="none" xmlns="http://www.w3.org/2000/svg">
<path d="M0.798438 5.072L1.69907 5.50678L1.70462 5.49488L0.798438 5.072ZM2.57444 2.624L1.90017 1.88551L1.90017 1.88551L2.57444 2.624ZM5.11844 1.088L5.46269 2.02687L5.47109 2.02379L5.47943 2.02057L5.11844 1.088ZM34.2544 1.088L33.883 2.01647L33.9014 2.02382L33.92 2.03043L34.2544 1.088ZM36.8464 2.624L37.5207 1.88551V1.88551L36.8464 2.624ZM38.6224 5.072L37.7162 5.49492L37.7219 5.50675L38.6224 5.072ZM38.6224 27.488L39.5231 27.9228L39.5286 27.9109L38.6224 27.488ZM34.2544 31.472L34.5987 32.4109L34.6071 32.4078L34.6154 32.4046L34.2544 31.472ZM5.11844 31.472L4.74705 32.4005L4.7654 32.4078L4.78403 32.4144L5.11844 31.472ZM0.798438 27.488L-0.107824 27.9109L-0.102114 27.9227L0.798438 27.488ZM28.7344 9.92L29.0801 8.98166L28.3112 8.69837L27.8823 9.39661L28.7344 9.92ZM20.8624 22.736L20.0103 22.2126L19.0746 23.736H20.8624V22.736ZM28.3024 22.736V23.736H28.3852L28.4668 23.7224L28.3024 22.736ZM29.3584 22.256L29.9832 23.0369L29.9917 23.03L29.3584 22.256ZM29.8864 11.024H30.8864V10.8714L30.8409 10.7257L29.8864 11.024ZM11.1184 9.776V8.776H11.0357L10.954 8.7896L11.1184 9.776ZM10.0624 10.256L9.43774 9.47513L9.41747 9.49135L9.39808 9.50859L10.0624 10.256ZM9.53444 11.024L8.5643 10.7815L8.53444 10.9009V11.024H9.53444ZM10.3984 22.496L9.9128 23.3702L10.7536 23.8373L11.2531 23.0152L10.3984 22.496ZM18.1264 9.776L18.9811 10.2952L19.9041 8.776H18.1264V9.776ZM1.12644 8.24C1.12644 7.18411 1.32554 6.28031 1.69899 5.50675L-0.102114 4.63725C-0.624669 5.71969 -0.873562 6.92788 -0.873562 8.24H1.12644ZM1.70462 5.49488C2.10043 4.64672 2.61608 3.9401 3.24871 3.36248L1.90017 1.88551C1.06079 2.6519 0.392444 3.57728 -0.107745 4.64911L1.70462 5.49488ZM3.24871 3.36248C3.88625 2.78038 4.62143 2.33534 5.46269 2.02687L4.77418 0.149121C3.69544 0.544662 2.73462 1.12362 1.90017 1.88551L3.24871 3.36248ZM5.47943 2.02057C6.35716 1.6808 7.25882 1.512 8.19044 1.512V-0.488001C7.01005 -0.488001 5.86372 -0.272804 4.75744 0.155429L5.47943 2.02057ZM8.19044 1.512H31.2304V-0.488001H8.19044V1.512ZM31.2304 1.512C32.162 1.512 33.0437 1.68074 33.883 2.01647L34.6258 0.15952C33.5452 -0.272745 32.4109 -0.488001 31.2304 -0.488001V1.512ZM33.92 2.03043C34.7934 2.34035 35.5402 2.78546 36.1722 3.36248L37.5207 1.88551C36.6807 1.11854 35.6994 0.539649 34.5889 0.14557L33.92 2.03043ZM36.1722 3.36248C36.8048 3.9401 37.3204 4.64672 37.7163 5.49488L39.5286 4.64911C39.0284 3.57728 38.3601 2.6519 37.5207 1.88551L36.1722 3.36248ZM37.7219 5.50675C38.0953 6.28031 38.2944 7.18411 38.2944 8.24H40.2944C40.2944 6.92788 40.0455 5.71969 39.523 4.63725L37.7219 5.50675ZM38.2944 8.24V24.272H40.2944V8.24H38.2944ZM38.2944 24.272C38.2944 25.3272 38.0955 26.2524 37.7163 27.0651L39.5286 27.9109C40.0453 26.8036 40.2944 25.5848 40.2944 24.272H38.2944ZM37.7219 27.0532C37.3274 27.8705 36.8109 28.5663 36.1722 29.1495L37.5207 30.6265C38.354 29.8657 39.0215 28.9615 39.523 27.9227L37.7219 27.0532ZM36.1722 29.1495C35.5337 29.7325 34.7777 30.1971 33.8934 30.5394L34.6154 32.4046C35.7151 31.9789 36.6872 31.3875 37.5207 30.6265L36.1722 29.1495ZM33.9102 30.5331C33.0641 30.8434 32.1729 31 31.2304 31V33C32.4 33 33.5248 32.8046 34.5987 32.4109L33.9102 30.5331ZM31.2304 31H8.19044V33H31.2304V31ZM8.19044 31C7.248 31 6.33712 30.8433 5.45285 30.5296L4.78403 32.4144C5.88376 32.8047 7.02088 33 8.19044 33V31ZM5.48983 30.5435C4.63714 30.2024 3.89267 29.7375 3.24871 29.1495L1.90017 30.6265C2.72821 31.3825 3.67973 31.9736 4.74705 32.4005L5.48983 30.5435ZM3.24871 29.1495C2.61 28.5663 2.09352 27.8705 1.69899 27.0532L-0.102114 27.9227C0.399359 28.9615 1.06688 29.8657 1.90017 30.6265L3.24871 29.1495ZM1.70462 27.0651C1.32533 26.2524 1.12644 25.3272 1.12644 24.272H-0.873562C-0.873562 25.5848 -0.624458 26.8036 -0.107746 27.9109L1.70462 27.0651ZM1.12644 24.272V8.24H-0.873562V24.272H1.12644ZM27.8823 9.39661L20.0103 22.2126L21.7145 23.2594L29.5865 10.4434L27.8823 9.39661ZM20.8624 23.736H28.3024V21.736H20.8624V23.736ZM28.4668 23.7224C29.0283 23.6288 29.5371 23.3937 29.9831 23.0369L28.7337 21.4751C28.5398 21.6303 28.3446 21.7152 28.138 21.7496L28.4668 23.7224ZM29.9917 23.03C30.4414 22.662 30.8864 22.1186 30.8864 21.392H28.8864C28.8864 21.3224 28.9099 21.2882 28.9012 21.3026C28.8882 21.3237 28.8424 21.3861 28.7252 21.482L29.9917 23.03ZM30.8864 21.392V11.024H28.8864V21.392H30.8864ZM30.8409 10.7257C30.5688 9.85485 29.9118 9.28805 29.0801 8.98166L28.3887 10.8583C28.7731 10.9999 28.8841 11.1691 28.932 11.3223L30.8409 10.7257ZM10.954 8.7896C10.3926 8.88318 9.88382 9.11827 9.43774 9.47513L10.6871 11.0369C10.8811 10.8817 11.0763 10.7968 11.2828 10.7624L10.954 8.7896ZM9.39808 9.50859C9.02547 9.8398 8.6948 10.2594 8.5643 10.7815L10.5046 11.2665C10.5021 11.2766 10.5234 11.1842 10.7268 11.0034L9.39808 9.50859ZM8.53444 11.024V21.392H10.5344V11.024H8.53444ZM8.53444 21.392C8.53444 22.3521 9.21764 22.984 9.9128 23.3702L10.8841 21.6218C10.6685 21.5021 10.5731 21.4087 10.5379 21.3637C10.5137 21.3327 10.5344 21.3492 10.5344 21.392H8.53444ZM11.2531 23.0152L18.9811 10.2952L17.2718 9.25677L9.5438 21.9768L11.2531 23.0152ZM18.1264 8.776H11.1184V10.776H18.1264V8.776ZM49.5038 9.776H50.5038V8.776H49.5038V9.776ZM42.7358 9.776H41.7358V10.776H42.7358V9.776ZM42.7358 0.511999V-0.488001H41.7358V0.511999H42.7358ZM58.8638 0.511999H59.8638V-0.488001H58.8638V0.511999ZM58.8638 32V33H59.8638V32H58.8638ZM49.5038 32H48.5038V33H49.5038V32ZM49.5038 8.776H42.7358V10.776H49.5038V8.776ZM43.7358 9.776V0.511999H41.7358V9.776H43.7358ZM42.7358 1.512H58.8638V-0.488001H42.7358V1.512ZM57.8638 0.511999V32H59.8638V0.511999H57.8638ZM58.8638 31H49.5038V33H58.8638V31ZM50.5038 32V9.776H48.5038V32H50.5038Z" fill="url(#paint0_linear_1019_621)"/>
<defs>
<linearGradient id="paint0_linear_1019_621" x1="29.5" y1="-11" x2="29.5" y2="49.6333" gradientUnits="userSpaceOnUse">
<stop stop-color="#A8BBFF"/>
<stop offset="1" stop-color="#0012B7" stop-opacity="0.88"/>
</linearGradient>
</defs>
</svg>
