<svg width="82" height="32" viewBox="0 0 82 32" fill="none" xmlns="http://www.w3.org/2000/svg">
<path d="M1.35898 5.072L2.25961 5.50678L2.26517 5.49488L1.35898 5.072ZM3.13498 2.624L2.46072 1.88551L2.46071 1.88551L3.13498 2.624ZM5.67898 1.088L6.02324 2.02687L6.03164 2.02379L6.03998 2.02057L5.67898 1.088ZM34.815 1.088L34.4436 2.01647L34.4619 2.02382L34.4806 2.03043L34.815 1.088ZM37.407 2.624L38.0813 1.88551V1.88551L37.407 2.624ZM39.183 5.072L38.2767 5.49492L38.2824 5.50675L39.183 5.072ZM39.183 27.488L40.0836 27.9228L40.0892 27.9109L39.183 27.488ZM34.815 31.472L35.1592 32.4109L35.1676 32.4078L35.176 32.4046L34.815 31.472ZM5.67898 31.472L5.30759 32.4005L5.32595 32.4078L5.34457 32.4144L5.67898 31.472ZM1.35898 27.488L0.452723 27.9109L0.458433 27.9227L1.35898 27.488ZM29.295 9.92L29.6407 8.98166L28.8718 8.69837L28.4429 9.39661L29.295 9.92ZM21.423 22.736L20.5709 22.2126L19.6352 23.736H21.423V22.736ZM28.863 22.736V23.736H28.9457L29.0274 23.7224L28.863 22.736ZM29.919 22.256L30.5437 23.0369L30.5522 23.03L29.919 22.256ZM30.447 11.024H31.447V10.8714L31.4015 10.7257L30.447 11.024ZM11.679 9.776V8.776H11.5962L11.5146 8.7896L11.679 9.776ZM10.623 10.256L9.99829 9.47513L9.97802 9.49135L9.95862 9.50859L10.623 10.256ZM10.095 11.024L9.12484 10.7815L9.09499 10.9009V11.024H10.095ZM10.959 22.496L10.4733 23.3702L11.3142 23.8373L11.8136 23.0152L10.959 22.496ZM18.687 9.776L19.5416 10.2952L20.4646 8.776H18.687V9.776ZM1.68698 8.24C1.68698 7.18411 1.88609 6.28031 2.25954 5.50675L0.458433 4.63725C-0.0641226 5.71969 -0.313015 6.92788 -0.313015 8.24H1.68698ZM2.26517 5.49488C2.66098 4.64672 3.17663 3.9401 3.80925 3.36248L2.46071 1.88551C1.62134 2.6519 0.952991 3.57728 0.452801 4.64911L2.26517 5.49488ZM3.80925 3.36248C4.4468 2.78038 5.18198 2.33534 6.02324 2.02687L5.33473 0.149121C4.25599 0.544662 3.29517 1.12362 2.46072 1.88551L3.80925 3.36248ZM6.03998 2.02057C6.9177 1.6808 7.81937 1.512 8.75099 1.512V-0.488001C7.5706 -0.488001 6.42426 -0.272804 5.31799 0.155429L6.03998 2.02057ZM8.75099 1.512H31.791V-0.488001H8.75099V1.512ZM31.791 1.512C32.7225 1.512 33.6043 1.68074 34.4436 2.01647L35.1864 0.15952C34.1057 -0.272745 32.9714 -0.488001 31.791 -0.488001V1.512ZM34.4806 2.03043C35.354 2.34035 36.1007 2.78546 36.7327 3.36248L38.0813 1.88551C37.2412 1.11854 36.26 0.539649 35.1494 0.14557L34.4806 2.03043ZM36.7327 3.36248C37.3653 3.9401 37.881 4.64672 38.2768 5.49488L40.0892 4.64911C39.589 3.57728 38.9206 2.6519 38.0813 1.88551L36.7327 3.36248ZM38.2824 5.50675C38.6559 6.28031 38.855 7.18411 38.855 8.24H40.855C40.855 6.92788 40.6061 5.71969 40.0835 4.63725L38.2824 5.50675ZM38.855 8.24V24.272H40.855V8.24H38.855ZM38.855 24.272C38.855 25.3272 38.6561 26.2524 38.2768 27.0651L40.0892 27.9109C40.6059 26.8036 40.855 25.5848 40.855 24.272H38.855ZM38.2824 27.0532C37.8879 27.8705 37.3714 28.5663 36.7327 29.1495L38.0813 30.6265C38.9145 29.8657 39.5821 28.9615 40.0835 27.9227L38.2824 27.0532ZM36.7327 29.1495C36.0942 29.7325 35.3383 30.1971 34.454 30.5394L35.176 32.4046C36.2757 31.9789 37.2477 31.3875 38.0813 30.6265L36.7327 29.1495ZM34.4707 30.5331C33.6246 30.8434 32.7334 31 31.791 31V33C32.9605 33 34.0854 32.8046 35.1592 32.4109L34.4707 30.5331ZM31.791 31H8.75099V33H31.791V31ZM8.75099 31C7.80854 31 6.89766 30.8433 6.01339 30.5296L5.34457 32.4144C6.4443 32.8047 7.58142 33 8.75099 33V31ZM6.05037 30.5435C5.19769 30.2024 4.45322 29.7375 3.80925 29.1495L2.46072 30.6265C3.28875 31.3825 4.24028 31.9736 5.30759 32.4005L6.05037 30.5435ZM3.80925 29.1495C3.17054 28.5663 2.65406 27.8705 2.25954 27.0532L0.458433 27.9227C0.959906 28.9615 1.62743 29.8657 2.46072 30.6265L3.80925 29.1495ZM2.26517 27.0651C1.88588 26.2524 1.68698 25.3272 1.68698 24.272H-0.313015C-0.313015 25.5848 -0.0639111 26.8036 0.452801 27.9109L2.26517 27.0651ZM1.68698 24.272V8.24H-0.313015V24.272H1.68698ZM28.4429 9.39661L20.5709 22.2126L22.2751 23.2594L30.1471 10.4434L28.4429 9.39661ZM21.423 23.736H28.863V21.736H21.423V23.736ZM29.0274 23.7224C29.5888 23.6288 30.0976 23.3937 30.5437 23.0369L29.2943 21.4751C29.1004 21.6303 28.9052 21.7152 28.6986 21.7496L29.0274 23.7224ZM30.5522 23.03C31.002 22.662 31.447 22.1186 31.447 21.392H29.447C29.447 21.3224 29.4705 21.2882 29.4617 21.3026C29.4487 21.3237 29.403 21.3861 29.2857 21.482L30.5522 23.03ZM31.447 21.392V11.024H29.447V21.392H31.447ZM31.4015 10.7257C31.1293 9.85485 30.4723 9.28805 29.6407 8.98166L28.9493 10.8583C29.3336 10.9999 29.4447 11.1691 29.4925 11.3223L31.4015 10.7257ZM11.5146 8.7896C10.9532 8.88318 10.4444 9.11827 9.99829 9.47513L11.2477 11.0369C11.4416 10.8817 11.6368 10.7968 11.8434 10.7624L11.5146 8.7896ZM9.95862 9.50859C9.58601 9.8398 9.25535 10.2594 9.12484 10.7815L11.0651 11.2665C11.0626 11.2766 11.084 11.1842 11.2873 11.0034L9.95862 9.50859ZM9.09499 11.024V21.392H11.095V11.024H9.09499ZM9.09499 21.392C9.09499 22.3521 9.77818 22.984 10.4733 23.3702L11.4446 21.6218C11.229 21.5021 11.1337 21.4087 11.0985 21.3637C11.0743 21.3327 11.095 21.3492 11.095 21.392H9.09499ZM11.8136 23.0152L19.5416 10.2952L17.8324 9.25677L10.1044 21.9768L11.8136 23.0152ZM18.687 8.776H11.679V10.776H18.687V8.776ZM81.5524 32V33H82.5524V32H81.5524ZM72.1444 32H71.1444V33H72.1444V32ZM72.1444 20.912H73.1444V19.912H72.1444V20.912ZM43.2964 20.912H42.2964V21.912H43.2964V20.912ZM43.2964 11.648L42.4369 11.1368L42.2964 11.3731V11.648H43.2964ZM49.9204 0.511999V-0.488001H49.3517L49.0609 0.000775337L49.9204 0.511999ZM60.8164 0.511999L61.6765 1.02211L62.5721 -0.488001H60.8164V0.511999ZM54.2404 11.6L53.3802 11.0899L52.4846 12.6H54.2404V11.6ZM72.1444 11.6V12.6H73.1444V11.6H72.1444ZM72.1444 0.511999V-0.488001H71.1444V0.511999H72.1444ZM81.5524 0.511999H82.5524V-0.488001H81.5524V0.511999ZM81.5524 31H72.1444V33H81.5524V31ZM73.1444 32V20.912H71.1444V32H73.1444ZM72.1444 19.912H43.2964V21.912H72.1444V19.912ZM44.2964 20.912V11.648H42.2964V20.912H44.2964ZM44.1558 12.1592L50.7798 1.02322L49.0609 0.000775337L42.4369 11.1368L44.1558 12.1592ZM49.9204 1.512H60.8164V-0.488001H49.9204V1.512ZM59.9562 0.00189018L53.3802 11.0899L55.1005 12.1101L61.6765 1.02211L59.9562 0.00189018ZM54.2404 12.6H72.1444V10.6H54.2404V12.6ZM73.1444 11.6V0.511999H71.1444V11.6H73.1444ZM72.1444 1.512H81.5524V-0.488001H72.1444V1.512ZM80.5524 0.511999V32H82.5524V0.511999H80.5524Z" fill="url(#paint0_linear_1019_625)"/>
<defs>
<linearGradient id="paint0_linear_1019_625" x1="41.123" y1="-11" x2="41.123" y2="49.6333" gradientUnits="userSpaceOnUse">
<stop stop-color="#A8BBFF"/>
<stop offset="1" stop-color="#0012B7" stop-opacity="0.88"/>
</linearGradient>
</defs>
</svg>
