<svg width="258" height="50" viewBox="0 0 258 50" fill="none" xmlns="http://www.w3.org/2000/svg">
<path d="M22.62 20H29.64L18.6 1.55C18.06 1.01 17.48 0.669999 16.86 0.529999C16.24 0.389999 15.69 0.319999 15.21 0.319999C14.73 0.319999 14.18 0.389999 13.56 0.529999C12.94 0.669999 12.36 1.01 11.82 1.55L0.78 20H7.8L9.3 17.48H21.09L22.62 20ZM15.21 7.52L17.76 11.84H12.63L15.21 7.52ZM37.8272 12.83L30.3872 0.319999H23.3972L34.4372 18.77C34.6972 19.05 34.9772 19.27 35.2772 19.43C35.5772 19.59 35.8772 19.72 36.1772 19.82C36.4772 19.9 36.7672 19.95 37.0472 19.97C37.3272 19.99 37.5872 20 37.8272 20C38.0672 20 38.3272 19.99 38.6072 19.97C38.8872 19.95 39.1772 19.9 39.4772 19.82C39.7772 19.72 40.0772 19.59 40.3772 19.43C40.6772 19.27 40.9572 19.05 41.2172 18.77L52.2572 0.319999H45.2672L37.8272 12.83ZM60.4444 7.52L53.0344 20H46.0144L57.0544 1.55C57.5944 1.01 58.1744 0.669999 58.7944 0.529999C59.4144 0.389999 59.9644 0.319999 60.4444 0.319999C60.9244 0.319999 61.4744 0.389999 62.0944 0.529999C62.7144 0.669999 63.2944 1.01 63.8344 1.55L74.8744 20H67.8544L60.4444 7.52ZM79.7752 6.11H70.8652V0.319999H94.5352V6.11H85.6252V20H79.7752V6.11ZM104.976 7.52L97.5656 20H90.5456L101.586 1.55C102.126 1.01 102.706 0.669999 103.326 0.529999C103.946 0.389999 104.496 0.319999 104.976 0.319999C105.456 0.319999 106.006 0.389999 106.626 0.529999C107.246 0.669999 107.826 1.01 108.366 1.55L119.406 20H112.386L104.976 7.52ZM138.116 20H145.616L139.826 14.51C140.526 14.51 141.196 14.4 141.836 14.18C142.496 13.94 143.066 13.61 143.546 13.19C144.046 12.77 144.436 12.27 144.716 11.69C145.016 11.09 145.166 10.42 145.166 9.68V5.15C145.166 4.41 145.026 3.75 144.746 3.17C144.466 2.57 144.096 2.06 143.636 1.64C143.176 1.22 142.636 0.899999 142.016 0.679998C141.416 0.439999 140.786 0.319999 140.126 0.319999H121.256V20H127.106V14.51H132.146L138.116 20ZM138.296 6.11C138.536 6.15 138.746 6.25 138.926 6.41C139.126 6.57 139.246 6.73 139.286 6.89V7.85C139.286 8.03 139.176 8.21 138.956 8.39C138.756 8.55 138.536 8.65 138.296 8.69H127.106V6.11H138.296ZM175.174 18.77C175.694 19.21 176.124 19.53 176.464 19.73C176.824 19.91 177.104 20 177.304 20H179.374C179.494 20 179.644 19.92 179.824 19.76C180.024 19.58 180.214 19.38 180.394 19.16C180.574 18.92 180.724 18.68 180.844 18.44C180.984 18.18 181.054 17.97 181.054 17.81V0.319999H175.174V11.27L163.024 1.55C161.964 0.73 161.254 0.319999 160.894 0.319999H158.824C158.704 0.319999 158.544 0.4 158.344 0.56C158.164 0.699999 157.984 0.889999 157.804 1.13C157.624 1.35 157.464 1.59 157.324 1.85C157.204 2.09 157.144 2.31 157.144 2.51V20H163.024V9.11L175.174 18.77ZM203.169 7.28H189.099V6.11H206.529V0.319999H183.219V20H189.099V13.07H203.169V7.28ZM217.588 6.11H208.678V0.319999H232.348V6.11H223.438V20H217.588V6.11ZM240.908 7.31C240.568 7.21 240.398 7.01 240.398 6.71C240.418 6.53 240.458 6.4 240.518 6.32C240.578 6.22 240.708 6.15 240.908 6.11H257.828V0.319999H239.558C238.898 0.319999 238.258 0.439999 237.638 0.679998C237.038 0.899999 236.508 1.22 236.048 1.64C235.588 2.06 235.218 2.57 234.938 3.17C234.658 3.75 234.518 4.41 234.518 5.15V8.18C234.518 8.92 234.658 9.59 234.938 10.19C235.218 10.77 235.588 11.27 236.048 11.69C236.508 12.11 237.038 12.44 237.638 12.68C238.258 12.9 238.898 13.01 239.558 13.01H251.438C251.778 13.11 251.948 13.3 251.948 13.58C251.928 13.7 251.888 13.83 251.828 13.97C251.768 14.09 251.638 14.17 251.438 14.21H234.518V20H252.788C253.448 20 254.078 19.89 254.678 19.67C255.298 19.43 255.838 19.1 256.298 18.68C256.758 18.26 257.128 17.76 257.408 17.18C257.688 16.58 257.828 15.91 257.828 15.17V12.14C257.828 11.4 257.688 10.74 257.408 10.16C257.128 9.56 256.758 9.05 256.298 8.63C255.838 8.21 255.298 7.89 254.678 7.67C254.078 7.43 253.448 7.31 252.788 7.31H240.908ZM6.96 44.18H23.61V50H1.08V30.32H6.96V44.18ZM39.9073 37.52L32.4973 50H25.4773L36.5173 31.55C37.0573 31.01 37.6373 30.67 38.2573 30.53C38.8773 30.39 39.4273 30.32 39.9073 30.32C40.3873 30.32 40.9373 30.39 41.5573 30.53C42.1773 30.67 42.7573 31.01 43.2973 31.55L54.3373 50H47.3173L39.9073 37.52ZM61.1592 30.32V43.37C61.1592 43.55 61.2592 43.73 61.4592 43.91C61.6792 44.07 61.9092 44.17 62.1492 44.21H72.3192C72.5392 44.17 72.7492 44.08 72.9492 43.94C73.1492 43.78 73.2692 43.61 73.3092 43.43V30.32H79.1892V45.17C79.1892 45.91 79.0492 46.58 78.7692 47.18C78.4892 47.76 78.1192 48.26 77.6592 48.68C77.1992 49.1 76.6592 49.43 76.0392 49.67C75.4392 49.89 74.8092 50 74.1492 50H60.3192C59.6592 50 59.0192 49.89 58.3992 49.67C57.7992 49.43 57.2692 49.1 56.8092 48.68C56.3492 48.26 55.9792 47.76 55.6992 47.18C55.4192 46.58 55.2792 45.91 55.2792 45.17V30.32H61.1592ZM87.2334 39.11V50H81.3534V32.51C81.3534 32.31 81.4134 32.09 81.5334 31.85C81.6734 31.59 81.8334 31.35 82.0134 31.13C82.1934 30.89 82.3734 30.7 82.5534 30.56C82.7534 30.4 82.9134 30.32 83.0334 30.32H85.1034C85.4634 30.32 86.1734 30.73 87.2334 31.55L99.3834 41.27V30.32H105.263V47.81C105.263 47.97 105.193 48.18 105.053 48.44C104.933 48.68 104.783 48.92 104.603 49.16C104.423 49.38 104.233 49.58 104.033 49.76C103.853 49.92 103.703 50 103.583 50H101.513C101.313 50 101.033 49.91 100.673 49.73C100.333 49.53 99.9034 49.21 99.3834 48.77L87.2334 39.11ZM130.738 30.32H112.468C111.808 30.32 111.168 30.44 110.548 30.68C109.948 30.9 109.418 31.22 108.958 31.64C108.498 32.06 108.128 32.57 107.848 33.17C107.568 33.75 107.428 34.41 107.428 35.15V45.17C107.428 45.91 107.568 46.58 107.848 47.18C108.128 47.76 108.498 48.26 108.958 48.68C109.418 49.1 109.948 49.43 110.548 49.67C111.168 49.89 111.808 50 112.468 50H130.738V44.21H114.418C114.138 44.21 113.878 44.12 113.638 43.94C113.418 43.76 113.308 43.57 113.308 43.37V36.95C113.308 36.75 113.418 36.56 113.638 36.38C113.878 36.2 114.138 36.11 114.418 36.11H130.738V30.32ZM156.797 50H150.917V43.1H138.767V50H132.887V30.32H138.767V37.28H150.917V30.32H156.797V50Z" fill="white"/>
</svg>
