<svg width="384" height="677" viewBox="0 0 384 677" fill="none" xmlns="http://www.w3.org/2000/svg">
<g clip-path="url(#clip0_746_342)">
<g clip-path="url(#clip1_746_342)">
<path d="M-5.19995 656.9V17H64.4L80.3 33H376.7L393.2 49.4V656.2C393.2 656.9 392.6 657.5 391.9 657.5H323.4C323.1 657.5 322.7 657.6 322.5 657.9L306.3 673.7C306.1 673.9 305.7 674.1 305.4 674.1H11.9C11.6 674.1 11.2001 674 11 673.7L-4.79995 657.9C-4.99995 657.6 -5.19995 657.3 -5.19995 656.9Z" fill="url(#paint0_linear_746_342)"/>
<path d="M320.4 674.5H314.4C313.2 674.5 312.6 673.1 313.5 672.3L324.4 661.5C324.6 661.3 325 661.1 325.3 661.1L331.1 661C332.3 661 332.9 662.4 332 663.2L321.2 674.1C321.1 674.4 320.7 674.5 320.4 674.5Z" fill="url(#paint1_linear_746_342)"/>
<path d="M334.1 674.5H328.3C327.1 674.5 326.6 673.1 327.4 672.3L338.2 661.5C338.4 661.3 338.8 661.1 339.1 661.1L345 661C346.2 661 346.8 662.4 345.9 663.2L335 674.2C334.8 674.4 334.5 674.5 334.1 674.5Z" fill="url(#paint2_linear_746_342)"/>
<path d="M348.7 674.5H342.7C341.5 674.5 341 673.1 341.8 672.3L352.6 661.5C352.8 661.3 353.2 661.1 353.5 661.1L359.5 661C360.7 661 361.3 662.4 360.4 663.2L349.6 674.1C349.3 674.4 349 674.5 348.7 674.5Z" fill="url(#paint3_linear_746_342)"/>
<path d="M362.5 674.5H356.9C355.7 674.5 355.2 673.1 356 672.3L366.8 661.5C367 661.3 367.4 661.1 367.7 661.1L373.6 661C374.8 661 375.4 662.4 374.5 663.2L363.4 674.1C363.2 674.4 362.9 674.5 362.5 674.5Z" fill="url(#paint4_linear_746_342)"/>
<path d="M376.9 674.5H371.2C370 674.5 369.4 673.1 370.3 672.3L381.2 661.5C381.4 661.3 381.8 661.1 382.1 661.1L388 661C389.2 661 389.8 662.4 388.9 663.2L377.8 674.1C377.6 674.4 377.3 674.5 376.9 674.5Z" fill="url(#paint5_linear_746_342)"/>
<path d="M-2.89995 656L11.5 669.9C11.7001 670.1 12.1 670.3 12.4 670.3H306.6C307.8 670.3 308.4 671.7 307.5 672.6L306.3 673.7C306.1 673.9 305.7 674.1 305.4 674.1H11.9C11.6 674.1 11.2001 674 11 673.7L-4.79995 657.9C-4.99995 657.7 -5.19995 657.3 -5.19995 657C-5.19995 655.8 -3.79995 655.2 -2.89995 656Z" fill="url(#paint6_linear_746_342)"/>
<path d="M-0.300049 21.3H63.3L78 35.9H-0.300049V21.3Z" fill="url(#paint7_linear_746_342)"/>
<path d="M300 667.6H15.2001C14.9001 667.6 14.5001 667.5 14.3001 667.2L-0.499903 652.5C-0.699903 652.3 -0.899902 651.9 -0.899902 651.6V20.8H63.5001L78.2001 35.4H372.8L388.3 50.9001V651.2C388.3 651.9 387.7 652.5 387 652.5H316.6C316.3 652.5 315.9 652.6 315.7 652.9L300.9 667.2C300.6 667.4 300.3 667.6 300 667.6ZM15.6001 666.5H299.5C299.8 666.5 300.2 666.4 300.4 666.1L315.1 651.7C315.3 651.5 315.7 651.3 316 651.3H385.7C386.4 651.3 387 650.7 387 650V51.3L372.2 36.5H77.7001L63.1001 21.8H0.200097V651C0.200097 651.3 0.300098 651.7 0.600098 651.9L14.6001 666C14.9001 666.3 15.2001 666.5 15.6001 666.5Z" fill="url(#paint8_linear_746_342)"/>
</g>
<rect width="22.7828" height="22.7589" transform="translate(357 4)" fill="#6688FF"/>
<path d="M379.631 25.7173C379.61 25.6926 379.587 25.6696 379.562 25.6484L369.284 15.3619L379.569 5.08174C379.816 4.83428 379.816 4.43306 379.569 4.1856C379.321 3.93813 378.92 3.93813 378.673 4.1856L368.395 14.4721L358.116 4.1856C357.869 3.93813 357.468 3.93813 357.221 4.1856C356.973 4.43306 356.973 4.83428 357.221 5.08174L367.505 15.3619L357.221 25.6421C356.956 25.8688 356.925 26.2672 357.152 26.5319C357.378 26.7967 357.777 26.8275 358.041 26.6008C358.066 26.5797 358.089 26.5567 358.11 26.5319L368.395 16.2517L378.673 26.5382C378.899 26.803 379.298 26.8338 379.562 26.6071C379.827 26.3804 379.858 25.982 379.631 25.7173Z" fill="#12192C"/>
</g>
<rect x="0.5" y="0.5" width="383" height="676" stroke="url(#paint9_linear_746_342)"/>
<defs>
<linearGradient id="paint0_linear_746_342" x1="194.016" y1="110.81" x2="194.016" y2="3151.96" gradientUnits="userSpaceOnUse">
<stop stop-color="#271882"/>
<stop offset="0.125" stop-color="#2E258C" stop-opacity="0.97"/>
<stop offset="1" stop-color="#84B5FF" stop-opacity="0"/>
</linearGradient>
<linearGradient id="paint1_linear_746_342" x1="322.827" y1="661.012" x2="322.827" y2="677.092" gradientUnits="userSpaceOnUse">
<stop stop-color="#A8BBFF"/>
<stop offset="1" stop-color="#0012B7" stop-opacity="0.88"/>
</linearGradient>
<linearGradient id="paint2_linear_746_342" x1="336.662" y1="661.012" x2="336.662" y2="677.093" gradientUnits="userSpaceOnUse">
<stop stop-color="#A8BBFF"/>
<stop offset="1" stop-color="#0012B7" stop-opacity="0.88"/>
</linearGradient>
<linearGradient id="paint3_linear_746_342" x1="351.068" y1="661.012" x2="351.068" y2="677.093" gradientUnits="userSpaceOnUse">
<stop stop-color="#A8BBFF"/>
<stop offset="1" stop-color="#0012B7" stop-opacity="0.88"/>
</linearGradient>
<linearGradient id="paint4_linear_746_342" x1="365.295" y1="661.012" x2="365.295" y2="677.092" gradientUnits="userSpaceOnUse">
<stop stop-color="#A8BBFF"/>
<stop offset="1" stop-color="#0012B7" stop-opacity="0.88"/>
</linearGradient>
<linearGradient id="paint5_linear_746_342" x1="379.633" y1="661.012" x2="379.633" y2="677.092" gradientUnits="userSpaceOnUse">
<stop stop-color="#A8BBFF"/>
<stop offset="1" stop-color="#0012B7" stop-opacity="0.88"/>
</linearGradient>
<linearGradient id="paint6_linear_746_342" x1="151.345" y1="655.62" x2="151.345" y2="677.472" gradientUnits="userSpaceOnUse">
<stop stop-color="#A8BBFF"/>
<stop offset="1" stop-color="#0012B7" stop-opacity="0.88"/>
</linearGradient>
<linearGradient id="paint7_linear_746_342" x1="38.8359" y1="21.2996" x2="38.8359" y2="38.7113" gradientUnits="userSpaceOnUse">
<stop stop-color="#A8BBFF"/>
<stop offset="1" stop-color="#0012B7" stop-opacity="0.88"/>
</linearGradient>
<linearGradient id="paint8_linear_746_342" x1="193.747" y1="20.7621" x2="193.747" y2="789.721" gradientUnits="userSpaceOnUse">
<stop stop-color="#A8BBFF"/>
<stop offset="1" stop-color="#0012B7" stop-opacity="0.88"/>
</linearGradient>
<linearGradient id="paint9_linear_746_342" x1="192" y1="0" x2="102.522" y2="665.026" gradientUnits="userSpaceOnUse">
<stop offset="0.286458" stop-color="white"/>
<stop offset="1" stop-color="white" stop-opacity="0"/>
</linearGradient>
<clipPath id="clip0_746_342">
<rect width="384" height="677" fill="white"/>
</clipPath>
<clipPath id="clip1_746_342">
<rect width="403.2" height="657.5" fill="white" transform="translate(-10 17)"/>
</clipPath>
</defs>
</svg>
