<svg width="953" height="564" viewBox="0 0 953 564" fill="none" xmlns="http://www.w3.org/2000/svg">
<path d="M7.3302 540.152V0.288574H104.503L126.681 22.6342H929.624L952.743 45.5432V540.152H854.443L830.76 563.249H30.4486L7.3302 540.152Z" fill="url(#paint0_linear_346_956)"/>
<path d="M851.811 564H838.278L857.262 545.222L870.607 545.034L851.811 564Z" fill="url(#paint1_linear_346_956)"/>
<path d="M8.26999 509.732L0.563843 502.408V49.2987L6.39044 43.4775H8.26999V509.732Z" fill="url(#paint2_linear_346_956)"/>
<path d="M870.983 564H857.638L876.433 545.222L889.966 545.034L870.983 564Z" fill="url(#paint3_linear_346_956)"/>
<path d="M891.282 564H877.749L896.544 545.222L910.077 545.034L891.282 564Z" fill="url(#paint4_linear_346_956)"/>
<path d="M910.641 564H897.672L916.468 545.222L930 545.034L910.641 564Z" fill="url(#paint5_linear_346_956)"/>
<path d="M930.752 564H917.595L936.579 545.222L950.112 545.034L930.752 564Z" fill="url(#paint6_linear_346_956)"/>
<path d="M7.3302 535.082L31.0125 557.991H836.211L830.76 563.249H30.4486L7.3302 540.152V535.082Z" fill="url(#paint7_linear_346_956)"/>
<path d="M14.0966 6.29761H102.999L123.486 26.7655H14.0966V6.29761Z" fill="url(#paint8_linear_346_956)"/>
<path d="M823.242 554.235H34.9595L13.3447 532.641V5.54639H103.375L123.862 26.0143H924.362L945.976 47.6088V533.204H845.045L823.242 554.235ZM35.5234 552.733H822.49L844.105 531.514H944.097V48.1721L923.422 27.5165H123.11L102.623 7.04862H14.8484V531.89L35.5234 552.733Z" fill="url(#paint9_linear_346_956)"/>
<defs>
<linearGradient id="paint0_linear_346_956" x1="480.037" y1="80.6713" x2="480.037" y2="2686.52" gradientUnits="userSpaceOnUse">
<stop stop-color="#271882"/>
<stop offset="0.125" stop-color="#2E258C" stop-opacity="0.97"/>
<stop offset="1" stop-color="#84B5FF" stop-opacity="0"/>
</linearGradient>
<linearGradient id="paint1_linear_346_956" x1="854.442" y1="545.034" x2="854.442" y2="567.582" gradientUnits="userSpaceOnUse">
<stop stop-color="#A8BBFF"/>
<stop offset="1" stop-color="#0012B7" stop-opacity="0.88"/>
</linearGradient>
<linearGradient id="paint2_linear_346_956" x1="4.41692" y1="43.4775" x2="4.41692" y2="597.802" gradientUnits="userSpaceOnUse">
<stop stop-color="#A8BBFF"/>
<stop offset="1" stop-color="#0012B7" stop-opacity="0.88"/>
</linearGradient>
<linearGradient id="paint3_linear_346_956" x1="873.802" y1="545.034" x2="873.802" y2="567.582" gradientUnits="userSpaceOnUse">
<stop stop-color="#A8BBFF"/>
<stop offset="1" stop-color="#0012B7" stop-opacity="0.88"/>
</linearGradient>
<linearGradient id="paint4_linear_346_956" x1="893.913" y1="545.034" x2="893.913" y2="567.582" gradientUnits="userSpaceOnUse">
<stop stop-color="#A8BBFF"/>
<stop offset="1" stop-color="#0012B7" stop-opacity="0.88"/>
</linearGradient>
<linearGradient id="paint5_linear_346_956" x1="913.836" y1="545.034" x2="913.836" y2="567.582" gradientUnits="userSpaceOnUse">
<stop stop-color="#A8BBFF"/>
<stop offset="1" stop-color="#0012B7" stop-opacity="0.88"/>
</linearGradient>
<linearGradient id="paint6_linear_346_956" x1="933.853" y1="545.034" x2="933.853" y2="567.582" gradientUnits="userSpaceOnUse">
<stop stop-color="#A8BBFF"/>
<stop offset="1" stop-color="#0012B7" stop-opacity="0.88"/>
</linearGradient>
<linearGradient id="paint7_linear_346_956" x1="421.771" y1="535.082" x2="421.771" y2="568.569" gradientUnits="userSpaceOnUse">
<stop stop-color="#A8BBFF"/>
<stop offset="1" stop-color="#0012B7" stop-opacity="0.88"/>
</linearGradient>
<linearGradient id="paint8_linear_346_956" x1="68.7914" y1="6.29761" x2="68.7914" y2="30.6316" gradientUnits="userSpaceOnUse">
<stop stop-color="#A8BBFF"/>
<stop offset="1" stop-color="#0012B7" stop-opacity="0.88"/>
</linearGradient>
<linearGradient id="paint9_linear_346_956" x1="479.661" y1="5.54639" x2="479.661" y2="657.877" gradientUnits="userSpaceOnUse">
<stop stop-color="#A8BBFF"/>
<stop offset="1" stop-color="#0012B7" stop-opacity="0.88"/>
</linearGradient>
</defs>
</svg>
