<svg width="488" height="32" viewBox="0 0 488 32" fill="none" xmlns="http://www.w3.org/2000/svg">
<path d="M37.3053 0.511999H38.3053V-0.488001H37.3053V0.511999ZM5.00125 1.088L5.34551 2.02687L5.3539 2.02379L5.36224 2.02057L5.00125 1.088ZM2.45725 2.624L1.78298 1.88551L1.78298 1.88551L2.45725 2.624ZM0.68125 5.072L1.58188 5.50678L1.58743 5.49488L0.68125 5.072ZM0.68125 27.488L-0.225011 27.9109L-0.219302 27.9227L0.68125 27.488ZM5.00125 31.472L4.62986 32.4005L4.64821 32.4078L4.66684 32.4144L5.00125 31.472ZM37.3053 32V33H38.3053V32H37.3053ZM37.3053 22.736H38.3053V21.736H37.3053V22.736ZM9.94525 22.304L9.31201 23.078L9.32836 23.0913L9.34525 23.104L9.94525 22.304ZM9.94525 10.208L9.34525 9.408L9.32836 9.42067L9.31201 9.43404L9.94525 10.208ZM37.3053 9.776V10.776H38.3053V9.776H37.3053ZM37.3053 -0.488001H8.07325V1.512H37.3053V-0.488001ZM8.07325 -0.488001C6.89287 -0.488001 5.74653 -0.272804 4.64026 0.155429L5.36224 2.02057C6.23997 1.6808 7.14163 1.512 8.07325 1.512V-0.488001ZM4.65699 0.149121C3.57825 0.544662 2.61744 1.12362 1.78298 1.88551L3.13152 3.36248C3.76906 2.78038 4.50425 2.33534 5.34551 2.02687L4.65699 0.149121ZM1.78298 1.88551C0.943604 2.6519 0.275256 3.57728 -0.224933 4.64911L1.58743 5.49488C1.98324 4.64672 2.4989 3.9401 3.13152 3.36248L1.78298 1.88551ZM-0.219302 4.63725C-0.741857 5.71969 -0.99075 6.92788 -0.99075 8.24H1.00925C1.00925 7.18411 1.20836 6.28031 1.5818 5.50675L-0.219302 4.63725ZM-0.99075 8.24V24.272H1.00925V8.24H-0.99075ZM-0.99075 24.272C-0.99075 25.5848 -0.741645 26.8036 -0.224933 27.9109L1.58743 27.0651C1.20815 26.2524 1.00925 25.3272 1.00925 24.272H-0.99075ZM-0.219302 27.9227C0.282171 28.9615 0.949691 29.8657 1.78298 30.6265L3.13152 29.1495C2.49281 28.5663 1.97633 27.8705 1.5818 27.0532L-0.219302 27.9227ZM1.78298 30.6265C2.61102 31.3825 3.56255 31.9736 4.62986 32.4005L5.37264 30.5435C4.51995 30.2024 3.77548 29.7375 3.13152 29.1495L1.78298 30.6265ZM4.66684 32.4144C5.76657 32.8047 6.90369 33 8.07325 33V31C7.13081 31 6.21993 30.8433 5.33566 30.5296L4.66684 32.4144ZM8.07325 33H37.3053V31H8.07325V33ZM38.3053 32V22.736H36.3053V32H38.3053ZM37.3053 21.736H11.1933V23.736H37.3053V21.736ZM11.1933 21.736C10.9775 21.736 10.7693 21.672 10.5453 21.504L9.34525 23.104C9.8892 23.512 10.513 23.736 11.1933 23.736V21.736ZM10.5785 21.53C10.4696 21.4409 10.4275 21.3811 10.4147 21.359C10.406 21.3439 10.4173 21.3592 10.4173 21.392H8.41725C8.41725 22.1226 8.82986 22.6835 9.31201 23.078L10.5785 21.53ZM10.4173 21.392V11.12H8.41725V21.392H10.4173ZM10.4173 11.12C10.4173 11.1528 10.406 11.1681 10.4147 11.153C10.4275 11.1309 10.4696 11.0711 10.5785 10.982L9.31201 9.43404C8.82986 9.82853 8.41725 10.3894 8.41725 11.12H10.4173ZM10.5453 11.008C10.7693 10.84 10.9775 10.776 11.1933 10.776V8.776C10.513 8.776 9.8892 9.00004 9.34525 9.408L10.5453 11.008ZM11.1933 10.776H37.3053V8.776H11.1933V10.776ZM38.3053 9.776V0.511999H36.3053V9.776H38.3053ZM51.4156 27.488L50.5094 27.9109L50.5151 27.9227L51.4156 27.488ZM55.7356 31.472L55.3642 32.4005L55.3826 32.4078L55.4012 32.4144L55.7356 31.472ZM84.8716 31.472L85.2159 32.4109L85.2243 32.4078L85.2326 32.4046L84.8716 31.472ZM89.2396 27.488L90.1403 27.9228L90.1458 27.9109L89.2396 27.488ZM89.2396 5.072L88.3334 5.49492L88.3391 5.50675L89.2396 5.072ZM87.4636 2.624L88.1379 1.88551L88.1379 1.88551L87.4636 2.624ZM84.8716 1.088L84.5002 2.01647L84.5186 2.02382L84.5372 2.03043L84.8716 1.088ZM55.7356 1.088L56.0799 2.02687L56.0883 2.02379L56.0966 2.02057L55.7356 1.088ZM53.1916 2.624L52.5174 1.88551V1.88551L53.1916 2.624ZM51.4156 5.072L52.3163 5.50678L52.3218 5.49488L51.4156 5.072ZM61.7356 9.776V8.776H61.6529L61.5712 8.7896L61.7356 9.776ZM78.9196 9.776L79.084 8.7896L79.0024 8.776H78.9196V9.776ZM79.9276 10.256L79.2633 11.0034L79.2827 11.0207L79.3029 11.0369L79.9276 10.256ZM80.5036 11.024H81.5036V10.9009L81.4738 10.7815L80.5036 11.024ZM79.9756 22.256L80.6004 23.0369L80.6089 23.03L79.9756 22.256ZM78.9196 22.736V23.736H79.0024L79.084 23.7224L78.9196 22.736ZM61.7356 22.736L61.5712 23.7224L61.6529 23.736H61.7356V22.736ZM60.6316 22.256L59.9627 22.9993L60.0014 23.0341L60.0435 23.0647L60.6316 22.256ZM60.1516 11.024L59.1815 10.7815L59.1516 10.9009V11.024H60.1516ZM60.6796 10.256L60.0549 9.47513L60.0347 9.49135L60.0153 9.50859L60.6796 10.256ZM49.7436 8.24V24.272H51.7436V8.24H49.7436ZM49.7436 24.272C49.7436 25.5848 49.9927 26.8036 50.5094 27.9109L52.3218 27.0651C51.9425 26.2524 51.7436 25.3272 51.7436 24.272H49.7436ZM50.5151 27.9227C51.0165 28.9615 51.6841 29.8657 52.5174 30.6265L53.8659 29.1495C53.2272 28.5663 52.7107 27.8705 52.3162 27.0532L50.5151 27.9227ZM52.5174 30.6265C53.3454 31.3825 54.2969 31.9736 55.3642 32.4005L56.107 30.5435C55.2543 30.2024 54.5099 29.7375 53.8659 29.1495L52.5174 30.6265ZM55.4012 32.4144C56.5009 32.8047 57.6381 33 58.8076 33V31C57.8652 31 56.9543 30.8433 56.07 30.5296L55.4012 32.4144ZM58.8076 33H81.8476V31H58.8076V33ZM81.8476 33C83.0172 33 84.142 32.8046 85.2159 32.4109L84.5274 30.5331C83.6813 30.8434 82.7901 31 81.8476 31V33ZM85.2326 32.4046C86.3323 31.9789 87.3044 31.3875 88.1379 30.6265L86.7894 29.1495C86.1509 29.7325 85.3949 30.1971 84.5106 30.5394L85.2326 32.4046ZM88.1379 30.6265C88.9712 29.8657 89.6387 28.9615 90.1402 27.9227L88.3391 27.0532C87.9445 27.8705 87.4281 28.5663 86.7894 29.1495L88.1379 30.6265ZM90.1458 27.9109C90.6625 26.8036 90.9116 25.5848 90.9116 24.272H88.9116C88.9116 25.3272 88.7127 26.2524 88.3334 27.0651L90.1458 27.9109ZM90.9116 24.272V8.24H88.9116V24.272H90.9116ZM90.9116 8.24C90.9116 6.92788 90.6627 5.71969 90.1402 4.63725L88.3391 5.50675C88.7125 6.28031 88.9116 7.18411 88.9116 8.24H90.9116ZM90.1458 4.64911C89.6456 3.57728 88.9773 2.6519 88.1379 1.88551L86.7894 3.36248C87.422 3.9401 87.9376 4.64672 88.3334 5.49488L90.1458 4.64911ZM88.1379 1.88551C87.2979 1.11854 86.3166 0.539649 85.206 0.14557L84.5372 2.03043C85.4106 2.34035 86.1574 2.78546 86.7894 3.36248L88.1379 1.88551ZM85.243 0.15952C84.1623 -0.272745 83.0281 -0.488001 81.8476 -0.488001V1.512C82.7792 1.512 83.6609 1.68074 84.5002 2.01647L85.243 0.15952ZM81.8476 -0.488001H58.8076V1.512H81.8476V-0.488001ZM58.8076 -0.488001C57.6272 -0.488001 56.4809 -0.272804 55.3746 0.155429L56.0966 2.02057C56.9743 1.6808 57.876 1.512 58.8076 1.512V-0.488001ZM55.3914 0.149121C54.3126 0.544662 53.3518 1.12362 52.5174 1.88551L53.8659 3.36248C54.5034 2.78038 55.2386 2.33534 56.0799 2.02687L55.3914 0.149121ZM52.5174 1.88551C51.678 2.6519 51.0096 3.57728 50.5094 4.64911L52.3218 5.49488C52.7176 4.64672 53.2333 3.9401 53.8659 3.36248L52.5174 1.88551ZM50.5151 4.63725C49.9925 5.71969 49.7436 6.92788 49.7436 8.24H51.7436C51.7436 7.18411 51.9427 6.28031 52.3162 5.50675L50.5151 4.63725ZM61.7356 10.776H78.9196V8.776H61.7356V10.776ZM78.7552 10.7624C78.9554 10.7958 79.1176 10.8739 79.2633 11.0034L80.592 9.50859C80.1617 9.12606 79.6518 8.88424 79.084 8.7896L78.7552 10.7624ZM79.3029 11.0369C79.4145 11.1261 79.478 11.1952 79.5116 11.24C79.5443 11.2835 79.5399 11.2922 79.5335 11.2665L81.4738 10.7815C81.3345 10.2243 80.9545 9.79688 80.5523 9.47513L79.3029 11.0369ZM79.5036 11.024V21.392H81.5036V11.024H79.5036ZM79.5036 21.392C79.5036 21.3224 79.5271 21.2882 79.5183 21.3026C79.5054 21.3237 79.4596 21.3861 79.3424 21.482L80.6089 23.03C81.0586 22.662 81.5036 22.1186 81.5036 21.392H79.5036ZM79.3509 21.4751C79.157 21.6303 78.9618 21.7152 78.7552 21.7496L79.084 23.7224C79.6455 23.6288 80.1542 23.3937 80.6003 23.0369L79.3509 21.4751ZM78.9196 21.736H61.7356V23.736H78.9196V21.736ZM61.9 21.7496C61.6864 21.714 61.4612 21.6228 61.2198 21.4473L60.0435 23.0647C60.506 23.4011 61.0168 23.63 61.5712 23.7224L61.9 21.7496ZM61.3006 21.5127C61.199 21.4212 61.1585 21.3612 61.1458 21.3384C61.1363 21.3213 61.1516 21.3429 61.1516 21.392H59.1516C59.1516 22.0792 59.5369 22.6161 59.9627 22.9993L61.3006 21.5127ZM61.1516 21.392V11.024H59.1516V21.392H61.1516ZM61.1218 11.2665C61.1193 11.2766 61.1406 11.1842 61.344 11.0034L60.0153 9.50859C59.6427 9.8398 59.312 10.2594 59.1815 10.7815L61.1218 11.2665ZM61.3043 11.0369C61.4982 10.8817 61.6935 10.7968 61.9 10.7624L61.5712 8.7896C61.0098 8.88318 60.501 9.11827 60.0549 9.47513L61.3043 11.0369ZM112.761 22.688H111.761V23.688H112.761V22.688ZM139.401 22.688H140.401V21.688H139.401V22.688ZM139.401 32V33H140.401V32H139.401ZM103.353 32H102.353V33H103.353V32ZM103.353 0.511999V-0.488001H102.353V0.511999H103.353ZM112.761 0.511999H113.761V-0.488001H112.761V0.511999ZM112.761 23.688H139.401V21.688H112.761V23.688ZM138.401 22.688V32H140.401V22.688H138.401ZM139.401 31H103.353V33H139.401V31ZM104.353 32V0.511999H102.353V32H104.353ZM103.353 1.512H112.761V-0.488001H103.353V1.512ZM111.761 0.511999V22.688H113.761V0.511999H111.761ZM162.277 22.688H161.277V23.688H162.277V22.688ZM188.917 22.688H189.917V21.688H188.917V22.688ZM188.917 32V33H189.917V32H188.917ZM152.869 32H151.869V33H152.869V32ZM152.869 0.511999V-0.488001H151.869V0.511999H152.869ZM162.277 0.511999H163.277V-0.488001H162.277V0.511999ZM162.277 23.688H188.917V21.688H162.277V23.688ZM187.917 22.688V32H189.917V22.688H187.917ZM188.917 31H152.869V33H188.917V31ZM153.869 32V0.511999H151.869V32H153.869ZM152.869 1.512H162.277V-0.488001H152.869V1.512ZM161.277 0.511999V22.688H163.277V0.511999H161.277ZM234.304 11.696H235.304V10.696H234.304V11.696ZM211.792 11.696H210.792V12.696H211.792V11.696ZM211.792 9.776V8.776H210.792V9.776H211.792ZM239.68 9.776V10.776H240.68V9.776H239.68ZM239.68 0.511999H240.68V-0.488001H239.68V0.511999ZM202.384 0.511999V-0.488001H201.384V0.511999H202.384ZM202.384 32H201.384V33H202.384V32ZM239.68 32V33H240.68V32H239.68ZM239.68 22.736H240.68V21.736H239.68V22.736ZM211.792 22.736H210.792V23.736H211.792V22.736ZM211.792 20.816V19.816H210.792V20.816H211.792ZM234.304 20.816V21.816H235.304V20.816H234.304ZM234.304 10.696H211.792V12.696H234.304V10.696ZM212.792 11.696V9.776H210.792V11.696H212.792ZM211.792 10.776H239.68V8.776H211.792V10.776ZM240.68 9.776V0.511999H238.68V9.776H240.68ZM239.68 -0.488001H202.384V1.512H239.68V-0.488001ZM201.384 0.511999V32H203.384V0.511999H201.384ZM202.384 33H239.68V31H202.384V33ZM240.68 32V22.736H238.68V32H240.68ZM239.68 21.736H211.792V23.736H239.68V21.736ZM212.792 22.736V20.816H210.792V22.736H212.792ZM211.792 21.816H234.304V19.816H211.792V21.816ZM235.304 20.816V11.696H233.304V20.816H235.304ZM290.415 0.511999H291.415V-0.488001H290.415V0.511999ZM258.111 1.088L258.455 2.02687L258.463 2.02379L258.472 2.02057L258.111 1.088ZM255.567 2.624L254.892 1.88551V1.88551L255.567 2.624ZM253.791 5.072L254.691 5.50678L254.697 5.49488L253.791 5.072ZM253.791 27.488L252.884 27.9109L252.89 27.9227L253.791 27.488ZM258.111 31.472L257.739 32.4005L257.758 32.4078L257.776 32.4144L258.111 31.472ZM290.415 32V33H291.415V32H290.415ZM290.415 22.736H291.415V21.736H290.415V22.736ZM263.055 22.304L262.421 23.078L262.438 23.0913L262.455 23.104L263.055 22.304ZM263.055 10.208L262.455 9.408L262.438 9.42067L262.421 9.43404L263.055 10.208ZM290.415 9.776V10.776H291.415V9.776H290.415ZM290.415 -0.488001H261.183V1.512H290.415V-0.488001ZM261.183 -0.488001C260.002 -0.488001 258.856 -0.272804 257.75 0.155429L258.472 2.02057C259.349 1.6808 260.251 1.512 261.183 1.512V-0.488001ZM257.766 0.149121C256.688 0.544662 255.727 1.12362 254.892 1.88551L256.241 3.36248C256.878 2.78038 257.614 2.33534 258.455 2.02687L257.766 0.149121ZM254.892 1.88551C254.053 2.6519 253.385 3.57728 252.884 4.64911L254.697 5.49488C255.093 4.64672 255.608 3.9401 256.241 3.36248L254.892 1.88551ZM252.89 4.63725C252.368 5.71969 252.119 6.92788 252.119 8.24H254.119C254.119 7.18411 254.318 6.28031 254.691 5.50675L252.89 4.63725ZM252.119 8.24V24.272H254.119V8.24H252.119ZM252.119 24.272C252.119 25.5848 252.368 26.8036 252.884 27.9109L254.697 27.0651C254.318 26.2524 254.119 25.3272 254.119 24.272H252.119ZM252.89 27.9227C253.392 28.9615 254.059 29.8657 254.892 30.6265L256.241 29.1495C255.602 28.5663 255.086 27.8705 254.691 27.0532L252.89 27.9227ZM254.892 30.6265C255.72 31.3825 256.672 31.9736 257.739 32.4005L258.482 30.5435C257.629 30.2024 256.885 29.7375 256.241 29.1495L254.892 30.6265ZM257.776 32.4144C258.876 32.8047 260.013 33 261.183 33V31C260.24 31 259.329 30.8433 258.445 30.5296L257.776 32.4144ZM261.183 33H290.415V31H261.183V33ZM291.415 32V22.736H289.415V32H291.415ZM290.415 21.736H264.303V23.736H290.415V21.736ZM264.303 21.736C264.087 21.736 263.879 21.672 263.655 21.504L262.455 23.104C262.999 23.512 263.622 23.736 264.303 23.736V21.736ZM263.688 21.53C263.579 21.4409 263.537 21.3811 263.524 21.359C263.515 21.3439 263.527 21.3592 263.527 21.392H261.527C261.527 22.1226 261.939 22.6835 262.421 23.078L263.688 21.53ZM263.527 21.392V11.12H261.527V21.392H263.527ZM263.527 11.12C263.527 11.1528 263.515 11.1681 263.524 11.153C263.537 11.1309 263.579 11.0711 263.688 10.982L262.421 9.43404C261.939 9.82853 261.527 10.3894 261.527 11.12H263.527ZM263.655 11.008C263.879 10.84 264.087 10.776 264.303 10.776V8.776C263.622 8.776 262.999 9.00004 262.455 9.408L263.655 11.008ZM264.303 10.776H290.415V8.776H264.303V10.776ZM291.415 9.776V0.511999H289.415V9.776H291.415ZM318.109 9.776H319.109V8.776H318.109V9.776ZM303.853 9.776H302.853V10.776H303.853V9.776ZM303.853 0.511999V-0.488001H302.853V0.511999H303.853ZM341.725 0.511999H342.725V-0.488001H341.725V0.511999ZM341.725 9.776V10.776H342.725V9.776H341.725ZM327.469 9.776V8.776H326.469V9.776H327.469ZM327.469 32V33H328.469V32H327.469ZM318.109 32H317.109V33H318.109V32ZM318.109 8.776H303.853V10.776H318.109V8.776ZM304.853 9.776V0.511999H302.853V9.776H304.853ZM303.853 1.512H341.725V-0.488001H303.853V1.512ZM340.725 0.511999V9.776H342.725V0.511999H340.725ZM341.725 8.776H327.469V10.776H341.725V8.776ZM326.469 9.776V32H328.469V9.776H326.469ZM327.469 31H318.109V33H327.469V31ZM319.109 32V9.776H317.109V32H319.109ZM383.661 9.776V10.776H384.661V9.776H383.661ZM383.661 0.511999H384.661V-0.488001H383.661V0.511999ZM355.197 0.511999V-0.488001H354.197V0.511999H355.197ZM355.197 9.776H354.197V10.776H355.197V9.776ZM364.749 9.776H365.749V8.776H364.749V9.776ZM364.749 22.736V23.736H365.749V22.736H364.749ZM355.197 22.736V21.736H354.197V22.736H355.197ZM355.197 32H354.197V33H355.197V32ZM383.661 32V33H384.661V32H383.661ZM383.661 22.736H384.661V21.736H383.661V22.736ZM374.109 22.736H373.109V23.736H374.109V22.736ZM374.109 9.776V8.776H373.109V9.776H374.109ZM384.661 9.776V0.511999H382.661V9.776H384.661ZM383.661 -0.488001H355.197V1.512H383.661V-0.488001ZM354.197 0.511999V9.776H356.197V0.511999H354.197ZM355.197 10.776H364.749V8.776H355.197V10.776ZM363.749 9.776V22.736H365.749V9.776H363.749ZM364.749 21.736H355.197V23.736H364.749V21.736ZM354.197 22.736V32H356.197V22.736H354.197ZM355.197 33H383.661V31H355.197V33ZM384.661 32V22.736H382.661V32H384.661ZM383.661 21.736H374.109V23.736H383.661V21.736ZM375.109 22.736V9.776H373.109V22.736H375.109ZM374.109 10.776H383.661V8.776H374.109V10.776ZM397.791 27.488L396.884 27.9109L396.89 27.9227L397.791 27.488ZM402.111 31.472L401.739 32.4005L401.758 32.4078L401.776 32.4144L402.111 31.472ZM431.247 31.472L431.591 32.4109L431.599 32.4078L431.608 32.4046L431.247 31.472ZM435.615 27.488L436.515 27.9228L436.521 27.9109L435.615 27.488ZM435.615 5.072L434.708 5.49492L434.714 5.50675L435.615 5.072ZM433.839 2.624L434.513 1.88551V1.88551L433.839 2.624ZM431.247 1.088L430.875 2.01647L430.894 2.02382L430.912 2.03043L431.247 1.088ZM402.111 1.088L402.455 2.02687L402.463 2.02379L402.472 2.02057L402.111 1.088ZM399.567 2.624L398.892 1.88551V1.88551L399.567 2.624ZM397.791 5.072L398.691 5.50678L398.697 5.49488L397.791 5.072ZM408.111 9.776V8.776H408.028L407.946 8.7896L408.111 9.776ZM425.295 9.776L425.459 8.7896L425.377 8.776H425.295V9.776ZM426.303 10.256L425.638 11.0034L425.658 11.0207L425.678 11.0369L426.303 10.256ZM426.879 11.024H427.879V10.9009L427.849 10.7815L426.879 11.024ZM426.351 22.256L426.975 23.0369L426.984 23.03L426.351 22.256ZM425.295 22.736V23.736H425.377L425.459 23.7224L425.295 22.736ZM408.111 22.736L407.946 23.7224L408.028 23.736H408.111V22.736ZM407.007 22.256L406.338 22.9993L406.376 23.0341L406.418 23.0647L407.007 22.256ZM406.527 11.024L405.556 10.7815L405.527 10.9009V11.024H406.527ZM407.055 10.256L406.43 9.47513L406.41 9.49135L406.39 9.50859L407.055 10.256ZM396.119 8.24V24.272H398.119V8.24H396.119ZM396.119 24.272C396.119 25.5848 396.368 26.8036 396.884 27.9109L398.697 27.0651C398.318 26.2524 398.119 25.3272 398.119 24.272H396.119ZM396.89 27.9227C397.392 28.9615 398.059 29.8657 398.892 30.6265L400.241 29.1495C399.602 28.5663 399.086 27.8705 398.691 27.0532L396.89 27.9227ZM398.892 30.6265C399.72 31.3825 400.672 31.9736 401.739 32.4005L402.482 30.5435C401.629 30.2024 400.885 29.7375 400.241 29.1495L398.892 30.6265ZM401.776 32.4144C402.876 32.8047 404.013 33 405.183 33V31C404.24 31 403.329 30.8433 402.445 30.5296L401.776 32.4144ZM405.183 33H428.223V31H405.183V33ZM428.223 33C429.392 33 430.517 32.8046 431.591 32.4109L430.902 30.5331C430.056 30.8434 429.165 31 428.223 31V33ZM431.608 32.4046C432.707 31.9789 433.679 31.3875 434.513 30.6265L433.164 29.1495C432.526 29.7325 431.77 30.1971 430.886 30.5394L431.608 32.4046ZM434.513 30.6265C435.346 29.8657 436.014 28.9615 436.515 27.9227L434.714 27.0532C434.32 27.8705 433.803 28.5663 433.164 29.1495L434.513 30.6265ZM436.521 27.9109C437.038 26.8036 437.287 25.5848 437.287 24.272H435.287C435.287 25.3272 435.088 26.2524 434.708 27.0651L436.521 27.9109ZM437.287 24.272V8.24H435.287V24.272H437.287ZM437.287 8.24C437.287 6.92788 437.038 5.71969 436.515 4.63725L434.714 5.50675C435.088 6.28031 435.287 7.18411 435.287 8.24H437.287ZM436.521 4.64911C436.021 3.57728 435.352 2.6519 434.513 1.88551L433.164 3.36248C433.797 3.9401 434.313 4.64672 434.708 5.49488L436.521 4.64911ZM434.513 1.88551C433.673 1.11854 432.692 0.539649 431.581 0.14557L430.912 2.03043C431.786 2.34035 432.532 2.78546 433.164 3.36248L434.513 1.88551ZM431.618 0.15952C430.537 -0.272745 429.403 -0.488001 428.223 -0.488001V1.512C429.154 1.512 430.036 1.68074 430.875 2.01647L431.618 0.15952ZM428.223 -0.488001H405.183V1.512H428.223V-0.488001ZM405.183 -0.488001C404.002 -0.488001 402.856 -0.272804 401.75 0.155429L402.472 2.02057C403.349 1.6808 404.251 1.512 405.183 1.512V-0.488001ZM401.766 0.149121C400.688 0.544662 399.727 1.12362 398.892 1.88551L400.241 3.36248C400.878 2.78038 401.614 2.33534 402.455 2.02687L401.766 0.149121ZM398.892 1.88551C398.053 2.6519 397.385 3.57728 396.884 4.64911L398.697 5.49488C399.093 4.64672 399.608 3.9401 400.241 3.36248L398.892 1.88551ZM396.89 4.63725C396.368 5.71969 396.119 6.92788 396.119 8.24H398.119C398.119 7.18411 398.318 6.28031 398.691 5.50675L396.89 4.63725ZM408.111 10.776H425.295V8.776H408.111V10.776ZM425.13 10.7624C425.33 10.7958 425.493 10.8739 425.638 11.0034L426.967 9.50859C426.537 9.12606 426.027 8.88424 425.459 8.7896L425.13 10.7624ZM425.678 11.0369C425.79 11.1261 425.853 11.1952 425.887 11.24C425.919 11.2835 425.915 11.2922 425.908 11.2665L427.849 10.7815C427.709 10.2243 427.329 9.79688 426.927 9.47513L425.678 11.0369ZM425.879 11.024V21.392H427.879V11.024H425.879ZM425.879 21.392C425.879 21.3224 425.902 21.2882 425.893 21.3026C425.88 21.3237 425.835 21.3861 425.717 21.482L426.984 23.03C427.434 22.662 427.879 22.1186 427.879 21.392H425.879ZM425.726 21.4751C425.532 21.6303 425.337 21.7152 425.13 21.7496L425.459 23.7224C426.02 23.6288 426.529 23.3937 426.975 23.0369L425.726 21.4751ZM425.295 21.736H408.111V23.736H425.295V21.736ZM408.275 21.7496C408.061 21.714 407.836 21.6228 407.595 21.4473L406.418 23.0647C406.881 23.4011 407.392 23.63 407.946 23.7224L408.275 21.7496ZM407.676 21.5127C407.574 21.4212 407.534 21.3612 407.521 21.3384C407.511 21.3213 407.527 21.3429 407.527 21.392H405.527C405.527 22.0792 405.912 22.6161 406.338 22.9993L407.676 21.5127ZM407.527 21.392V11.024H405.527V21.392H407.527ZM407.497 11.2665C407.494 11.2766 407.516 11.1842 407.719 11.0034L406.39 9.50859C406.018 9.8398 405.687 10.2594 405.556 10.7815L407.497 11.2665ZM407.679 11.0369C407.873 10.8817 408.068 10.7968 408.275 10.7624L407.946 8.7896C407.385 8.88318 406.876 9.11827 406.43 9.47513L407.679 11.0369ZM478.576 30.032L479.222 29.2686L479.21 29.2588L479.198 29.2492L478.576 30.032ZM480.64 31.568L480.133 32.4299L480.162 32.4472L480.193 32.4624L480.64 31.568ZM486.016 31.616L486.68 32.3634L486.685 32.3593L486.016 31.616ZM486.928 30.656L487.702 31.2892L487.715 31.2729L487.728 31.256L486.928 30.656ZM487.648 29.504L486.768 29.0299L486.76 29.0432L486.754 29.0568L487.648 29.504ZM487.984 0.511999H488.984V-0.488001H487.984V0.511999ZM478.576 0.511999V-0.488001H477.576V0.511999H478.576ZM478.576 18.032L477.951 18.8129L479.576 20.1126V18.032H478.576ZM459.136 2.48L459.761 1.69913L459.754 1.69403L459.748 1.68904L459.136 2.48ZM451.648 0.896L452.262 1.68543L452.273 1.67687L451.648 0.896ZM450.784 1.808L451.558 2.44124L451.571 2.42489L451.584 2.408L450.784 1.808ZM450.016 2.96L449.136 2.4859L449.128 2.49924L449.122 2.51278L450.016 2.96ZM449.728 32H448.728V33H449.728V32ZM459.136 32V33H460.136V32H459.136ZM459.136 14.576L459.758 13.7932L458.136 12.5034V14.576H459.136ZM477.93 30.7954C478.779 31.5138 479.517 32.0677 480.133 32.4299L481.147 30.7061C480.675 30.4283 480.037 29.9582 479.222 29.2686L477.93 30.7954ZM480.193 32.4624C480.794 32.7633 481.419 33 481.984 33V31C481.909 31 481.638 30.9487 481.087 30.6736L480.193 32.4624ZM481.984 33H485.296V31H481.984V33ZM485.296 33C485.883 33 486.366 32.6425 486.68 32.3634L485.352 30.8686C485.3 30.9147 485.256 30.9495 485.221 30.9753C485.185 31.0012 485.161 31.0152 485.149 31.0216C485.137 31.0282 485.143 31.0238 485.165 31.0172C485.188 31.0105 485.233 31 485.296 31V33ZM486.685 32.3593C487.045 32.0355 487.384 31.6783 487.702 31.2892L486.154 30.0228C485.896 30.3377 485.627 30.6205 485.347 30.8727L486.685 32.3593ZM487.728 31.256C488.048 30.8295 488.321 30.3947 488.542 29.9512L486.754 29.0568C486.591 29.3813 486.384 29.7145 486.128 30.056L487.728 31.256ZM488.528 29.9781C488.775 29.5203 488.984 29.005 488.984 28.496H486.984C486.984 28.4841 486.985 28.5216 486.951 28.6238C486.918 28.7227 486.861 28.8569 486.768 29.0299L488.528 29.9781ZM488.984 28.496V0.511999H486.984V28.496H488.984ZM487.984 -0.488001H478.576V1.512H487.984V-0.488001ZM477.576 0.511999V18.032H479.576V0.511999H477.576ZM479.201 17.2511L459.761 1.69913L458.511 3.26087L477.951 18.8129L479.201 17.2511ZM459.748 1.68904C458.884 1.02044 458.136 0.498037 457.512 0.138017C456.94 -0.192126 456.307 -0.488001 455.728 -0.488001V1.512C455.725 1.512 455.948 1.54412 456.512 1.86998C457.024 2.16596 457.692 2.62756 458.524 3.27096L459.748 1.68904ZM455.728 -0.488001H452.416V1.512H455.728V-0.488001ZM452.416 -0.488001C452.107 -0.488001 451.837 -0.388589 451.633 -0.286427C451.421 -0.180654 451.217 -0.0397148 451.023 0.115131L452.273 1.67687C452.399 1.57571 452.483 1.52465 452.527 1.50243C452.548 1.49207 452.55 1.49321 452.535 1.49752C452.52 1.50182 452.478 1.512 452.416 1.512V-0.488001ZM451.034 0.106647C450.658 0.399259 450.31 0.77387 449.984 1.208L451.584 2.408C451.834 2.07413 452.062 1.84074 452.262 1.68535L451.034 0.106647ZM450.01 1.17476C449.68 1.57816 449.389 2.01575 449.136 2.4859L450.896 3.4341C451.091 3.07225 451.312 2.74184 451.558 2.44124L450.01 1.17476ZM449.122 2.51278C448.883 2.99039 448.728 3.49704 448.728 4.016H450.728C450.728 3.89496 450.765 3.69761 450.91 3.40721L449.122 2.51278ZM448.728 4.016V32H450.728V4.016H448.728ZM449.728 33H459.136V31H449.728V33ZM460.136 32V14.576H458.136V32H460.136ZM458.514 15.3588L477.954 30.8148L479.198 29.2492L459.758 13.7932L458.514 15.3588Z" fill="url(#paint0_linear_1003_340)"/>
<defs>
<linearGradient id="paint0_linear_1003_340" x1="244" y1="-11" x2="243.597" y2="40.0017" gradientUnits="userSpaceOnUse">
<stop offset="0.286458" stop-color="white"/>
<stop offset="1" stop-color="white" stop-opacity="0"/>
</linearGradient>
</defs>
</svg>
