<svg width="187" height="20" viewBox="0 0 187 20" fill="none" xmlns="http://www.w3.org/2000/svg">
<path d="M23.39 0.319999H5.12C4.46 0.319999 3.82 0.439999 3.2 0.679998C2.6 0.899999 2.07 1.22 1.61 1.64C1.15 2.06 0.78 2.57 0.5 3.17C0.22 3.75 0.0800001 4.41 0.0800001 5.15V15.17C0.0800001 15.91 0.22 16.58 0.5 17.18C0.78 17.76 1.15 18.26 1.61 18.68C2.07 19.1 2.6 19.43 3.2 19.67C3.82 19.89 4.46 20 5.12 20H23.39V14.21H7.07C6.79 14.21 6.53 14.12 6.29 13.94C6.07 13.76 5.96 13.57 5.96 13.37V6.95C5.96 6.75 6.07 6.56 6.29 6.38C6.53 6.2 6.79 6.11 7.07 6.11H23.39V0.319999ZM42.399 20H49.899L44.109 14.51C44.809 14.51 45.479 14.4 46.119 14.18C46.779 13.94 47.349 13.61 47.829 13.19C48.329 12.77 48.719 12.27 48.999 11.69C49.299 11.09 49.449 10.42 49.449 9.68V5.15C49.449 4.41 49.309 3.75 49.029 3.17C48.749 2.57 48.379 2.06 47.919 1.64C47.459 1.22 46.919 0.899999 46.299 0.679998C45.699 0.439999 45.069 0.319999 44.409 0.319999H25.539V20H31.389V14.51H36.429L42.399 20ZM42.579 6.11C42.819 6.15 43.029 6.25 43.209 6.41C43.409 6.57 43.529 6.73 43.569 6.89V7.85C43.569 8.03 43.459 8.21 43.239 8.39C43.039 8.55 42.819 8.65 42.579 8.69H31.389V6.11H42.579ZM71.5632 7.31H57.4932V6.11H74.9232V0.319999H51.6132V20H74.9232V14.21H57.4932V13.01H71.5632V7.31ZM91.2022 7.52L83.7922 20H76.7722L87.8122 1.55C88.3522 1.01 88.9322 0.669999 89.5522 0.529999C90.1722 0.389999 90.7222 0.319999 91.2022 0.319999C91.6822 0.319999 92.2322 0.389999 92.8522 0.529999C93.4722 0.669999 94.0522 1.01 94.5922 1.55L105.632 20H98.6122L91.2022 7.52ZM110.533 6.11H101.623V0.319999H125.293V6.11H116.383V20H110.533V6.11ZM127.493 20H133.373V0.319999H127.493V20ZM135.549 5.15V15.17C135.549 15.91 135.689 16.58 135.969 17.18C136.249 17.76 136.619 18.26 137.079 18.68C137.539 19.1 138.069 19.43 138.669 19.67C139.289 19.89 139.929 20 140.589 20H154.989C155.649 20 156.279 19.89 156.879 19.67C157.499 19.43 158.039 19.1 158.499 18.68C158.959 18.26 159.329 17.76 159.609 17.18C159.889 16.58 160.029 15.91 160.029 15.17V5.15C160.029 4.41 159.889 3.75 159.609 3.17C159.329 2.57 158.959 2.06 158.499 1.64C158.039 1.22 157.499 0.899999 156.879 0.679998C156.279 0.439999 155.649 0.319999 154.989 0.319999H140.589C139.929 0.319999 139.289 0.439999 138.669 0.679998C138.069 0.899999 137.539 1.22 137.079 1.64C136.619 2.06 136.249 2.57 135.969 3.17C135.689 3.75 135.549 4.41 135.549 5.15ZM142.419 6.11H153.159C153.399 6.15 153.609 6.25 153.789 6.41C153.989 6.57 154.109 6.73 154.149 6.89V13.37C154.149 13.55 154.039 13.73 153.819 13.91C153.619 14.07 153.399 14.17 153.159 14.21H142.419C142.179 14.17 141.949 14.07 141.729 13.91C141.529 13.73 141.429 13.55 141.429 13.37V6.89C141.469 6.73 141.579 6.57 141.759 6.41C141.959 6.25 142.179 6.15 142.419 6.11ZM168.06 9.11V20H162.18V2.51C162.18 2.31 162.24 2.09 162.36 1.85C162.5 1.59 162.66 1.35 162.84 1.13C163.02 0.889999 163.2 0.699999 163.38 0.56C163.58 0.4 163.74 0.319999 163.86 0.319999H165.93C166.29 0.319999 167 0.73 168.06 1.55L180.21 11.27V0.319999H186.09V17.81C186.09 17.97 186.02 18.18 185.88 18.44C185.76 18.68 185.61 18.92 185.43 19.16C185.25 19.38 185.06 19.58 184.86 19.76C184.68 19.92 184.53 20 184.41 20H182.34C182.14 20 181.86 19.91 181.5 19.73C181.16 19.53 180.73 19.21 180.21 18.77L168.06 9.11Z" fill="white"/>
</svg>
