<svg width="50" height="21" viewBox="0 0 50 21" fill="none" xmlns="http://www.w3.org/2000/svg">
<g clip-path="url(#clip0_1201_354)">
<path fill-rule="evenodd" clip-rule="evenodd" d="M25.5359 5.87353C27.807 7.82587 30.1976 9.4993 32.7476 10.8141C30.1577 12.0891 27.7273 13.643 25.3765 15.5157C23.1054 13.5633 20.7148 11.9298 18.1648 10.5751C20.7546 9.33992 23.2249 7.74618 25.5359 5.87353Z" fill="url(#paint0_radial_1201_354)"/>
<path fill-rule="evenodd" clip-rule="evenodd" d="M25.3767 15.5156C27.7275 13.643 30.1579 12.0891 32.7477 10.8141L50 11.093C40.3977 10.9336 32.1899 14.2406 25.297 20.8945L25.3767 15.5156Z" fill="url(#paint1_linear_1201_354)"/>
<path fill-rule="evenodd" clip-rule="evenodd" d="M32.7477 10.8137C30.1978 9.45906 27.8071 7.82548 25.5361 5.87314L25.6157 0.494262C32.3095 7.3872 40.3977 10.9333 50 11.0926L32.7477 10.8137Z" fill="url(#paint2_linear_1201_354)"/>
<path fill-rule="evenodd" clip-rule="evenodd" d="M25.5355 5.87314C23.2246 7.74579 20.7543 9.33953 18.1645 10.5747L0.912229 10.2958C10.5145 10.4552 18.7223 7.14814 25.6152 0.494263L25.5355 5.87314Z" fill="url(#paint3_linear_1201_354)"/>
<path fill-rule="evenodd" clip-rule="evenodd" d="M18.1643 10.5746C20.7143 11.9292 23.1049 13.5628 25.376 15.5152L25.2963 20.894C18.6026 14.0011 10.5143 10.455 0.912033 10.2957L18.1643 10.5746Z" fill="url(#paint4_linear_1201_354)"/>
</g>
<defs>
<radialGradient id="paint0_radial_1201_354" cx="0" cy="0" r="1" gradientUnits="userSpaceOnUse" gradientTransform="translate(31.7555 8.17729) rotate(90) scale(18.8791)">
<stop stop-color="#4DCCA9"/>
<stop offset="1" stop-color="#1D7956"/>
</radialGradient>
<linearGradient id="paint1_linear_1201_354" x1="37.6473" y1="10.8129" x2="37.6473" y2="20.8989" gradientUnits="userSpaceOnUse">
<stop stop-color="#4DA885"/>
<stop offset="1" stop-color="#005E3B"/>
</linearGradient>
<linearGradient id="paint2_linear_1201_354" x1="37.7668" y1="0.494262" x2="37.7668" y2="11.0859" gradientUnits="userSpaceOnUse">
<stop stop-color="#4DA885"/>
<stop offset="1" stop-color="#4DFCD9"/>
</linearGradient>
<linearGradient id="paint3_linear_1201_354" x1="13.2657" y1="0.494262" x2="13.2657" y2="10.5803" gradientUnits="userSpaceOnUse">
<stop stop-color="#4DA885"/>
<stop offset="1" stop-color="#005E3B"/>
</linearGradient>
<linearGradient id="paint4_linear_1201_354" x1="13.1464" y1="10.3072" x2="13.1464" y2="20.8984" gradientUnits="userSpaceOnUse">
<stop stop-color="#4DA885"/>
<stop offset="1" stop-color="#4DFCD9"/>
</linearGradient>
<clipPath id="clip0_1201_354">
<rect width="20.3999" height="49.0873" fill="white" transform="translate(50 0.494263) rotate(90)"/>
</clipPath>
</defs>
</svg>
