<svg width="36" height="36" viewBox="0 0 36 36" fill="none" xmlns="http://www.w3.org/2000/svg">
<path d="M32 9C32 11.7614 29.7614 14 27 14C24.2386 14 22 11.7614 22 9C22 6.23858 24.2386 4 27 4C29.7614 4 32 6.23858 32 9Z" stroke="#6688FF" stroke-width="2"/>
<path d="M14 9C14 11.7614 11.7614 14 9 14C6.23858 14 4 11.7614 4 9C4 6.23858 6.23858 4 9 4C11.7614 4 14 6.23858 14 9Z" stroke="#6688FF" stroke-width="2"/>
<path d="M32 27C32 29.7614 29.7614 32 27 32C24.2386 32 22 29.7614 22 27C22 24.2386 24.2386 22 27 22C29.7614 22 32 24.2386 32 27Z" stroke="#6688FF" stroke-width="2"/>
<path d="M14 27C14 29.7614 11.7614 32 9 32C6.23858 32 4 29.7614 4 27C4 24.2386 6.23858 22 9 22C11.7614 22 14 24.2386 14 27Z" stroke="#6688FF" stroke-width="2"/>
</svg>
