<svg width="36" height="36" viewBox="0 0 36 36" fill="none" xmlns="http://www.w3.org/2000/svg">
<path d="M27 15C30.3137 15 33 12.3137 33 9C33 5.68629 30.3137 3 27 3C23.6863 3 21 5.68629 21 9C21 12.3137 23.6863 15 27 15Z" fill="#6688FF"/>
<path d="M9 15C12.3137 15 15 12.3137 15 9C15 5.68629 12.3137 3 9 3C5.68629 3 3 5.68629 3 9C3 12.3137 5.68629 15 9 15Z" fill="#6688FF"/>
<path d="M27 33C30.3137 33 33 30.3137 33 27C33 23.6863 30.3137 21 27 21C23.6863 21 21 23.6863 21 27C21 30.3137 23.6863 33 27 33Z" fill="#6688FF"/>
<path d="M9 33C12.3137 33 15 30.3137 15 27C15 23.6863 12.3137 21 9 21C5.68629 21 3 23.6863 3 27C3 30.3137 5.68629 33 9 33Z" fill="#6688FF"/>
</svg>
