<svg width="156" height="16" viewBox="0 0 156 16" fill="none" xmlns="http://www.w3.org/2000/svg">
<path d="M0.864 16H-0.136V17H0.864V16ZM5.568 16V17H6.568V16H5.568ZM5.568 11.608V10.608H4.568V11.608H5.568ZM17.472 11.344L17.8163 12.2829L17.8247 12.2798L17.833 12.2766L17.472 11.344ZM19.656 9.352L20.5566 9.78679L20.5622 9.77489L19.656 9.352ZM19.656 2.536L18.7497 2.95892L18.7554 2.97075L19.656 2.536ZM18.768 1.312L19.4423 0.573514L19.4423 0.573513L18.768 1.312ZM17.472 0.543999L17.1006 1.47248L17.119 1.47982L17.1376 1.48643L17.472 0.543999ZM0.864 0.256V-0.744H-0.136V0.256H0.864ZM14.496 4.888L14.6604 3.90161L14.5788 3.888H14.496V4.888ZM15 5.128L14.3356 5.87541L14.355 5.89265L14.3753 5.90887L15 5.128ZM15.288 5.512H16.288V5.3889L16.2581 5.26947L15.288 5.512ZM15.024 6.712L15.6487 7.49291L15.6572 7.48596L15.024 6.712ZM14.496 6.952V7.952H14.5788L14.6604 7.93839L14.496 6.952ZM5.568 6.952H4.568V7.952H5.568V6.952ZM5.568 4.888V3.888H4.568V4.888H5.568ZM0.864 17H5.568V15H0.864V17ZM6.568 16V11.608H4.568V16H6.568ZM5.568 12.608H15.96V10.608H5.568V12.608ZM15.96 12.608C16.6015 12.608 17.2224 12.5006 17.8163 12.2829L17.1277 10.4051C16.7616 10.5394 16.3745 10.608 15.96 10.608V12.608ZM17.833 12.2766C18.4367 12.0429 18.9768 11.7155 19.4423 11.2905L18.0937 9.81351C17.8232 10.0605 17.4993 10.2611 17.111 10.4114L17.833 12.2766ZM19.4423 11.2905C19.9076 10.8657 20.2791 10.3615 20.5566 9.78675L18.7554 8.91725C18.5849 9.27048 18.3644 9.56634 18.0937 9.81351L19.4423 11.2905ZM20.5622 9.77489C20.8549 9.14764 20.992 8.46483 20.992 7.744H18.992C18.992 8.20717 18.9051 8.59636 18.7498 8.92912L20.5622 9.77489ZM20.992 7.744V4.12H18.992V7.744H20.992ZM20.992 4.12C20.992 3.39988 20.8551 2.71969 20.5566 2.10125L18.7554 2.97075C18.9049 3.28031 18.992 3.65612 18.992 4.12H20.992ZM20.5622 2.11311C20.286 1.52128 19.9136 1.0039 19.4423 0.573514L18.0937 2.05048C18.3584 2.2921 18.578 2.59072 18.7498 2.95888L20.5622 2.11311ZM19.4423 0.573513C18.9703 0.142543 18.421 -0.18035 17.8064 -0.398429L17.1376 1.48643C17.515 1.62035 17.8297 1.80946 18.0937 2.05048L19.4423 0.573513ZM17.8434 -0.384479C17.2427 -0.624745 16.6124 -0.744 15.96 -0.744V1.256C16.3636 1.256 16.7413 1.32874 17.1006 1.47248L17.8434 -0.384479ZM15.96 -0.744H0.864V1.256H15.96V-0.744ZM-0.136 0.256V16H1.864V0.256H-0.136ZM14.3316 5.87439C14.3362 5.87515 14.3383 5.87581 14.3384 5.87586C14.3386 5.87589 14.3376 5.8756 14.3361 5.87486C14.3345 5.87412 14.3333 5.87341 14.3328 5.87305C14.3323 5.87271 14.3332 5.87328 14.3356 5.87541L15.6644 4.38059C15.378 4.12606 15.0362 3.96424 14.6604 3.90161L14.3316 5.87439ZM14.3753 5.90887C14.4069 5.93413 14.4064 5.9392 14.392 5.92C14.3766 5.89951 14.3403 5.84422 14.3179 5.75453L16.2581 5.26947C16.1508 4.84025 15.8669 4.54088 15.6247 4.34713L14.3753 5.90887ZM14.288 5.512V6.28H16.288V5.512H14.288ZM14.288 6.28C14.288 6.13837 14.3335 6.0322 14.3687 5.97455C14.3998 5.92375 14.42 5.91412 14.3908 5.93804L15.6572 7.48596C15.931 7.26196 16.288 6.86258 16.288 6.28H14.288ZM14.3993 5.93113C14.3654 5.95827 14.3462 5.96318 14.3316 5.96561L14.6604 7.93839C15.0298 7.87682 15.3626 7.72173 15.6487 7.49287L14.3993 5.93113ZM14.496 5.952H5.568V7.952H14.496V5.952ZM6.568 6.952V4.888H4.568V6.952H6.568ZM5.568 5.888H14.496V3.888H5.568V5.888ZM40.8514 16V17H41.8514V16H40.8514ZM36.1474 16H35.1474V17H36.1474V16ZM36.1474 10.48H37.1474V9.48H36.1474V10.48ZM26.4274 10.48V9.48H25.4274V10.48H26.4274ZM26.4274 16V17H27.4274V16H26.4274ZM21.7234 16H20.7234V17H21.7234V16ZM21.7234 0.256V-0.744H20.7234V0.256H21.7234ZM26.4274 0.256H27.4274V-0.744H26.4274V0.256ZM26.4274 5.824H25.4274V6.824H26.4274V5.824ZM36.1474 5.824V6.824H37.1474V5.824H36.1474ZM36.1474 0.256V-0.744H35.1474V0.256H36.1474ZM40.8514 0.256H41.8514V-0.744H40.8514V0.256ZM40.8514 15H36.1474V17H40.8514V15ZM37.1474 16V10.48H35.1474V16H37.1474ZM36.1474 9.48H26.4274V11.48H36.1474V9.48ZM25.4274 10.48V16H27.4274V10.48H25.4274ZM26.4274 15H21.7234V17H26.4274V15ZM22.7234 16V0.256H20.7234V16H22.7234ZM21.7234 1.256H26.4274V-0.744H21.7234V1.256ZM25.4274 0.256V5.824H27.4274V0.256H25.4274ZM26.4274 6.824H36.1474V4.824H26.4274V6.824ZM37.1474 5.824V0.256H35.1474V5.824H37.1474ZM36.1474 1.256H40.8514V-0.744H36.1474V1.256ZM39.8514 0.256V16H41.8514V0.256H39.8514ZM56.0708 16L55.3939 16.7361L55.6809 17H56.0708V16ZM62.0708 16V17H64.5788L62.7588 15.2743L62.0708 16ZM57.4388 11.608V10.608H54.9307L56.7507 12.3337L57.4388 11.608ZM59.0468 11.344L59.3718 12.2897L59.3802 12.2868L59.3885 12.2838L59.0468 11.344ZM60.4147 10.552L59.7716 9.78629L59.7638 9.79278L59.7562 9.79942L60.4147 10.552ZM61.3507 9.352L60.4562 8.90474L60.4502 8.91725L61.3507 9.352ZM61.3748 2.536L60.4685 2.95892L60.4742 2.97075L61.3748 2.536ZM60.4868 1.312L61.161 0.573514V0.573513L60.4868 1.312ZM59.1908 0.543999L58.8194 1.47248L58.8377 1.47982L58.8563 1.48643L59.1908 0.543999ZM42.5827 0.256V-0.744H41.5827V0.256H42.5827ZM42.5827 16H41.5827V17H42.5827V16ZM47.2627 16V17H48.2627V16H47.2627ZM47.2627 11.608V10.608H46.2627V11.608H47.2627ZM51.2948 11.608L51.9716 10.8719L51.6847 10.608H51.2948V11.608ZM56.2148 4.888L56.3792 3.90161L56.2975 3.888H56.2148V4.888ZM56.7188 5.128L56.0544 5.87541L56.0738 5.89265L56.0941 5.90887L56.7188 5.128ZM57.0068 5.512H58.0068V5.3889L57.9769 5.26947L57.0068 5.512ZM56.7428 6.712L57.3675 7.49291L57.376 7.48596L56.7428 6.712ZM56.2148 6.952V7.952H56.2975L56.3792 7.93839L56.2148 6.952ZM47.2627 6.952H46.2627V7.952H47.2627V6.952ZM47.2627 4.888V3.888H46.2627V4.888H47.2627ZM56.0708 17H62.0708V15H56.0708V17ZM62.7588 15.2743L58.1268 10.8823L56.7507 12.3337L61.3827 16.7257L62.7588 15.2743ZM57.4388 12.608C58.1055 12.608 58.7516 12.5029 59.3718 12.2897L58.7217 10.3983C58.3179 10.5371 57.892 10.608 57.4388 10.608V12.608ZM59.3885 12.2838C60.021 12.0538 60.5872 11.7299 61.0733 11.3046L59.7562 9.79942C59.4743 10.0461 59.1285 10.2502 58.705 10.4042L59.3885 12.2838ZM61.0579 11.3177C61.5646 10.8921 61.965 10.3798 62.2513 9.78675L60.4502 8.91725C60.2885 9.25218 60.0649 9.53989 59.7716 9.78629L61.0579 11.3177ZM62.2452 9.79922C62.5615 9.16652 62.7108 8.475 62.7108 7.744H60.7108C60.7108 8.197 60.62 8.57748 60.4563 8.90479L62.2452 9.79922ZM62.7108 7.744V4.12H60.7108V7.744H62.7108ZM62.7108 4.12C62.7108 3.39988 62.5739 2.71969 62.2753 2.10125L60.4742 2.97075C60.6236 3.28031 60.7108 3.65612 60.7108 4.12H62.7108ZM62.2809 2.11311C62.0047 1.52128 61.6324 1.0039 61.161 0.573514L59.8125 2.05048C60.0771 2.2921 60.2968 2.59072 60.4686 2.95888L62.2809 2.11311ZM61.161 0.573513C60.689 0.142543 60.1397 -0.18035 59.5252 -0.398429L58.8563 1.48643C59.2338 1.62035 59.5485 1.80946 59.8125 2.05048L61.161 0.573513ZM59.5621 -0.384479C58.9615 -0.624745 58.3312 -0.744 57.6787 -0.744V1.256C58.0823 1.256 58.46 1.32874 58.8194 1.47248L59.5621 -0.384479ZM57.6787 -0.744H42.5827V1.256H57.6787V-0.744ZM41.5827 0.256V16H43.5827V0.256H41.5827ZM42.5827 17H47.2627V15H42.5827V17ZM48.2627 16V11.608H46.2627V16H48.2627ZM47.2627 12.608H51.2948V10.608H47.2627V12.608ZM50.6179 12.3441L55.3939 16.7361L56.7476 15.2639L51.9716 10.8719L50.6179 12.3441ZM56.0504 5.87439C56.0549 5.87515 56.057 5.87581 56.0572 5.87586C56.0573 5.87589 56.0564 5.8756 56.0548 5.87486C56.0533 5.87412 56.0521 5.87341 56.0515 5.87305C56.051 5.87271 56.052 5.87328 56.0544 5.87541L57.3831 4.38059C57.0968 4.12606 56.755 3.96424 56.3792 3.90161L56.0504 5.87439ZM56.0941 5.90887C56.1256 5.93413 56.1252 5.9392 56.1108 5.92C56.0954 5.89951 56.059 5.84422 56.0366 5.75453L57.9769 5.26947C57.8696 4.84025 57.5856 4.54088 57.3434 4.34713L56.0941 5.90887ZM56.0068 5.512V6.28H58.0068V5.512H56.0068ZM56.0068 6.28C56.0068 6.13837 56.0522 6.0322 56.0875 5.97455C56.1185 5.92375 56.1387 5.91412 56.1095 5.93804L57.376 7.48596C57.6498 7.26196 58.0068 6.86258 58.0068 6.28H56.0068ZM56.1181 5.93113C56.0841 5.95827 56.0649 5.96318 56.0504 5.96561L56.3792 7.93839C56.7486 7.87682 57.0814 7.72173 57.3674 7.49287L56.1181 5.93113ZM56.2148 5.952H47.2627V7.952H56.2148V5.952ZM48.2627 6.952V4.888H46.2627V6.952H48.2627ZM47.2627 5.888H56.2148V3.888H47.2627V5.888ZM74.7461 6.016L75.606 5.50546L74.7461 4.05728L73.8863 5.50546L74.7461 6.016ZM68.8181 16V17H69.3874L69.678 16.5105L68.8181 16ZM63.2021 16L62.344 15.4865L61.4384 17H63.2021V16ZM72.0341 1.24L71.327 0.532893L71.2395 0.620371L71.176 0.72653L72.0341 1.24ZM73.4261 0.423999L73.2059 -0.551442L73.4261 0.423999ZM76.0661 0.423999L76.2864 -0.551442V-0.551443L76.0661 0.423999ZM77.4581 1.24L78.3162 0.72653L78.2527 0.620372L78.1652 0.532894L77.4581 1.24ZM86.2901 16V17H88.0539L87.1482 15.4865L86.2901 16ZM80.6741 16L79.8143 16.5105L80.1049 17H80.6741V16ZM73.8863 5.50546L67.9583 15.4895L69.678 16.5105L75.606 6.52654L73.8863 5.50546ZM68.8181 15H63.2021V17H68.8181V15ZM64.0602 16.5135L72.8922 1.75347L71.176 0.72653L62.344 15.4865L64.0602 16.5135ZM72.7412 1.94711C73.0667 1.62159 73.369 1.46208 73.6464 1.39944L73.2059 -0.551442C72.4913 -0.390084 71.8655 -0.00559521 71.327 0.532893L72.7412 1.94711ZM73.6464 1.39944C74.0919 1.29885 74.4556 1.256 74.7461 1.256V-0.744C74.2686 -0.744 73.7524 -0.674848 73.2059 -0.551442L73.6464 1.39944ZM74.7461 1.256C75.0366 1.256 75.4004 1.29885 75.8459 1.39944L76.2864 -0.551443C75.7399 -0.674848 75.2236 -0.744 74.7461 -0.744V1.256ZM75.8459 1.39944C76.1233 1.46208 76.4255 1.62159 76.751 1.94711L78.1652 0.532894C77.6267 -0.00559521 77.001 -0.390084 76.2864 -0.551442L75.8459 1.39944ZM76.6 1.75347L85.432 16.5135L87.1482 15.4865L78.3162 0.72653L76.6 1.75347ZM86.2901 15H80.6741V17H86.2901V15ZM81.534 15.4895L75.606 5.50546L73.8863 6.52654L79.8143 16.5105L81.534 15.4895ZM92.8822 5.848L92.6001 6.80737L92.7382 6.848H92.8822V5.848ZM92.4743 5.368L91.4804 5.25757L91.4743 5.31261V5.368H92.4743ZM92.5703 5.056L93.3702 5.656L93.4012 5.61473L93.4277 5.57049L92.5703 5.056ZM92.8822 4.888V3.888H92.7832L92.6861 3.90742L92.8822 4.888ZM106.418 4.888V5.888H107.418V4.888H106.418ZM106.418 0.256H107.418V-0.744H106.418V0.256ZM90.2663 0.543999L90.6105 1.48287L90.6189 1.4798L90.6272 1.47657L90.2663 0.543999ZM88.9942 1.312L88.32 0.573513L88.32 0.573514L88.9942 1.312ZM88.1062 2.536L89.0069 2.97079L89.0124 2.95888L88.1062 2.536ZM88.1062 8.152L87.2 8.57492L87.2057 8.58675L88.1062 8.152ZM90.2663 10.144L89.8949 11.0725L89.9132 11.0798L89.9318 11.0864L90.2663 10.144ZM101.306 10.408L101.588 9.44863L101.45 9.408H101.306V10.408ZM101.714 10.864L102.701 11.0284L102.714 10.9468V10.864H101.714ZM101.618 11.176L102.513 11.6232L102.526 11.5969L102.537 11.5699L101.618 11.176ZM101.306 11.368V12.368H101.405L101.502 12.3486L101.306 11.368ZM87.7702 11.368V10.368H86.7702V11.368H87.7702ZM87.7702 16H86.7702V17H87.7702V16ZM103.898 15.736L104.243 16.6749L104.251 16.6718L104.259 16.6686L103.898 15.736ZM106.082 13.744L106.983 14.1788L106.988 14.1669L106.082 13.744ZM106.082 8.128L105.176 8.55092L105.182 8.56275L106.082 8.128ZM103.898 6.136L103.527 7.06448L103.545 7.07182L103.564 7.07843L103.898 6.136ZM93.1644 4.88863C93.1516 4.88485 93.243 4.90833 93.3382 5.02035C93.4457 5.14679 93.4743 5.28668 93.4743 5.368H91.4743C91.4743 5.68932 91.5708 6.02921 91.8143 6.31565C92.0455 6.58767 92.341 6.73115 92.6001 6.80737L93.1644 4.88863ZM93.4681 5.47843C93.4713 5.44961 93.4734 5.45227 93.466 5.47609C93.4595 5.49727 93.4354 5.56919 93.3702 5.656L91.7702 4.456C91.5593 4.73723 91.5024 5.05935 91.4804 5.25757L93.4681 5.47843ZM93.4277 5.57049C93.3376 5.72075 93.2232 5.79957 93.1583 5.83447C93.097 5.86748 93.0613 5.87199 93.0784 5.86858L92.6861 3.90742C92.4442 3.95582 91.9833 4.09062 91.7128 4.5415L93.4277 5.57049ZM92.8822 5.888H106.418V3.888H92.8822V5.888ZM107.418 4.888V0.256H105.418V4.888H107.418ZM106.418 -0.744H91.8023V1.256H106.418V-0.744ZM91.8023 -0.744C91.1499 -0.744 90.5155 -0.624804 89.9053 -0.38857L90.6272 1.47657C91.009 1.3288 91.3986 1.256 91.8023 1.256V-0.744ZM89.922 -0.394877C89.3232 -0.175338 88.7864 0.147619 88.32 0.573513L89.6685 2.05048C89.9381 1.80438 90.2492 1.61534 90.6105 1.48287L89.922 -0.394877ZM88.32 0.573514C87.8486 1.0039 87.4763 1.52128 87.2001 2.11311L89.0124 2.95888C89.1842 2.59072 89.4039 2.2921 89.6685 2.05048L88.32 0.573514ZM87.2057 2.10125C86.9071 2.71969 86.7702 3.39988 86.7702 4.12H88.7702C88.7702 3.65612 88.8574 3.28031 89.0068 2.97075L87.2057 2.10125ZM86.7702 4.12V6.544H88.7702V4.12H86.7702ZM86.7702 6.544C86.7702 7.26483 86.9074 7.94764 87.2001 8.57488L89.0124 7.72911C88.8571 7.39635 88.7702 7.00717 88.7702 6.544H86.7702ZM87.2057 8.58675C87.4832 9.16151 87.8547 9.66566 88.32 10.0905L89.6685 8.61351C89.3978 8.36634 89.1773 8.07049 89.0068 7.71725L87.2057 8.58675ZM88.32 10.0905C88.78 10.5105 89.3075 10.8376 89.8949 11.0725L90.6376 9.21552C90.265 9.06645 89.9445 8.86548 89.6685 8.61351L88.32 10.0905ZM89.9318 11.0864C90.5356 11.3007 91.1607 11.408 91.8023 11.408V9.408C91.3878 9.408 90.9889 9.33935 90.6007 9.20157L89.9318 11.0864ZM91.8023 11.408H101.306V9.408H91.8023V11.408ZM101.024 11.3674C101.048 11.3745 100.963 11.3556 100.867 11.2488C100.817 11.1934 100.776 11.1255 100.748 11.0496C100.721 10.9753 100.714 10.9101 100.714 10.864H102.714C102.714 10.5321 102.606 10.1931 102.357 9.91521C102.126 9.65643 101.836 9.52151 101.588 9.44863L101.024 11.3674ZM100.728 10.6996C100.728 10.699 100.727 10.7055 100.722 10.7199C100.718 10.7343 100.711 10.7549 100.699 10.7821L102.537 11.5699C102.609 11.4019 102.669 11.2202 102.701 11.0284L100.728 10.6996ZM100.724 10.7288C100.794 10.5881 100.896 10.4962 100.98 10.4443C101.02 10.42 101.053 10.406 101.074 10.3982C101.095 10.3905 101.108 10.3878 101.11 10.3874L101.502 12.3486C101.804 12.2883 102.267 12.1148 102.513 11.6232L100.724 10.7288ZM101.306 10.368H87.7702V12.368H101.306V10.368ZM86.7702 11.368V16H88.7702V11.368H86.7702ZM87.7702 17H102.386V15H87.7702V17ZM102.386 17C103.028 17 103.649 16.8926 104.243 16.6749L103.554 14.7971C103.188 14.9314 102.801 15 102.386 15V17ZM104.259 16.6686C104.863 16.4349 105.403 16.1075 105.869 15.6825L104.52 14.2055C104.249 14.4525 103.926 14.6531 103.537 14.8034L104.259 16.6686ZM105.869 15.6825C106.334 15.2577 106.705 14.7535 106.983 14.1787L105.182 13.3093C105.011 13.6625 104.791 13.9583 104.52 14.2055L105.869 15.6825ZM106.988 14.1669C107.281 13.5396 107.418 12.8568 107.418 12.136H105.418C105.418 12.5992 105.331 12.9884 105.176 13.3211L106.988 14.1669ZM107.418 12.136V9.712H105.418V12.136H107.418ZM107.418 9.712C107.418 8.99188 107.281 8.31169 106.983 7.69325L105.182 8.56275C105.331 8.87231 105.418 9.24812 105.418 9.712H107.418ZM106.988 7.70511C106.712 7.11328 106.34 6.5959 105.869 6.16551L104.52 7.64249C104.785 7.8841 105.004 8.18272 105.176 8.55088L106.988 7.70511ZM105.869 6.16551C105.397 5.73454 104.847 5.41165 104.233 5.19357L103.564 7.07843C103.941 7.21235 104.256 7.40146 104.52 7.64249L105.869 6.16551ZM104.27 5.20752C103.669 4.96726 103.039 4.848 102.386 4.848V6.848C102.79 6.848 103.168 6.92074 103.527 7.06448L104.27 5.20752ZM102.386 4.848H92.8822V6.848H102.386V4.848ZM124.097 5.848H125.097V4.848H124.097V5.848ZM112.841 5.848H111.841V6.848H112.841V5.848ZM112.841 4.888V3.888H111.841V4.888H112.841ZM126.785 4.888V5.888H127.785V4.888H126.785ZM126.785 0.256H127.785V-0.744H126.785V0.256ZM108.137 0.256V-0.744H107.137V0.256H108.137ZM108.137 16H107.137V17H108.137V16ZM126.785 16V17H127.785V16H126.785ZM126.785 11.368H127.785V10.368H126.785V11.368ZM112.841 11.368H111.841V12.368H112.841V11.368ZM112.841 10.408V9.408H111.841V10.408H112.841ZM124.097 10.408V11.408H125.097V10.408H124.097ZM124.097 4.848H112.841V6.848H124.097V4.848ZM113.841 5.848V4.888H111.841V5.848H113.841ZM112.841 5.888H126.785V3.888H112.841V5.888ZM127.785 4.888V0.256H125.785V4.888H127.785ZM126.785 -0.744H108.137V1.256H126.785V-0.744ZM107.137 0.256V16H109.137V0.256H107.137ZM108.137 17H126.785V15H108.137V17ZM127.785 16V11.368H125.785V16H127.785ZM126.785 10.368H112.841V12.368H126.785V10.368ZM113.841 11.368V10.408H111.841V11.368H113.841ZM112.841 11.408H124.097V9.408H112.841V11.408ZM125.097 10.408V5.848H123.097V10.408H125.097ZM155.484 16V17H156.484V16H155.484ZM150.78 16H149.78V17H150.78V16ZM150.78 10.456H151.78V9.456H150.78V10.456ZM136.356 10.456H135.356V11.456H136.356V10.456ZM136.356 5.824L135.497 5.31278L135.356 5.54907V5.824H136.356ZM139.668 0.256V-0.744H139.099L138.809 -0.255224L139.668 0.256ZM145.116 0.256L145.976 0.766109L146.872 -0.744H145.116V0.256ZM141.828 5.8L140.968 5.28989L140.072 6.8H141.828V5.8ZM150.78 5.8V6.8H151.78V5.8H150.78ZM150.78 0.256V-0.744H149.78V0.256H150.78ZM155.484 0.256H156.484V-0.744H155.484V0.256ZM155.484 15H150.78V17H155.484V15ZM151.78 16V10.456H149.78V16H151.78ZM150.78 9.456H136.356V11.456H150.78V9.456ZM137.356 10.456V5.824H135.356V10.456H137.356ZM137.216 6.33522L140.528 0.767223L138.809 -0.255224L135.497 5.31278L137.216 6.33522ZM139.668 1.256H145.116V-0.744H139.668V1.256ZM144.256 -0.254109L140.968 5.28989L142.688 6.31011L145.976 0.766109L144.256 -0.254109ZM141.828 6.8H150.78V4.8H141.828V6.8ZM151.78 5.8V0.256H149.78V5.8H151.78ZM150.78 1.256H155.484V-0.744H150.78V1.256ZM154.484 0.256V16H156.484V0.256H154.484Z" fill="url(#paint0_linear_1019_847)"/>
<defs>
<linearGradient id="paint0_linear_1019_847" x1="78.5" y1="-8" x2="78.5" y2="27.6667" gradientUnits="userSpaceOnUse">
<stop stop-color="#A8BBFF"/>
<stop offset="1" stop-color="#0012B7" stop-opacity="0.88"/>
</linearGradient>
</defs>
</svg>
