<svg width="249" height="54" viewBox="0 0 249 54" fill="none" xmlns="http://www.w3.org/2000/svg">
<path d="M6.47 7.31C6.13 7.21 5.96 7.01 5.96 6.71C5.98 6.53 6.02 6.4 6.08 6.32C6.14 6.22 6.27 6.15 6.47 6.11H23.39V0.319999H5.12C4.46 0.319999 3.82 0.439999 3.2 0.679998C2.6 0.899999 2.07 1.22 1.61 1.64C1.15 2.06 0.78 2.57 0.5 3.17C0.22 3.75 0.0800001 4.41 0.0800001 5.15V8.18C0.0800001 8.92 0.22 9.59 0.5 10.19C0.78 10.77 1.15 11.27 1.61 11.69C2.07 12.11 2.6 12.44 3.2 12.68C3.82 12.9 4.46 13.01 5.12 13.01H17C17.34 13.11 17.51 13.3 17.51 13.58C17.49 13.7 17.45 13.83 17.39 13.97C17.33 14.09 17.2 14.17 17 14.21H0.0800001V20H18.35C19.01 20 19.64 19.89 20.24 19.67C20.86 19.43 21.4 19.1 21.86 18.68C22.32 18.26 22.69 17.76 22.97 17.18C23.25 16.58 23.39 15.91 23.39 15.17V12.14C23.39 11.4 23.25 10.74 22.97 10.16C22.69 9.56 22.32 9.05 21.86 8.63C21.4 8.21 20.86 7.89 20.24 7.67C19.64 7.43 19.01 7.31 18.35 7.31H6.47ZM34.449 6.11H25.539V0.319999H49.209V6.11H40.299V20H34.449V6.11ZM59.6495 7.52L52.2395 20H45.2195L56.2595 1.55C56.7995 1.01 57.3795 0.669999 57.9995 0.529999C58.6195 0.389999 59.1695 0.319999 59.6495 0.319999C60.1295 0.319999 60.6795 0.389999 61.2995 0.529999C61.9195 0.669999 62.4995 1.01 63.0395 1.55L74.0795 20H67.0595L59.6495 7.52ZM90.0296 10.16L100.44 20H92.7596L85.1096 13.07H81.7796V20H75.9296V0.319999H81.7796V7.25H85.1096L92.7596 0.319999H100.44L90.0296 10.16ZM102.327 20H108.207V0.319999H102.327V20ZM116.263 9.11V20H110.383V2.51C110.383 2.31 110.443 2.09 110.563 1.85C110.703 1.59 110.863 1.35 111.043 1.13C111.223 0.889999 111.403 0.699999 111.583 0.56C111.783 0.4 111.943 0.319999 112.063 0.319999H114.133C114.493 0.319999 115.203 0.73 116.263 1.55L128.413 11.27V0.319999H134.293V17.81C134.293 17.97 134.223 18.18 134.083 18.44C133.963 18.68 133.813 18.92 133.633 19.16C133.453 19.38 133.263 19.58 133.063 19.76C132.883 19.92 132.733 20 132.613 20H130.543C130.343 20 130.063 19.91 129.703 19.73C129.363 19.53 128.933 19.21 128.413 18.77L116.263 9.11ZM159.767 0.319999V6.11H143.447C143.167 6.11 142.907 6.2 142.667 6.38C142.447 6.56 142.337 6.75 142.337 6.95V13.37C142.337 13.57 142.447 13.76 142.667 13.94C142.907 14.12 143.167 14.21 143.447 14.21H153.887V8.72H159.767V20H141.497C140.837 20 140.197 19.89 139.577 19.67C138.977 19.43 138.447 19.1 137.987 18.68C137.527 18.26 137.157 17.76 136.877 17.18C136.597 16.58 136.457 15.91 136.457 15.17V5.15C136.457 4.41 136.597 3.75 136.877 3.17C137.157 2.57 137.527 2.06 137.987 1.64C138.447 1.22 138.977 0.899999 139.577 0.679998C140.197 0.439999 140.837 0.319999 141.497 0.319999H159.767ZM191.68 7.28H177.61V6.11H195.04V0.319999H171.73V20H177.61V13.07H191.68V7.28ZM197.189 5.15V15.17C197.189 15.91 197.329 16.58 197.609 17.18C197.889 17.76 198.259 18.26 198.719 18.68C199.179 19.1 199.709 19.43 200.309 19.67C200.929 19.89 201.569 20 202.229 20H216.629C217.289 20 217.919 19.89 218.519 19.67C219.139 19.43 219.679 19.1 220.139 18.68C220.599 18.26 220.969 17.76 221.249 17.18C221.529 16.58 221.669 15.91 221.669 15.17V5.15C221.669 4.41 221.529 3.75 221.249 3.17C220.969 2.57 220.599 2.06 220.139 1.64C219.679 1.22 219.139 0.899999 218.519 0.679998C217.919 0.439999 217.289 0.319999 216.629 0.319999H202.229C201.569 0.319999 200.929 0.439999 200.309 0.679998C199.709 0.899999 199.179 1.22 198.719 1.64C198.259 2.06 197.889 2.57 197.609 3.17C197.329 3.75 197.189 4.41 197.189 5.15ZM204.059 6.11H214.799C215.039 6.15 215.249 6.25 215.429 6.41C215.629 6.57 215.749 6.73 215.789 6.89V13.37C215.789 13.55 215.679 13.73 215.459 13.91C215.259 14.07 215.039 14.17 214.799 14.21H204.059C203.819 14.17 203.589 14.07 203.369 13.91C203.169 13.73 203.069 13.55 203.069 13.37V6.89C203.109 6.73 203.219 6.57 203.399 6.41C203.599 6.25 203.819 6.15 204.059 6.11ZM240.68 20H248.18L242.39 14.51C243.09 14.51 243.76 14.4 244.4 14.18C245.06 13.94 245.63 13.61 246.11 13.19C246.61 12.77 247 12.27 247.28 11.69C247.58 11.09 247.73 10.42 247.73 9.68V5.15C247.73 4.41 247.59 3.75 247.31 3.17C247.03 2.57 246.66 2.06 246.2 1.64C245.74 1.22 245.2 0.899999 244.58 0.679998C243.98 0.439999 243.35 0.319999 242.69 0.319999H223.82V20H229.67V14.51H234.71L240.68 20ZM240.86 6.11C241.1 6.15 241.31 6.25 241.49 6.41C241.69 6.57 241.81 6.73 241.85 6.89V7.85C241.85 8.03 241.74 8.21 241.52 8.39C241.32 8.55 241.1 8.65 240.86 8.69H229.67V6.11H240.86ZM8.78 53.27V50H0.0800001V44.21H8.78V43.01H5.12C4.46 43.01 3.82 42.9 3.2 42.68C2.6 42.44 2.07 42.11 1.61 41.69C1.15 41.27 0.78 40.77 0.5 40.19C0.22 39.59 0.0800001 38.92 0.0800001 38.18V35.15C0.0800001 34.41 0.22 33.75 0.5 33.17C0.78 32.57 1.15 32.06 1.61 31.64C2.07 31.22 2.6 30.9 3.2 30.68C3.82 30.44 4.46 30.32 5.12 30.32H8.78V27.05H14.66V30.32H23.39V36.11H14.66V37.31H18.35C19.01 37.31 19.64 37.43 20.24 37.67C20.86 37.89 21.4 38.21 21.86 38.63C22.32 39.05 22.69 39.56 22.97 40.16C23.25 40.74 23.39 41.4 23.39 42.14V45.17C23.39 45.91 23.25 46.58 22.97 47.18C22.69 47.76 22.32 48.26 21.86 48.68C21.4 49.1 20.86 49.43 20.24 49.67C19.64 49.89 19.01 50 18.35 50H14.66V53.27H8.78ZM14.66 43.01V44.21H17C17.2 44.17 17.33 44.09 17.39 43.97C17.45 43.83 17.49 43.7 17.51 43.58C17.51 43.3 17.34 43.11 17 43.01H14.66ZM6.47 37.31H8.78V36.11H6.47C6.27 36.15 6.14 36.22 6.08 36.32C6.02 36.42 5.98 36.56 5.96 36.74C5.96 37.02 6.13 37.21 6.47 37.31ZM31.929 37.31C31.589 37.21 31.419 37.01 31.419 36.71C31.439 36.53 31.479 36.4 31.539 36.32C31.599 36.22 31.729 36.15 31.929 36.11H48.849V30.32H30.579C29.919 30.32 29.279 30.44 28.659 30.68C28.059 30.9 27.529 31.22 27.069 31.64C26.609 32.06 26.239 32.57 25.959 33.17C25.679 33.75 25.539 34.41 25.539 35.15V38.18C25.539 38.92 25.679 39.59 25.959 40.19C26.239 40.77 26.609 41.27 27.069 41.69C27.529 42.11 28.059 42.44 28.659 42.68C29.279 42.9 29.919 43.01 30.579 43.01H42.459C42.799 43.11 42.969 43.3 42.969 43.58C42.949 43.7 42.909 43.83 42.849 43.97C42.789 44.09 42.659 44.17 42.459 44.21H25.539V50H43.809C44.469 50 45.099 49.89 45.699 49.67C46.319 49.43 46.859 49.1 47.319 48.68C47.779 48.26 48.149 47.76 48.429 47.18C48.709 46.58 48.849 45.91 48.849 45.17V42.14C48.849 41.4 48.709 40.74 48.429 40.16C48.149 39.56 47.779 39.05 47.319 38.63C46.859 38.21 46.319 37.89 45.699 37.67C45.099 37.43 44.469 37.31 43.809 37.31H31.929ZM59.908 36.11H50.998V30.32H74.668V36.11H65.758V50H59.908V36.11ZM92.5184 50H99.5384L88.4984 31.55C87.9584 31.01 87.3784 30.67 86.7584 30.53C86.1384 30.39 85.5884 30.32 85.1084 30.32C84.6284 30.32 84.0784 30.39 83.4584 30.53C82.8384 30.67 82.2584 31.01 81.7184 31.55L70.6784 50H77.6984L79.1984 47.48H90.9884L92.5184 50ZM85.1084 37.52L87.6584 41.84H82.5284L85.1084 37.52ZM118.249 50H125.749L119.959 44.51C120.659 44.51 121.329 44.4 121.969 44.18C122.629 43.94 123.199 43.61 123.679 43.19C124.179 42.77 124.569 42.27 124.849 41.69C125.149 41.09 125.299 40.42 125.299 39.68V35.15C125.299 34.41 125.159 33.75 124.879 33.17C124.599 32.57 124.229 32.06 123.769 31.64C123.309 31.22 122.769 30.9 122.149 30.68C121.549 30.44 120.919 30.32 120.259 30.32H101.389V50H107.239V44.51H112.279L118.249 50ZM118.429 36.11C118.669 36.15 118.879 36.25 119.059 36.41C119.259 36.57 119.379 36.73 119.419 36.89V37.85C119.419 38.03 119.309 38.21 119.089 38.39C118.889 38.55 118.669 38.65 118.429 38.69H107.239V36.11H118.429ZM140.685 42.83L133.245 30.32H126.255L137.295 48.77C137.555 49.05 137.835 49.27 138.135 49.43C138.435 49.59 138.735 49.72 139.035 49.82C139.335 49.9 139.625 49.95 139.905 49.97C140.185 49.99 140.445 50 140.685 50C140.925 50 141.185 49.99 141.465 49.97C141.745 49.95 142.035 49.9 142.335 49.82C142.635 49.72 142.935 49.59 143.235 49.43C143.535 49.27 143.815 49.05 144.075 48.77L155.115 30.32H148.125L140.685 42.83Z" fill="white"/>
</svg>
