<svg width="321" height="50" viewBox="0 0 321 50" fill="none" xmlns="http://www.w3.org/2000/svg">
<path d="M6.47 7.31C6.13 7.21 5.96 7.01 5.96 6.71C5.98 6.53 6.02 6.4 6.08 6.32C6.14 6.22 6.27 6.15 6.47 6.11H23.39V0.319999H5.12C4.46 0.319999 3.82 0.439999 3.2 0.679998C2.6 0.899999 2.07 1.22 1.61 1.64C1.15 2.06 0.78 2.57 0.5 3.17C0.22 3.75 0.0800001 4.41 0.0800001 5.15V8.18C0.0800001 8.92 0.22 9.59 0.5 10.19C0.78 10.77 1.15 11.27 1.61 11.69C2.07 12.11 2.6 12.44 3.2 12.68C3.82 12.9 4.46 13.01 5.12 13.01H17C17.34 13.11 17.51 13.3 17.51 13.58C17.49 13.7 17.45 13.83 17.39 13.97C17.33 14.09 17.2 14.17 17 14.21H0.0800001V20H18.35C19.01 20 19.64 19.89 20.24 19.67C20.86 19.43 21.4 19.1 21.86 18.68C22.32 18.26 22.69 17.76 22.97 17.18C23.25 16.58 23.39 15.91 23.39 15.17V12.14C23.39 11.4 23.25 10.74 22.97 10.16C22.69 9.56 22.32 9.05 21.86 8.63C21.4 8.21 20.86 7.89 20.24 7.67C19.64 7.43 19.01 7.31 18.35 7.31H6.47ZM33.449 6.11H24.539V0.319999H48.209V6.11H39.299V20H33.449V6.11ZM57.6495 7.52L50.2395 20H43.2195L54.2595 1.55C54.7995 1.01 55.3795 0.669999 55.9995 0.529999C56.6195 0.389999 57.1695 0.319999 57.6495 0.319999C58.1295 0.319999 58.6795 0.389999 59.2995 0.529999C59.9195 0.669999 60.4995 1.01 61.0395 1.55L72.0795 20H65.0595L57.6495 7.52ZM89.7896 20H97.2896L91.4996 14.51C92.1996 14.51 92.8696 14.4 93.5096 14.18C94.1696 13.94 94.7396 13.61 95.2196 13.19C95.7196 12.77 96.1096 12.27 96.3896 11.69C96.6896 11.09 96.8396 10.42 96.8396 9.68V5.15C96.8396 4.41 96.6996 3.75 96.4196 3.17C96.1396 2.57 95.7696 2.06 95.3096 1.64C94.8496 1.22 94.3096 0.899999 93.6896 0.679998C93.0896 0.439999 92.4596 0.319999 91.7996 0.319999H72.9296V20H78.7796V14.51H83.8196L89.7896 20ZM89.9696 6.11C90.2096 6.15 90.4196 6.25 90.5996 6.41C90.7996 6.57 90.9196 6.73 90.9596 6.89V7.85C90.9596 8.03 90.8496 8.21 90.6296 8.39C90.4296 8.55 90.2096 8.65 89.9696 8.69H78.7796V6.11H89.9696ZM120.948 12.83L113.508 0.319999H106.518L117.558 18.77C117.818 19.05 118.098 19.27 118.398 19.43C118.698 19.59 118.998 19.72 119.298 19.82C119.598 19.9 119.888 19.95 120.168 19.97C120.448 19.99 120.708 20 120.948 20C121.188 20 121.448 19.99 121.728 19.97C122.008 19.95 122.298 19.9 122.598 19.82C122.898 19.72 123.198 19.59 123.498 19.43C123.798 19.27 124.078 19.05 124.338 18.77L135.378 0.319999H128.388L120.948 12.83ZM156.178 7.31H142.108V6.11H159.538V0.319999H136.228V20H159.538V14.21H142.108V13.01H156.178V7.31ZM166.567 9.11V20H160.687V2.51C160.687 2.31 160.747 2.09 160.867 1.85C161.007 1.59 161.167 1.35 161.347 1.13C161.527 0.889999 161.707 0.699999 161.887 0.56C162.087 0.4 162.247 0.319999 162.367 0.319999H164.437C164.797 0.319999 165.507 0.73 166.567 1.55L178.717 11.27V0.319999H184.597V17.81C184.597 17.97 184.527 18.18 184.387 18.44C184.267 18.68 184.117 18.92 183.937 19.16C183.757 19.38 183.567 19.58 183.367 19.76C183.187 19.92 183.037 20 182.917 20H180.847C180.647 20 180.367 19.91 180.007 19.73C179.667 19.53 179.237 19.21 178.717 18.77L166.567 9.11ZM194.672 6.11H185.762V0.319999H209.432V6.11H200.522V20H194.672V6.11ZM216.481 0.319999V13.37C216.481 13.55 216.581 13.73 216.781 13.91C217.001 14.07 217.231 14.17 217.471 14.21H227.641C227.861 14.17 228.071 14.08 228.271 13.94C228.471 13.78 228.591 13.61 228.631 13.43V0.319999H234.511V15.17C234.511 15.91 234.371 16.58 234.091 17.18C233.811 17.76 233.441 18.26 232.981 18.68C232.521 19.1 231.981 19.43 231.361 19.67C230.761 19.89 230.131 20 229.471 20H215.641C214.981 20 214.341 19.89 213.721 19.67C213.121 19.43 212.591 19.1 212.131 18.68C211.671 18.26 211.301 17.76 211.021 17.18C210.741 16.58 210.601 15.91 210.601 15.17V0.319999H216.481ZM252.536 20H260.036L254.246 14.51C254.946 14.51 255.616 14.4 256.256 14.18C256.916 13.94 257.486 13.61 257.966 13.19C258.466 12.77 258.856 12.27 259.136 11.69C259.436 11.09 259.586 10.42 259.586 9.68V5.15C259.586 4.41 259.446 3.75 259.166 3.17C258.886 2.57 258.516 2.06 258.056 1.64C257.596 1.22 257.056 0.899999 256.436 0.679998C255.836 0.439999 255.206 0.319999 254.546 0.319999H235.676V20H241.526V14.51H246.566L252.536 20ZM252.716 6.11C252.956 6.15 253.166 6.25 253.346 6.41C253.546 6.57 253.666 6.73 253.706 6.89V7.85C253.706 8.03 253.596 8.21 253.376 8.39C253.176 8.55 252.956 8.65 252.716 8.69H241.526V6.11H252.716ZM280.7 7.31H266.63V6.11H284.06V0.319999H260.75V20H284.06V14.21H266.63V13.01H280.7V7.31ZM23.39 30.32V36.11H7.07C6.79 36.11 6.53 36.2 6.29 36.38C6.07 36.56 5.96 36.75 5.96 36.95V43.37C5.96 43.57 6.07 43.76 6.29 43.94C6.53 44.12 6.79 44.21 7.07 44.21H17.51V38.72H23.39V50H5.12C4.46 50 3.82 49.89 3.2 49.67C2.6 49.43 2.07 49.1 1.61 48.68C1.15 48.26 0.78 47.76 0.5 47.18C0.22 46.58 0.0800001 45.91 0.0800001 45.17V35.15C0.0800001 34.41 0.22 33.75 0.5 33.17C0.78 32.57 1.15 32.06 1.61 31.64C2.07 31.22 2.6 30.9 3.2 30.68C3.82 30.44 4.46 30.32 5.12 30.32H23.39ZM38.669 37.52L31.259 50H24.239L35.279 31.55C35.819 31.01 36.399 30.67 37.019 30.53C37.639 30.39 38.189 30.32 38.669 30.32C39.149 30.32 39.699 30.39 40.319 30.53C40.939 30.67 41.519 31.01 42.059 31.55L53.099 50H46.079L38.669 37.52ZM73.1491 48.77C72.6291 49.21 72.1991 49.53 71.8591 49.73C71.5191 49.91 71.2491 50 71.0491 50H68.9191C68.7191 50 68.4491 49.91 68.1091 49.73C67.7691 49.53 67.3391 49.21 66.8191 48.77L59.8291 39.2V50H53.9491V32.51C53.9491 32.31 54.0091 32.09 54.1291 31.85C54.2691 31.59 54.4291 31.35 54.6091 31.13C54.7891 30.89 54.9691 30.7 55.1491 30.56C55.3491 30.4 55.5091 30.32 55.6291 30.32H59.3491C59.7091 30.32 60.4191 30.73 61.4791 31.55L69.9691 43.1L78.4891 31.55C79.5491 30.73 80.2591 30.32 80.6191 30.32H84.3391C84.4591 30.32 84.6091 30.4 84.7891 30.56C84.9891 30.7 85.1791 30.89 85.3591 31.13C85.5391 31.35 85.6891 31.59 85.8091 31.85C85.9491 32.09 86.0191 32.31 86.0191 32.51V50H80.1391V39.2L73.1491 48.77ZM107.118 37.31H93.0479V36.11H110.478V30.32H87.1679V50H110.478V44.21H93.0479V43.01H107.118V37.31ZM137.301 50H144.801L139.011 44.51C139.711 44.51 140.381 44.4 141.021 44.18C141.681 43.94 142.251 43.61 142.731 43.19C143.231 42.77 143.621 42.27 143.901 41.69C144.201 41.09 144.351 40.42 144.351 39.68V35.15C144.351 34.41 144.211 33.75 143.931 33.17C143.651 32.57 143.281 32.06 142.821 31.64C142.361 31.22 141.821 30.9 141.201 30.68C140.601 30.44 139.971 30.32 139.311 30.32H120.441V50H126.291V44.51H131.331L137.301 50ZM137.481 36.11C137.721 36.15 137.931 36.25 138.111 36.41C138.311 36.57 138.431 36.73 138.471 36.89V37.85C138.471 38.03 138.361 38.21 138.141 38.39C137.941 38.55 137.721 38.65 137.481 38.69H126.291V36.11H137.481ZM165.466 37.31H151.396V36.11H168.826V30.32H145.516V50H168.826V44.21H151.396V43.01H165.466V37.31ZM175.855 44.18H192.505V50H169.975V30.32H175.855V44.18ZM213.622 37.31H199.552V36.11H216.982V30.32H193.672V50H216.982V44.21H199.552V43.01H213.622V37.31ZM232.261 37.52L224.851 50H217.831L228.871 31.55C229.411 31.01 229.991 30.67 230.611 30.53C231.231 30.39 231.781 30.32 232.261 30.32C232.741 30.32 233.291 30.39 233.911 30.53C234.531 30.67 235.111 31.01 235.651 31.55L246.691 50H239.671L232.261 37.52ZM253.931 37.31C253.591 37.21 253.421 37.01 253.421 36.71C253.441 36.53 253.481 36.4 253.541 36.32C253.601 36.22 253.731 36.15 253.931 36.11H270.851V30.32H252.581C251.921 30.32 251.281 30.44 250.661 30.68C250.061 30.9 249.531 31.22 249.071 31.64C248.611 32.06 248.241 32.57 247.961 33.17C247.681 33.75 247.541 34.41 247.541 35.15V38.18C247.541 38.92 247.681 39.59 247.961 40.19C248.241 40.77 248.611 41.27 249.071 41.69C249.531 42.11 250.061 42.44 250.661 42.68C251.281 42.9 251.921 43.01 252.581 43.01H264.461C264.801 43.11 264.971 43.3 264.971 43.58C264.951 43.7 264.911 43.83 264.851 43.97C264.791 44.09 264.661 44.17 264.461 44.21H247.541V50H265.811C266.471 50 267.101 49.89 267.701 49.67C268.321 49.43 268.861 49.1 269.321 48.68C269.781 48.26 270.151 47.76 270.431 47.18C270.711 46.58 270.851 45.91 270.851 45.17V42.14C270.851 41.4 270.711 40.74 270.431 40.16C270.151 39.56 269.781 39.05 269.321 38.63C268.861 38.21 268.321 37.89 267.701 37.67C267.101 37.43 266.471 37.31 265.811 37.31H253.931ZM291.95 37.31H277.88V36.11H295.31V30.32H272V50H295.31V44.21H277.88V43.01H291.95V37.31ZM313.499 36.11C313.739 36.15 313.949 36.25 314.129 36.41C314.329 36.57 314.449 36.73 314.489 36.89V43.37C314.489 43.55 314.379 43.73 314.159 43.91C313.959 44.07 313.739 44.17 313.499 44.21H302.339V36.11H313.499ZM296.459 50H315.329C315.989 50 316.619 49.89 317.219 49.67C317.839 49.43 318.379 49.1 318.839 48.68C319.299 48.26 319.669 47.76 319.949 47.18C320.229 46.58 320.369 45.91 320.369 45.17V35.15C320.369 34.41 320.229 33.75 319.949 33.17C319.669 32.57 319.299 32.06 318.839 31.64C318.379 31.22 317.839 30.9 317.219 30.68C316.619 30.44 315.989 30.32 315.329 30.32H296.459V50Z" fill="white"/>
</svg>
