<svg width="168" height="24" viewBox="0 0 168 24" fill="none" xmlns="http://www.w3.org/2000/svg">
<path d="M11.4314 7.332H12.4314V6.332H11.4314V7.332ZM0.739359 7.332H-0.260641V8.332H0.739359V7.332ZM0.739359 0.383999V-0.616001H-0.260641V0.383999H0.739359ZM29.1434 0.383999H30.1434V-0.616001H29.1434V0.383999ZM29.1434 7.332V8.332H30.1434V7.332H29.1434ZM18.4514 7.332V6.332H17.4514V7.332H18.4514ZM18.4514 24V25H19.4514V24H18.4514ZM11.4314 24H10.4314V25H11.4314V24ZM11.4314 6.332H0.739359V8.332H11.4314V6.332ZM1.73936 7.332V0.383999H-0.260641V7.332H1.73936ZM0.739359 1.384H29.1434V-0.616001H0.739359V1.384ZM28.1434 0.383999V7.332H30.1434V0.383999H28.1434ZM29.1434 6.332H18.4514V8.332H29.1434V6.332ZM17.4514 7.332V24H19.4514V7.332H17.4514ZM18.4514 23H11.4314V25H18.4514V23ZM12.4314 24V7.332H10.4314V24H12.4314ZM65.6872 8.772H66.6872V7.772H65.6872V8.772ZM48.8032 8.772H47.8032V9.772H48.8032V8.772ZM48.8032 7.332V6.332H47.8032V7.332H48.8032ZM69.7192 7.332V8.332H70.7192V7.332H69.7192ZM69.7192 0.383999H70.7192V-0.616001H69.7192V0.383999ZM41.7472 0.383999V-0.616001H40.7472V0.383999H41.7472ZM41.7472 24H40.7472V25H41.7472V24ZM69.7192 24V25H70.7192V24H69.7192ZM69.7192 17.052H70.7192V16.052H69.7192V17.052ZM48.8032 17.052H47.8032V18.052H48.8032V17.052ZM48.8032 15.612V14.612H47.8032V15.612H48.8032ZM65.6872 15.612V16.612H66.6872V15.612H65.6872ZM65.6872 7.772H48.8032V9.772H65.6872V7.772ZM49.8032 8.772V7.332H47.8032V8.772H49.8032ZM48.8032 8.332H69.7192V6.332H48.8032V8.332ZM70.7192 7.332V0.383999H68.7192V7.332H70.7192ZM69.7192 -0.616001H41.7472V1.384H69.7192V-0.616001ZM40.7472 0.383999V24H42.7472V0.383999H40.7472ZM41.7472 25H69.7192V23H41.7472V25ZM70.7192 24V17.052H68.7192V24H70.7192ZM69.7192 16.052H48.8032V18.052H69.7192V16.052ZM49.8032 17.052V15.612H47.8032V17.052H49.8032ZM48.8032 16.612H65.6872V14.612H48.8032V16.612ZM66.6872 15.612V8.772H64.6872V15.612H66.6872ZM108.146 24L107.291 24.519L107.583 25H108.146V24ZM116.57 24V25H118.334L117.428 23.4865L116.57 24ZM103.322 1.86L104.18 1.34653L104.117 1.24037L104.029 1.15289L103.322 1.86ZM101.234 0.635998L101.454 -0.339443V-0.339443L101.234 0.635998ZM97.274 0.635998L97.0537 -0.339443L97.274 0.635998ZM95.186 1.86L94.4788 1.15289L94.3914 1.24037L94.3278 1.34653L95.186 1.86ZM81.938 24L81.0798 23.4865L80.1742 25H81.938V24ZM90.362 24V25H90.9305L91.2212 24.5115L90.362 24ZM92.162 20.976V19.976H91.5934L91.3027 20.4645L92.162 20.976ZM106.31 20.976L107.165 20.457L106.873 19.976H106.31V20.976ZM99.254 9.024L100.115 8.51567L99.259 7.06528L98.3954 8.51126L99.254 9.024ZM102.314 14.208V15.208H104.065L103.175 13.6997L102.314 14.208ZM96.158 14.208L95.2994 13.6953L94.396 15.208H96.158V14.208ZM108.146 25H116.57V23H108.146V25ZM117.428 23.4865L104.18 1.34653L102.464 2.37347L115.712 24.5135L117.428 23.4865ZM104.029 1.15289C103.275 0.398404 102.417 -0.122084 101.454 -0.339443L101.014 1.61144C101.539 1.73008 102.073 2.02559 102.615 2.56711L104.029 1.15289ZM101.454 -0.339443C100.66 -0.518848 99.9235 -0.616001 99.254 -0.616001V1.384C99.7364 1.384 100.32 1.45485 101.014 1.61144L101.454 -0.339443ZM99.254 -0.616001C98.5844 -0.616001 97.8482 -0.518848 97.0537 -0.339443L97.4942 1.61144C98.1877 1.45485 98.7715 1.384 99.254 1.384V-0.616001ZM97.0537 -0.339443C96.0911 -0.122084 95.2333 0.398404 94.4788 1.15289L95.8931 2.56711C96.4346 2.02559 96.9688 1.73008 97.4942 1.61144L97.0537 -0.339443ZM94.3278 1.34653L81.0798 23.4865L82.7961 24.5135L96.0441 2.37347L94.3278 1.34653ZM81.938 25H90.362V23H81.938V25ZM91.2212 24.5115L93.0212 21.4875L91.3027 20.4645L89.5027 23.4885L91.2212 24.5115ZM92.162 21.976H106.31V19.976H92.162V21.976ZM105.455 21.495L107.291 24.519L109.001 23.481L107.165 20.457L105.455 21.495ZM98.3928 9.53233L101.453 14.7163L103.175 13.6997L100.115 8.51567L98.3928 9.53233ZM102.314 13.208H96.158V15.208H102.314V13.208ZM97.0165 14.7207L100.112 9.53674L98.3954 8.51126L95.2994 13.6953L97.0165 14.7207ZM151.83 22.524L152.476 23.2874L152.567 23.2103L152.638 23.1138L151.83 22.524ZM150.282 23.676L150.75 24.5598L150.77 24.5493L150.789 24.5379L150.282 23.676ZM145.782 23.676L145.275 24.5379L145.294 24.5493L145.314 24.5598L145.782 23.676ZM144.234 22.524L143.427 23.1138L143.497 23.2103L143.588 23.2874L144.234 22.524ZM135.846 11.04L136.654 10.4502L134.846 7.97549V11.04H135.846ZM135.846 24V25H136.846V24H135.846ZM128.79 24H127.79V25H128.79V24ZM129.006 2.22L128.126 1.7459L128.118 1.75924L128.112 1.77278L129.006 2.22ZM129.582 1.356L130.356 1.98924L130.369 1.97289L130.382 1.956L129.582 1.356ZM130.23 0.672L130.844 1.46143L130.855 1.45287L130.23 0.672ZM137.826 1.86L138.632 1.26773L138.549 1.1548L138.438 1.06904L137.826 1.86ZM148.014 15.72L147.208 16.3123L148.013 17.4065L148.819 16.3136L148.014 15.72ZM158.238 1.86L157.626 1.06904L157.516 1.15427L157.433 1.26637L158.238 1.86ZM165.798 0.672L165.134 1.41941L165.177 1.45796L165.225 1.49123L165.798 0.672ZM166.482 1.356L165.682 1.956L165.695 1.97289L165.708 1.98924L166.482 1.356ZM167.022 2.22L166.114 2.63906L166.134 2.68252L166.158 2.72387L167.022 2.22ZM167.274 24V25H168.274V24H167.274ZM160.218 24H159.218V25H160.218V24ZM160.218 11.04H161.218V7.97549L159.411 10.4502L160.218 11.04ZM151.184 21.7606C150.577 22.2742 150.111 22.6163 149.775 22.8141L150.789 24.5379C151.269 24.2557 151.835 23.8298 152.476 23.2874L151.184 21.7606ZM149.814 22.7922C149.643 22.8828 149.512 22.9386 149.417 22.9703C149.317 23.0035 149.288 23 149.31 23V25C149.804 25 150.308 24.7939 150.75 24.5598L149.814 22.7922ZM149.31 23H146.754V25H149.31V23ZM146.754 23C146.777 23 146.747 23.0035 146.647 22.9703C146.552 22.9386 146.421 22.8828 146.25 22.7922L145.314 24.5598C145.756 24.7939 146.261 25 146.754 25V23ZM146.289 22.8141C145.953 22.6163 145.487 22.2742 144.88 21.7606L143.588 23.2874C144.229 23.8298 144.795 24.2557 145.275 24.5379L146.289 22.8141ZM145.042 21.9342L136.654 10.4502L135.039 11.6298L143.427 23.1138L145.042 21.9342ZM134.846 11.04V24H136.846V11.04H134.846ZM135.846 23H128.79V25H135.846V23ZM129.79 24V3.012H127.79V24H129.79ZM129.79 3.012C129.79 2.97096 129.803 2.86161 129.901 2.66721L128.112 1.77278C127.921 2.15439 127.79 2.57304 127.79 3.012H129.79ZM129.887 2.6941C130.025 2.43625 130.182 2.20184 130.356 1.98924L128.808 0.722761C128.55 1.03816 128.323 1.37975 128.126 1.7459L129.887 2.6941ZM130.382 1.956C130.561 1.71813 130.716 1.56074 130.844 1.46135L129.616 -0.117354C129.312 0.119259 129.036 0.417871 128.782 0.756001L130.382 1.956ZM130.855 1.45287C130.896 1.41976 130.93 1.39542 130.956 1.37805C130.982 1.36047 130.997 1.35253 131.001 1.35043C131.006 1.34807 130.993 1.35521 130.964 1.36352C130.935 1.37182 130.88 1.384 130.806 1.384V-0.616001C130.522 -0.616001 130.279 -0.524589 130.107 -0.438427C129.927 -0.348654 129.759 -0.231715 129.605 -0.108868L130.855 1.45287ZM130.806 1.384H135.27V-0.616001H130.806V1.384ZM135.27 1.384C135.195 1.384 135.311 1.37512 135.733 1.61898C136.104 1.83296 136.595 2.17156 137.214 2.65096L138.438 1.06904C137.786 0.564438 137.215 0.165037 136.733 -0.112983C136.303 -0.361126 135.777 -0.616001 135.27 -0.616001V1.384ZM137.02 2.45227L147.208 16.3123L148.82 15.1277L138.632 1.26773L137.02 2.45227ZM148.819 16.3136L159.043 2.45363L157.433 1.26637L147.209 15.1264L148.819 16.3136ZM158.85 2.65096C159.47 2.17156 159.961 1.83296 160.331 1.61898C160.754 1.37512 160.869 1.384 160.794 1.384V-0.616001C160.287 -0.616001 159.761 -0.361126 159.331 -0.112983C158.85 0.165037 158.279 0.564438 157.626 1.06904L158.85 2.65096ZM160.794 1.384H165.258V-0.616001H160.794V1.384ZM165.258 1.384C165.183 1.384 165.125 1.37152 165.089 1.3608C165.053 1.35021 165.033 1.33977 165.031 1.33835C165.028 1.33677 165.036 1.34077 165.055 1.35473C165.074 1.3685 165.1 1.38934 165.134 1.41941L166.463 -0.0754066C166.221 -0.290471 165.797 -0.616001 165.258 -0.616001V1.384ZM165.225 1.49123C165.361 1.58655 165.516 1.73399 165.682 1.956L167.282 0.755998C167.017 0.402012 166.715 0.0934439 166.372 -0.147233L165.225 1.49123ZM165.708 1.98924C165.87 2.18731 166.005 2.40325 166.114 2.63906L167.93 1.80094C167.751 1.41274 167.526 1.05269 167.256 0.722763L165.708 1.98924ZM166.158 2.72387C166.27 2.9157 166.274 3.00488 166.274 3.012H168.274C168.274 2.53912 168.11 2.1003 167.886 1.71613L166.158 2.72387ZM166.274 3.012V24H168.274V3.012H166.274ZM167.274 23H160.218V25H167.274V23ZM161.218 24V11.04H159.218V24H161.218ZM159.411 10.4502L151.023 21.9342L152.638 23.1138L161.026 11.6298L159.411 10.4502Z" fill="white"/>
</svg>
