<svg width="179" height="190" viewBox="0 0 179 190" fill="none" xmlns="http://www.w3.org/2000/svg">
<path fill-rule="evenodd" clip-rule="evenodd" d="M178.858 189.279H127.624L114.893 178.006H25.4635L12.7318 165.189V0.470703H65.4996L77.4644 12.5157H161.065L178.858 29.1933V189.279ZM127.931 188.352H177.938V29.6566L160.758 13.4422H77.1576L65.1928 1.39724H13.6521V164.88L25.7703 177.079H115.199L127.931 188.352ZM6.90278 172.652L1.53397 167.402V4.30574C0.663376 4.15871 0 3.39649 0 2.47829C0 1.45486 0.824126 0.625213 1.84074 0.625213C2.85735 0.625213 3.68148 1.45486 3.68148 2.47829C3.68148 3.39648 3.01812 4.15869 2.14754 4.30574V167.093L7.20957 172.189L6.90278 172.652Z" fill="url(#paint0_linear_1231_35)"/>
<defs>
<linearGradient id="paint0_linear_1231_35" x1="89.4292" y1="0.470703" x2="89.4292" y2="224.943" gradientUnits="userSpaceOnUse">
<stop stop-color="#9AB0FF"/>
<stop offset="1" stop-color="#000C74" stop-opacity="0"/>
</linearGradient>
</defs>
</svg>
