<svg width="23" height="16" viewBox="0 0 23 16" fill="none" xmlns="http://www.w3.org/2000/svg">
<path d="M19.3763 1.77414C17.5024 0.268215 14.5393 0.0131043 14.4141 0.0022814C14.2161 -0.0147259 14.0283 0.0973681 13.9471 0.278264C13.944 0.284449 13.7786 0.764519 13.6186 1.22758C15.7963 1.6087 17.2759 2.45443 17.3548 2.50081C17.7243 2.71572 17.848 3.18961 17.6323 3.55836C17.4893 3.80419 17.2303 3.9418 16.9644 3.9418C16.8322 3.9418 16.6992 3.90856 16.5771 3.83744C16.5554 3.82429 14.3847 2.58894 11.5545 2.58894C8.72355 2.58894 6.55202 3.82507 6.53038 3.83744C6.16163 4.05157 5.68851 3.92557 5.47438 3.55604C5.26024 3.18807 5.3847 2.71572 5.75268 2.50081C5.83153 2.45443 7.31658 1.60561 9.50048 1.22526C9.33195 0.756789 9.16188 0.284449 9.15878 0.278264C9.07761 0.0965951 8.88976 -0.0178182 8.69185 0.0022814C8.56662 0.0123312 5.60348 0.267441 3.70484 1.79424C2.71223 2.71109 0.730103 8.07149 0.730103 12.706C0.730103 12.7879 0.750975 12.8676 0.791947 12.9387C2.16104 15.3429 5.89337 15.9722 6.74374 15.9992C6.74915 16 6.75379 16 6.75843 16C6.9084 16 7.04987 15.9281 7.13878 15.8067L8.05872 14.5606C6.04103 14.0743 4.97421 13.3097 4.91004 13.2626C4.5668 13.0098 4.49259 12.5259 4.74538 12.1819C4.9974 11.8394 5.47979 11.7636 5.82303 12.0149C5.85163 12.0334 7.82061 13.4118 11.553 13.4118C15.3 13.4118 17.2636 12.028 17.2829 12.0141C17.6261 11.7652 18.1101 11.8402 18.3613 12.1849C18.6118 12.5282 18.5391 13.009 18.1974 13.261C18.1332 13.3082 17.0718 14.0712 15.0588 14.5575L15.9671 15.806C16.056 15.9281 16.1975 15.9992 16.3475 15.9992C16.3529 15.9992 16.3575 15.9992 16.3622 15.9985C17.2133 15.9714 20.9456 15.3421 22.314 12.9379C22.3549 12.8668 22.3758 12.7872 22.3758 12.7052C22.3758 8.07149 20.3937 2.71109 19.3763 1.77414ZM8.46071 11.0926C7.60648 11.0926 6.91459 10.2276 6.91459 9.15996C6.91459 8.09236 7.60648 7.22731 8.46071 7.22731C9.31494 7.22731 10.0068 8.09236 10.0068 9.15996C10.0068 10.2276 9.31494 11.0926 8.46071 11.0926ZM14.6452 11.0926C13.791 11.0926 13.0991 10.2276 13.0991 9.15996C13.0991 8.09236 13.791 7.22731 14.6452 7.22731C15.4994 7.22731 16.1913 8.09236 16.1913 9.15996C16.1913 10.2276 15.4994 11.0926 14.6452 11.0926Z" fill="white"/>
</svg>
