<svg width="20" height="16"  viewBox="0 0 20 16" fill="none" xmlns="http://www.w3.org/2000/svg">
<path d="M19.7301 1.89355C19.0043 2.21579 18.2263 2.43215 17.4084 2.53035C18.2432 2.03011 18.8846 1.23832 19.1853 0.296154C18.4058 0.758032 17.5389 1.09408 16.6197 1.27515C15.8831 0.489498 14.8336 0 13.672 0C11.4408 0 9.63169 1.80761 9.63169 4.03875C9.63169 4.35485 9.66851 4.66328 9.73757 4.95943C6.38013 4.79064 3.40477 3.18251 1.41149 0.738084C1.06316 1.33653 0.865214 2.03011 0.865214 2.76973C0.865214 4.17071 1.57721 5.4075 2.66209 6.13331C1.99919 6.11182 1.37619 5.92922 0.831455 5.62693C0.831455 5.64381 0.831455 5.66069 0.831455 5.67757C0.831455 7.63556 2.22476 9.26671 4.07074 9.63959C3.73315 9.73166 3.37562 9.78076 3.00734 9.78076C2.74648 9.78076 2.49329 9.75621 2.24624 9.70711C2.76183 11.3106 4.25334 12.4814 6.01952 12.5137C4.63849 13.597 2.89686 14.2415 1.00332 14.2415C0.676473 14.2415 0.355767 14.2231 0.0411987 14.1847C1.82733 15.3325 3.95105 16 6.23282 16C13.6628 16 17.7261 9.84521 17.7261 4.5083C17.7261 4.33337 17.7215 4.1569 17.7153 3.98504C18.504 3.41575 19.1884 2.70375 19.7301 1.89355Z" fill="white"/>
</svg>
