<svg width="17" height="16" viewBox="0 0 17 16" fill="none" xmlns="http://www.w3.org/2000/svg">
<g clip-path="url(#clip0_1019_419)">
<path d="M9.40067 8.00001C9.40067 10.5093 7.38039 12.5434 4.88823 12.5434C2.39607 12.5434 0.375793 10.5093 0.375793 8.00001C0.375793 5.49076 2.39607 3.4566 4.88823 3.4566C7.38036 3.4566 9.40067 5.49076 9.40067 8.00001Z" fill="white"/>
<path d="M14.3509 8.00002C14.3509 10.362 13.3408 12.2768 12.0947 12.2768C10.8487 12.2768 9.8385 10.362 9.8385 8.00002C9.8385 5.63799 10.8487 3.72321 12.0947 3.72321C13.3408 3.72321 14.3509 5.63799 14.3509 8.00002Z" fill="white"/>
<path d="M16.3758 8C16.3758 10.1163 16.0205 11.8318 15.5823 11.8318C15.144 11.8318 14.7888 10.1163 14.7888 8C14.7888 5.88371 15.144 4.16815 15.5823 4.16815C16.0205 4.16815 16.3758 5.88371 16.3758 8Z" fill="white"/>
</g>
<defs>
<clipPath id="clip0_1019_419">
<rect width="16" height="16" fill="white" transform="translate(0.375793)"/>
</clipPath>
</defs>
</svg>
